<?xml version="1.0" encoding="UTF-8" standalone="no"?>
<!-- Created with Inkscape (http://www.inkscape.org/) -->

<svg
   xmlns:dc="http://purl.org/dc/elements/1.1/"
   xmlns:cc="http://creativecommons.org/ns#"
   xmlns:rdf="http://www.w3.org/1999/02/22-rdf-syntax-ns#"
   xmlns:svg="http://www.w3.org/2000/svg"
   xmlns="http://www.w3.org/2000/svg"
   version="1.1"
   width="960"
   height="1000"
   id="svg2">
  <metadata
     id="metadata12">
    <rdf:RDF>
      <cc:Work
         rdf:about="">
        <dc:format>image/svg+xml</dc:format>
        <dc:type
           rdf:resource="http://purl.org/dc/dcmitype/StillImage" />
        <dc:title></dc:title>
      </cc:Work>
    </rdf:RDF>
  </metadata>
  <defs
     id="defs10" />
  <g
     id="g3008">
    <path
       d="M 480,20 C 348,20 235,66.667 141,160 47,253.333 0,366.667 0,500 0,632 47,745 141,839 235,933 348,980 480,980 613.333,980 726.667,933 820,839 913.333,745 960,632 960,500 960,366.667 913.333,253.333 820,160 726.667,66.667 613.333,20 480,20 z M 337.8125,239.84375 c 65.15501,0 117.96875,52.81373 117.96875,117.96875 0,18.30203 -4.15811,35.63624 -11.59375,51.09375 L 578.46875,532.625 c 13.52706,-5.40111 28.26644,-8.40625 43.71875,-8.40625 65.15849,0 117.96875,52.81373 117.96875,117.96875 0,65.15849 -52.81199,117.96875 -117.96875,117.96875 -65.15675,0 -117.96875,-52.81198 -117.96875,-117.96875 0,-20.03648 5.00143,-38.88376 13.8125,-55.40625 L 388.75,464.25 c -15.41935,7.3888 -32.69618,11.53125 -50.9375,11.53125 -65.15503,0 -117.96875,-52.81026 -117.96875,-117.96875 0,-65.15676 52.81372,-117.96875 117.96875,-117.96875 z m 284.375,0 c 65.15849,0 117.96875,52.812 117.96875,117.96875 0,65.1585 -52.81199,117.96875 -117.96875,117.96875 -65.15675,0 -117.96875,-52.81025 -117.96875,-117.96875 0,-65.15675 52.81373,-117.96875 117.96875,-117.96875 z m -284.375,79.5 c -21.24714,0 -38.46875,17.22161 -38.46875,38.46875 0,21.24541 17.22161,38.46875 38.46875,38.46875 21.24888,0 38.46875,-17.22334 38.46875,-38.46875 0,-21.24714 -17.2216,-38.46875 -38.46875,-38.46875 z m 284.375,0 c -21.24888,0 -38.46875,17.22161 -38.46875,38.46875 0,21.24541 17.21987,38.46875 38.46875,38.46875 21.24715,0 38.46875,-17.22334 38.46875,-38.46875 0,-21.24714 -17.2216,-38.46875 -38.46875,-38.46875 z m -284.375,204.875 c 65.15502,0 117.96875,52.81373 117.96875,117.96875 0,65.15849 -52.81373,117.96875 -117.96875,117.96875 -65.15502,0 -117.96875,-52.81199 -117.96875,-117.96875 0,-65.15675 52.81373,-117.96875 117.96875,-117.96875 z m 0,79.5 c -21.24714,0 -38.46875,17.21987 -38.46875,38.46875 0,21.24715 17.22161,38.46875 38.46875,38.46875 21.24888,0 38.46875,-17.2216 38.46875,-38.46875 0,-21.24888 -17.2216,-38.46875 -38.46875,-38.46875 z m 284.375,0 c -21.24888,0 -38.46875,17.21987 -38.46875,38.46875 0,21.24715 17.21987,38.46875 38.46875,38.46875 21.24715,0 38.46875,-17.2216 38.46875,-38.46875 0,-21.24888 -17.2216,-38.46875 -38.46875,-38.46875 z"
       id="path16" />
  </g>
</svg>
