<?xml version="1.0" encoding="UTF-8" standalone="no"?>
<!-- Created with Inkscape (http://www.inkscape.org/) -->

<svg
   xmlns:dc="http://purl.org/dc/elements/1.1/"
   xmlns:cc="http://creativecommons.org/ns#"
   xmlns:rdf="http://www.w3.org/1999/02/22-rdf-syntax-ns#"
   xmlns:svg="http://www.w3.org/2000/svg"
   xmlns="http://www.w3.org/2000/svg"
   version="1.1"
   width="960"
   height="1000"
   id="svg2">
  <metadata
     id="metadata12">
    <rdf:RDF>
      <cc:Work
         rdf:about="">
        <dc:format>image/svg+xml</dc:format>
        <dc:type
           rdf:resource="http://purl.org/dc/dcmitype/StillImage" />
        <dc:title></dc:title>
      </cc:Work>
    </rdf:RDF>
  </metadata>
  <defs
     id="defs10" />
  <g
     id="g3009">
    <path
       d="M 480,20 C 346.667,20 233.333,66.667 140,160 46.667,253.333 0,366.667 0,500 0,632 46.667,745 140,839 233.333,933 346.667,980 480,980 612,980 725,933 819,839 913,745 960,632 960,500 960,366.667 913,253.333 819,160 725,66.667 612,20 480,20 z m -201.625,269.25 170.8125,0 c 66.42407,0 68.3125,64.53125 68.3125,64.53125 0,104.38029 -81.59375,117.6875 -81.59375,117.6875 56.94115,0 56.9375,66.40625 56.9375,66.40625 C 492.84075,655.54337 360,670.75 360,670.75 l -163.21875,0 81.59375,-381.5 z m 91.78125,66.875 c -4.63392,-0.0186 -7.71875,0.34375 -7.71875,0.34375 l -16.125,79.1875 28.34375,0 c 0,0 39.6594,-2.80953 38.1875,-48.46875 -0.8811,-27.47158 -28.78573,-31.00679 -42.6875,-31.0625 z m 180.96875,26.6875 212.09375,0 -10.375,64.9375 -138.5,147.15625 111.65625,0 L 708.6875,665 l -219.875,0 14.71875,-66.65625 130.71875,-144.5625 -96.96875,0 L 551.125,382.8125 z M 349.6875,502.03125 c -9.13452,0.0911 -16.25,1.6875 -16.25,1.6875 l -20.90625,92.5 41.5625,-0.0937 c 20.55224,-1.7554 30.81517,-22.62336 34.375,-56.34375 3.4291,-32.58264 -21.34262,-37.92384 -38.78125,-37.75 z"
       id="path3004" />
  </g>
</svg>
