<?xml version="1.0" encoding="UTF-8" standalone="no"?>
<!-- Created with Inkscape (http://www.inkscape.org/) -->

<svg
   xmlns:dc="http://purl.org/dc/elements/1.1/"
   xmlns:cc="http://creativecommons.org/ns#"
   xmlns:rdf="http://www.w3.org/1999/02/22-rdf-syntax-ns#"
   xmlns:svg="http://www.w3.org/2000/svg"
   xmlns="http://www.w3.org/2000/svg"
   version="1.1"
   width="353.33401"
   height="353.33301"
   viewBox="0 0 353.334 353.333"
   id="Layer_2"
   xml:space="preserve"><metadata
     id="metadata15"><rdf:RDF><cc:Work
         rdf:about=""><dc:format>image/svg+xml</dc:format><dc:type
           rdf:resource="http://purl.org/dc/dcmitype/StillImage" /><dc:title></dc:title></cc:Work></rdf:RDF></metadata><defs
     id="defs13" /><path
     d="m 176.668,1.667 c -96.651,0 -175.001,78.35 -175.001,174.999 0,96.649 78.35,174.999 175.001,174.999 96.647,0 174.999,-78.35 174.999,-174.999 C 351.667,80.017 273.315,1.667 176.668,1.667 z M 131.87,242.335 H 71.991 l 29.94,-139.953 c 0,0 38.295,0 62.665,0 24.369,0 25.065,23.675 25.065,23.675 0,38.294 -29.94,43.168 -29.94,43.168 20.89,0 20.89,24.37 20.89,24.37 -10e-4,43.169 -48.741,48.74 -48.741,48.74 z m 144.124,-81.812 -50.813,53.988 h 40.968 l -6.351,25.724 h -80.664 l 5.396,-24.454 47.954,-53.036 h -35.568 l 5.081,-26.041 h 77.808 l -3.811,23.819 z m -143.222,-33.48 -5.925,29.043 h 10.404 c 0,0 14.554,-1.021 14.014,-17.772 -0.431,-13.438 -18.493,-11.271 -18.493,-11.271 z m -10.649,54.019 -7.66,33.93 15.249,-0.029 c 7.54,-0.644 11.298,-8.301 12.604,-20.672 1.917,-18.215 -20.193,-13.229 -20.193,-13.229 z"
     id="path9" /></svg>