<?xml version="1.0" encoding="UTF-8" standalone="no"?>
<!-- Created with Inkscape (http://www.inkscape.org/) -->

<svg
   xmlns:dc="http://purl.org/dc/elements/1.1/"
   xmlns:cc="http://creativecommons.org/ns#"
   xmlns:rdf="http://www.w3.org/1999/02/22-rdf-syntax-ns#"
   xmlns:svg="http://www.w3.org/2000/svg"
   xmlns="http://www.w3.org/2000/svg"
   version="1.1"
   width="960"
   height="1000"
   id="svg2">
  <metadata
     id="metadata12">
    <rdf:RDF>
      <cc:Work
         rdf:about="">
        <dc:format>image/svg+xml</dc:format>
        <dc:type
           rdf:resource="http://purl.org/dc/dcmitype/StillImage" />
        <dc:title></dc:title>
      </cc:Work>
    </rdf:RDF>
  </metadata>
  <defs
     id="defs10" />
  <path
     d="m 622.19023,524.21209 c -15.45231,0 -30.19697,3.00062 -43.72403,8.40173 l -134.28195,-123.72083 0,0 c 7.43564,-15.45751 11.60181,-32.78131 11.60181,-51.08334 0,-65.15502 -52.82301,-117.97976 -117.97802,-117.97976 -65.15503,0 -117.97803,52.823 -117.97803,117.97976 0,65.15849 52.823,117.97976 117.97803,117.97976 18.24132,0 35.51482,-4.14883 50.93417,-11.53763 v 0.004 l 129.29019,122.51537 0,0 c -8.81107,16.52249 -13.82019,35.38301 -13.82019,55.41949 0,65.15677 52.82127,117.97976 117.97802,117.97976 65.15676,0 117.97976,-52.82127 117.97976,-117.97976 0,-65.15502 -52.82127,-117.97802 -117.97976,-117.97802 z M 337.80977,396.28346 c -21.24714,0 -38.47034,-17.2284 -38.47034,-38.47381 0,-21.24714 17.2232,-38.47034 38.47034,-38.47034 21.24715,0 38.47208,17.2232 38.47208,38.47034 0,21.24541 -17.2232,38.47381 -38.47208,38.47381 z m 284.38046,284.37526 c -21.24888,0 -38.47034,-17.22146 -38.47034,-38.46861 0,-21.24888 17.22146,-38.47034 38.47034,-38.47034 21.24715,0 38.47207,17.22146 38.47207,38.47034 0,21.24715 -17.22492,38.46861 -38.47207,38.46861 z M 337.80977,524.21209 c -65.15502,0 -117.97803,52.82127 -117.97803,117.97802 0,65.15676 52.82301,117.97976 117.97803,117.97976 65.15502,0 117.97802,-52.82127 117.97802,-117.97976 0,-65.15502 -52.823,-117.97802 -117.97802,-117.97802 z m 0,156.4501 c -21.24714,0 -38.47034,-17.22493 -38.47034,-38.47208 0,-21.24888 17.2232,-38.47034 38.47034,-38.47034 21.24715,0 38.47208,17.22146 38.47208,38.47034 0,21.24715 -17.2232,38.47208 -38.47208,38.47208 z M 622.19023,239.83162 c -65.15502,0 -117.97802,52.82301 -117.97802,117.97976 0,65.1585 52.82127,117.97976 117.97802,117.97976 65.15676,0 117.97976,-52.82126 117.97976,-117.97976 0,-65.15675 -52.82127,-117.97976 -117.97976,-117.97976 z m 0,156.44837 c -21.24888,0 -38.47034,-17.22493 -38.47034,-38.47034 0,-21.24714 17.22146,-38.47034 38.47034,-38.47034 21.24715,0 38.47207,17.2232 38.47207,38.47034 0,21.24541 -17.22492,38.47034 -38.47207,38.47034 z M 480,20 c 133.333,0 246.667,46.667 340,140 93.333,93.333 140,206.667 140,340 0,132 -46.667,245 -140,339 C 726.667,933 613.333,980 480,980 348,980 235,933 141,839 47,745 0,632 0,500 0,366.667 47,253.333 141,160 235,66.667 348,20 480,20 c 0,0 0,0 0,0"
     id="path16" />
</svg>
