<svg xmlns="http://www.w3.org/2000/svg" xmlns:xlink="http://www.w3.org/1999/xlink" viewBox="0 0 1334 1884"><g opacity=".7" stroke="#fff" stroke-linecap="square" fill="none" transform="translate(26.5 -1228.624)"><path d="M595 1229.124v1883m-620-1717l572 959m93 170l-666 588 621-628zm0-662h-666l606 959-605 179m0-516h665m-665-28h665m-665-102h665m-665-1125l665 593.517-45 39.483z" id="a"/><use transform="matrix(-1 0 0 1 1281 0)" xlink:href="#a" width="1" height="1"/><path d="M749 2589.124l-109 523"/><path d="M640 2484.124h-129l129 628v-523h109l22-105zm0-622l-92 492h64v36h-70l-13 66h222l-13-66h-70v-36h64z"/></g></svg>