<svg xmlns="http://www.w3.org/2000/svg" xmlns:xlink="http://www.w3.org/1999/xlink" viewBox="0 0 1331 543"><g><g opacity=".7" stroke="#fff" stroke-linecap="square" fill="none" transform="translate(25.594 -1827.624)"><path d="M647 2129.124l-147 21m-306 22l453-66m-563 42l556-105"/><path d="M662 2111.124l588 86"/><path d="M640 1967.124h-665m0-33h665m-138 0l138 33-665 159m0 136h665" id="a"/><use transform="matrix(-1 0 0 1 1280 0)" xlink:href="#a" height="4340.124" width="1280"/><path d="M1217 1828.124v542"/><path d="M215 2294.124v-261m42 274v-353m110 340v-310m47 293v-347m56.529-10v368m54.471-363v353m202.539-321v324m24.461-321v313m63-293v327m22-314v295m54.441-289v282m21.559-264v264m54-264v279m53-286v290m52-243v263m43-276v288m23-257v283m60-271v233"/><path d="M92 2294.124v-466"/><path d="M360.333 2102.813c0 28.028-22.722 50.75-50.75 50.75s-50.75-22.722-50.75-50.75 22.722-50.75 50.75-50.75 50.75 22.722 50.75 50.75z"/><path d="M352.653 2103.825c0 17.121-13.879 31-31 31-17.121 0-31-13.879-31-31 0-17.121 13.879-31 31-31 17.121 0 31 13.879 31 31z"/><path d="M367.136 2206.892c0 28.443-23.057 51.5-51.5 51.5s-51.5-23.057-51.5-51.5 23.057-51.5 51.5-51.5 51.5 23.057 51.5 51.5z"/><path d="M343.168 2205.971c0 16.845-13.655 30.5-30.5 30.5s-30.5-13.655-30.5-30.5 13.655-30.5 30.5-30.5 30.5 13.655 30.5 30.5z"/><path d="M922.029 2130.347c-16.264-24.586-9.518-57.701 15.068-73.964 24.586-16.264 57.701-9.518 73.964 15.068 12.629 19.091 11.679 44.11-2.362 62.188"/><path d="M934.951 2090.498c5.902-17.434 24.822-26.759 42.259-20.827 17.437 5.931 26.787 24.873 20.885 42.307-.58 1.714-1.3 3.378-2.15 4.975"/><path d="M996.521 2164.648c24.537 16.337 31.185 49.472 14.848 74.009-16.337 24.537-49.472 31.185-74.009 14.848-19.053-12.686-27.897-36.108-21.982-58.221"/><path d="M984.245 2183.835c14.416 11.443 16.803 32.401 5.332 46.81-11.472 14.409-32.458 16.813-46.874 5.37-1.418-1.125-2.741-2.364-3.957-3.704"/></g><g fill="#fff"><path d="M188.205 254.601c-8.658 2.083-70.88 17.042-70.88 17.042s10.706 2.374 10.706 11.47v143.462s-10.706 2.908-10.706 8.275h45.847s-2.068-5.383-5.788-5.383c-3.721 0-6.615-2.892-6.615-7.441 0-4.547.413-69.869.413-69.869l49.612-6.201s39.434-2.071 39.434-46.307c0-44.236-43.365-47.127-52.023-45.048m11.348 69.856l-49.199 8.268v-41.343l38.863-8.683s29.768-9.094 29.768 14.884c0 23.979-19.432 26.874-19.432 26.874"/><path d="M328.502 220.872s-45.488 7.735-45.488 52.755c0 55.656 89.665 63.298 89.665 104.301 0 31.129-30.865 32.688-30.865 32.688s-30.981-2.073-30.981-20.073c0 0 2.668-5.871 4.959-7.375 2.292-1.505.46-4.191-1.767-4.191-2.226 0-33.331 1.311-33.331 1.311s-4.584-.327-4.584 2.029c0 2.355 9.559 4.779 11.065 9.035 1.506 4.256 10.807 43.498 54.639 43.498 43.833 0 51.234-40.447 51.234-56.922 0-53.112-87.212-61.917-87.212-102.468 0-26.552 46.635-45.299 63.506-14.909 0 0-4.43 7.955-6.417 8.805-1.988.853-1.704 1.989.568 1.42 2.271-.567 43.859-6.747 43.859-6.747s-1.256-2.624-5.233-3.192c-3.976-.569-5.929 1.135-9.071-3.124-3.142-4.261-12.341-36.841-64.546-36.841"/><path d="M567.876 293.4v23.009l97.718-14.257v-23.009z"/><path d="M917.045 207.76s-7.113-4.414-7.113-6.452c0-2.037-1.768-4.057 0-3.629 1.768.427 36.307 8.763 36.307 8.763s-.623 2.169-2.482 2.169c-1.857 0-5.15.509-5.15 4.245v214.461s1.768 1.526 3.626 2.206c1.862.681 8.12 5.491 5.075 5.491h-43.129s-.506-3.453 1.523-3.453c2.03 0 11.344-2.716 11.344-5.602v-218.198z"/><path d="M1045.705 230.451s51.977 7.514 51.977 50.295c0 0-1.014 8.101 1.615 12.249 2.629 4.147 10.701 10.742 3.379 9.045-7.32-1.695-27.219-5.277-28.719-5.654-1.502-.377-6.76-2.826-.94-4.71 5.819-1.886 5.819-5.656 5.819-10.179 0-4.522-8.047-28.834-33.117-28.834-25.072 0-36.146 24.689-36.146 31.096 0 6.408.375 99.504.375 99.504s2.439 35.998 35.758 35.998c33.32 0 32.568-35.242 32.568-35.242s3.754-27.703-27.301-40.498c0 0-12.949-9.43-.475-7.604l51.016 7.457s9.781 3.52 4.158 5.781c-5.623 2.261-10.131 7.726-9.754 13.379.377 5.656 10.135 72.479-50.213 72.479-52.828 0-52.828-52.5-52.828-52.5l-.723-107.234c.001 0-.228-44.829 53.551-44.829"/><path d="M1140.283 266.472s-3.117-4.849-7.135-7.931c-4.018-3.08-4.805-8.485 3.566-6.462 8.373 2.021 34.465 8.325 34.465 8.325s1.047 5.333-2.238 6.068c-3.287.733-5.652 4.036-5.652 7.34v69.371l60.496 12.077v-72.837s-3.709-4.205-5.902-4.94c-2.189-.734-5.604-7.147.148-5.758l32.65 7.888s-.295 5.944-2.852 5.21-5.15-.366-5.15 3.302v136.542s.049 4.403 3.336 5.139c3.287.734 6.938 5.046 2.92 5.046h-32.502s0-3.945 1.824-3.945c1.826 0 5.527-2.937 5.527-6.975v-46.615l-60.496-11.01v58.724s-1.271 2.574 1.65 3.305c2.92.733 7.67 6.514 4.748 6.514h-37.619s-1.459-5.046.73-5.046c2.191 0 7.484-1.835 7.484-6.607v-156.728z"/><path d="M471.093 434.85s-2.484-5.594 0-5.686c2.485-.089 11.004-2.576 12.068-5.06 1.064-2.484 0-118.159 0-118.159l-40.105-102.602s-5.323-2.129-9.583-2.129c-4.259 0-5.736-4.66-3.817-4.66 1.92 0 44.174-10.621 44.174-10.621s2.588 4.279-.251 6.054c-2.84 1.774-8.874 4.259-6.388 9.938 2.484 5.677 28.938 69.209 28.938 69.209l26.074-83.762s-2.129-5.68-5.324-6.033c-3.194-.355-7.546-3.942-4.447-4.686 3.1-.745 49.624-11.93 49.624-11.93s.607 8.452-2.587 9.873c-3.194 1.418-8.163 1.064-12.066 12.421-3.904 11.357-37.912 115.087-37.912 115.087l-2.55 121.293s8.164 4.793 10.293 5.767c2.13.977 3.195 5.686.71 5.686h-46.851z"/><path d="M753.164 166.487s-2.045-3.279-3.756-3.904c-1.709-.623-7.389-5.436-4.201-4.665 3.188.769 39.08 9.432 39.08 9.432s-1.453 1.946-2.697 2.102c-1.244.156-3.998.311-3.998 1.561v113.631l63.053 8.272v-103.951s-.6-4.684-3.398-5.777c-2.801-1.093-5.816-4.459-2.988-3.776l33.439 8.071s-.139 1.791-1.381 2.26c-1.242.468-3.518.468-3.518 1.718v233.031s2.703 4.057 4.898 4.995c2.195.937 5.307 5.526 2.816 5.526h-43.217s1.398-5.526 4.508-5.526c3.107 0 8.84-1.871 8.84-4.369v-107.075l-63.053-9.053v114.724s3.061 3.434 5.861 4.525c2.799 1.094 4.199 6.774 2.021 6.774h-48.193s2.797-6.614 5.752-6.614c2.953 0 10.131-1.563 10.131-6.244v-255.669z"/></g></g></svg>