<?xml version="1.0" encoding="UTF-8" standalone="no"?>
<!-- Created with Inkscape (http://www.inkscape.org/) -->

<svg
   xmlns:dc="http://purl.org/dc/elements/1.1/"
   xmlns:cc="http://creativecommons.org/ns#"
   xmlns:rdf="http://www.w3.org/1999/02/22-rdf-syntax-ns#"
   xmlns:svg="http://www.w3.org/2000/svg"
   xmlns="http://www.w3.org/2000/svg"
   version="1.1"
   width="640"
   height="360"
   id="svg3476">
  <defs
     id="defs3478">
    <clipPath
       id="clipPath3053">
      <path
         d="m 304.529,120.89 254.621,0 0,110.218 -254.621,0 0,-110.218 z"
         id="path3055" />
    </clipPath>
  </defs>
  <g
     transform="translate(0,-32)"
     id="g3790">
    <path
       d="m 196.59079,134.67585 5.9666,0 0,6.90544 c 0,5.1307 -2.95943,9.72092 -9.81286,9.72092 -7.09963,0 -9.90833,-4.53995 -9.90833,-9.76868 l 0,-21.70677 6.30827,0 0,6.56105 13.41292,0 0,4.53743 -13.41292,0 0,9.96727 c 0,3.0568 1.0878,4.83406 3.70055,4.83406 2.5625,0 3.74577,-1.72699 3.74577,-4.73602 l 0,-6.3147 z"
       id="path3059"
       style="fill:#000000;fill-opacity:1;fill-rule:nonzero;stroke:none" />
    <path
       d="m 220.40344,150.65993 0,-15.04768 c 0,-3.65006 -1.231,-4.78379 -4.14271,-4.78379 -3.20312,0 -4.97929,2.66213 -4.97929,5.91752 l 0,13.91395 -6.40876,0 0,-33.15217 6.40876,0 0,12.03865 c 0.93708,-2.17444 3.89651,-3.80088 7.14988,-3.80088 4.97929,0 8.43113,2.90848 8.43113,7.74506 l 0,17.16934 -6.45901,0 z"
       id="path3063"
       style="fill:#000000;fill-opacity:1;fill-rule:nonzero;stroke:none" />
    <path
       d="m 245.39836,136.15448 c -0.098,-3.60229 -2.46703,-5.32677 -4.97929,-5.32677 -2.5625,0 -4.68535,1.97334 -4.92904,5.32677 l 9.90833,0 z m -10.10931,4.04473 c 0.20098,3.65005 2.26856,6.02058 5.42396,6.02058 2.07009,0 3.8965,-1.03569 4.33866,-2.71492 l 6.60723,0 c -1.47721,4.98489 -5.47169,7.79533 -10.64945,7.79533 -8.08443,0 -12.12665,-4.43939 -12.12665,-13.22014 0,-7.4987 4.28842,-12.33277 11.73474,-12.33277 7.44381,0 11.38805,4.83407 11.38805,14.45192 l -16.71654,0 z"
       id="path3067"
       style="fill:#000000;fill-opacity:1;fill-rule:nonzero;stroke:none" />
    <path
       d="m 121.9281,205.20515 c -1.9068,1.90798 -5.28076,2.93613 -12.32261,4.25589 -10.855447,2.05629 -14.377628,5.14074 -14.377628,11.30461 0,5.43235 3.228247,8.07437 9.242588,8.07437 9.83045,0 17.16372,-7.19453 17.31194,-15.7063 l 0.14571,-7.92857 z m 1.31893,35.3794 c -0.58535,-1.76469 -1.025,-4.2584 -1.17071,-6.4605 -4.54969,4.99244 -12.17941,8.36849 -21.85912,8.36849 -16.432656,0 -24.062372,-8.07437 -24.062372,-19.8189 0,-20.84454 13.937987,-23.19244 33.156732,-25.83697 9.53652,-1.31976 12.1769,-3.22774 12.1769,-8.22017 0,-4.6958 -4.69541,-7.48614 -12.1769,-7.48614 -8.65472,0 -12.174384,4.25589 -13.056186,10.71639 l -17.751588,0 c 0.293934,-14.97227 8.506493,-25.39454 31.689574,-25.39454 22.88412,0 30.80526,10.27395 30.80526,28.47647 l 0,45.65587 -17.75159,0 z"
       id="path3071"
       style="fill:#000000;fill-opacity:1;fill-rule:nonzero;stroke:none" />
    <path
       d="m 191.75797,205.20515 c -1.90429,1.90798 -5.28076,2.93613 -12.32261,4.25589 -10.85545,2.05629 -14.37763,5.14074 -14.37763,11.30461 0,5.43235 3.22825,8.07437 9.24259,8.07437 9.83045,0 17.16623,-7.19453 17.31194,-15.7063 l 0.14571,-7.92857 z m 1.32145,35.3794 c -0.58536,-1.76469 -1.02752,-4.2584 -1.17323,-6.4605 -4.54969,4.99244 -12.17941,8.36849 -21.85912,8.36849 -16.43014,0 -24.05986,-8.07437 -24.05986,-19.8189 0,-20.84454 13.93547,-23.19244 33.15422,-25.83697 9.53652,-1.31976 12.1769,-3.22774 12.1769,-8.22017 0,-4.6958 -4.69541,-7.48614 -12.1769,-7.48614 -8.65472,0 -12.17438,4.25589 -13.05619,10.71639 l -17.75158,0 c 0.29393,-14.97227 8.509,-25.39454 31.68957,-25.39454 22.88664,0 30.80777,10.27395 30.80777,28.47647 l 0,45.65587 -17.75158,0 z"
       id="path3075"
       style="fill:#000000;fill-opacity:1;fill-rule:nonzero;stroke:none" />
    <path
       d="m 216.5087,240.5838 0,-72.22436 17.89981,0 0,8.66008 c 6.30576,-9.68823 13.64405,-10.56807 21.41697,-10.56807 l 2.49467,0 0,19.52479 c -1.75858,-0.29663 -3.52218,-0.44243 -5.28327,-0.44243 -11.73223,0 -17.45515,5.87227 -17.45515,17.46849 l 0,37.5815 -19.07303,0 z"
       id="path3079"
       style="fill:#000000;fill-opacity:1;fill-rule:nonzero;stroke:none" />
    <path
       d="m 358.14959,240.5838 -25.82095,-72.22436 21.27126,0 15.11121,47.70966 15.25692,-47.70966 20.09803,0 -25.96666,72.22436 -19.94981,0 z"
       id="path3083"
       style="fill:#000000;fill-opacity:1;fill-rule:nonzero;stroke:none" />
    <path
       d="m 450.22471,240.5838 0,-72.22436 17.8973,0 0,8.66008 c 6.30827,-9.68823 13.64154,-10.56807 21.42199,-10.56807 l 2.49216,0 0,19.52479 c -1.76361,-0.29663 -3.51967,-0.44243 -5.28327,-0.44243 -11.73726,0 -17.45515,5.87227 -17.45515,17.46849 l 0,37.5815 -19.07303,0 z"
       id="path3087"
       style="fill:#000000;fill-opacity:1;fill-rule:nonzero;stroke:none" />
    <path
       d="m 541.83331,240.5838 -15.84227,-32.44076 -9.24259,9.53992 0,22.90084 -19.21874,0 0,-98.64956 19.21874,0 0,53.87604 23.76593,-27.45084 23.32628,0 -24.20557,26.56849 23.6177,45.65587 -21.41948,0 z"
       id="path3091"
       style="fill:#000000;fill-opacity:1;fill-rule:nonzero;stroke:none" />
    <path
       d="m 408.30373,204.23205 16.01311,0 c -0.0553,-9.5173 -4.83609,-17.30257 -16.01311,-17.30257 l 0,-18.5796 c 18.15857,0.008 36.3272,11.84258 36.3272,39.98723 l 0,32.24719 -36.3272,0 0,-36.35225 z"
       id="path3095"
       style="opacity:0.38399999;fill:#000000;fill-opacity:1;fill-rule:nonzero;stroke:none" />
    <path
       d="m 292.99277,225.1593 c -8.55674,0 -15.48805,-8.95672 -15.48805,-20.00241 0,-11.04821 6.93131,-19.9999 15.48805,-19.9999 8.55423,0 15.48805,8.95169 15.48805,19.9999 0,11.04569 -6.93382,20.00241 -15.48805,20.00241 m 17.4049,-83.22481 0,35.81932 c -5.42647,-7.63193 -12.47083,-11.3021 -21.41948,-11.3021 -18.63088,0 -29.63455,15.41219 -29.63455,37.28488 0,24.3689 13.05869,38.75545 31.24993,38.75545 8.80294,0 15.55085,-3.37605 20.10054,-10.71638 l 0.1432,8.8084 18.33946,0 0,-98.64957 -18.7791,0 z"
       id="path3099"
       style="fill:#000000;fill-opacity:1;fill-rule:nonzero;stroke:none" />
  </g>
  <metadata
     id="metadata3841">
    <rdf:RDF>
      <cc:Work
         rdf:about="">
        <dc:title></dc:title>
        <dc:format>image/svg+xml</dc:format>
        <dc:type
           rdf:resource="http://purl.org/dc/dcmitype/StillImage" />
      </cc:Work>
    </rdf:RDF>
  </metadata>
</svg>
