<svg xmlns="http://www.w3.org/2000/svg" width="640" height="360"><defs><clipPath><path d="M304.529 120.89h254.621v110.218h-254.621v-110.218z"/></clipPath></defs><g><path d="M196.591 102.676h5.967v6.905c0 5.131-2.959 9.721-9.813 9.721-7.1 0-9.908-4.54-9.908-9.769v-21.707h6.308v6.561h13.413v4.537h-13.413v9.967c0 3.057 1.088 4.834 3.701 4.834 2.563 0 3.746-1.727 3.746-4.736v-6.315z"/><path d="M220.403 118.66v-15.048c0-3.65-1.231-4.784-4.143-4.784-3.203 0-4.979 2.662-4.979 5.918v13.914h-6.409v-33.152h6.409v12.039c.937-2.174 3.897-3.801 7.15-3.801 4.979 0 8.431 2.908 8.431 7.745v17.169h-6.459z"/><path d="M245.398 104.154c-.098-3.602-2.467-5.327-4.979-5.327-2.563 0-4.685 1.973-4.929 5.327h9.908zm-10.109 4.045c.201 3.65 2.269 6.021 5.424 6.021 2.07 0 3.897-1.036 4.339-2.715h6.607c-1.477 4.985-5.472 7.795-10.649 7.795-8.084 0-12.127-4.439-12.127-13.22 0-7.499 4.288-12.333 11.735-12.333 7.444 0 11.388 4.834 11.388 14.452h-16.717z"/><path d="M121.928 173.205c-1.907 1.908-5.281 2.936-12.323 4.256-10.855 2.056-14.378 5.141-14.378 11.305 0 5.432 3.228 8.074 9.243 8.074 9.83 0 17.164-7.195 17.312-15.706l.146-7.929zm1.319 35.379c-.585-1.765-1.025-4.258-1.171-6.46-4.55 4.992-12.179 8.368-21.859 8.368-16.433 0-24.062-8.074-24.062-19.819 0-20.845 13.938-23.192 33.157-25.837 9.537-1.32 12.177-3.228 12.177-8.22 0-4.696-4.695-7.486-12.177-7.486-8.655 0-12.174 4.256-13.056 10.716h-17.752c.294-14.972 8.506-25.395 31.69-25.395 22.884 0 30.805 10.274 30.805 28.476v45.656h-17.752z"/><path d="M191.758 173.205c-1.904 1.908-5.281 2.936-12.323 4.256-10.855 2.056-14.378 5.141-14.378 11.305 0 5.432 3.228 8.074 9.243 8.074 9.83 0 17.166-7.195 17.312-15.706l.146-7.929zm1.321 35.379c-.585-1.765-1.028-4.258-1.173-6.46-4.55 4.992-12.179 8.368-21.859 8.368-16.43 0-24.06-8.074-24.06-19.819 0-20.845 13.935-23.192 33.154-25.837 9.537-1.32 12.177-3.228 12.177-8.22 0-4.696-4.695-7.486-12.177-7.486-8.655 0-12.174 4.256-13.056 10.716h-17.752c.294-14.972 8.509-25.395 31.69-25.395 22.887 0 30.808 10.274 30.808 28.476v45.656h-17.752z"/><path d="M216.509 208.584v-72.224h17.9v8.66c6.306-9.688 13.644-10.568 21.417-10.568h2.495v19.525c-1.759-.297-3.522-.442-5.283-.442-11.732 0-17.455 5.872-17.455 17.468v37.581h-19.073z"/><path d="M358.15 208.584l-25.821-72.224h21.271l15.111 47.71 15.257-47.71h20.098l-25.967 72.224h-19.95z"/><path d="M450.225 208.584v-72.224h17.897v8.66c6.308-9.688 13.642-10.568 21.422-10.568h2.492v19.525c-1.764-.297-3.52-.442-5.283-.442-11.737 0-17.455 5.872-17.455 17.468v37.581h-19.073z"/><path d="M541.833 208.584l-15.842-32.441-9.243 9.54v22.901h-19.219v-98.65h19.219v53.876l23.766-27.451h23.326l-24.206 26.568 23.618 45.656h-21.419z"/><path d="M408.304 172.232h16.013c-.055-9.517-4.836-17.303-16.013-17.303v-18.58c18.159.008 36.327 11.843 36.327 39.987v32.247h-36.327v-36.352z" opacity=".384"/><path d="M292.993 193.159c-8.557 0-15.488-8.957-15.488-20.002 0-11.048 6.931-20 15.488-20 8.554 0 15.488 8.952 15.488 20 0 11.046-6.934 20.002-15.488 20.002m17.405-83.225v35.819c-5.426-7.632-12.471-11.302-21.419-11.302-18.631 0-29.635 15.412-29.635 37.285 0 24.369 13.059 38.755 31.25 38.755 8.803 0 15.551-3.376 20.101-10.716l.143 8.808h18.339v-98.65h-18.779z"/></g></svg>