<svg xmlns="http://www.w3.org/2000/svg" width="640" height="360" viewBox="0 0 640 360"><path fill-rule="evenodd" clip-rule="evenodd" d="M388.332 30h3.019c8.527 1.419 15.516 6.376 15.504 15.641-.007 4.935.137 67.665.137 93.022 20.246-.146 85.272.14 95.629.137 9.502-.002 14.777 7.08 16.189 15.641v3.018c-1.097 8.395-7.067 15.429-16.256 15.429-9.861 0-73.792.214-95.563.211 0 11.33-.144 54.692-.137 65.719.011 20.519-7.519 36.714-16.464 49.53-8.884 12.724-20.516 23.283-34.986 30.869-14.134 7.408-32.931 12.646-54.743 10.153-19.394-2.218-34.387-9.419-46.923-18.934-12.647-9.6-22.528-21.67-29.361-36.633-6.484-14.199-10.749-35.505-7.134-55.978 3.152-17.853 10.859-31.927 20.031-43.767.265-.343 1.063-.961.412-.961-8.247.003-91.567.003-100.568 0-7.513-.002-12.323-5.227-14.543-10.564-4.487-10.788 2.597-20.993 11.662-23.187 3.373-.816 7.329-.549 12.074-.549h226.38c0-25.36.143-88.415.138-93.159-.011-9.265 6.978-14.219 15.503-15.638zm-61.898 142.722c-5.145 0-14.165-.065-19.247.762-8.194 1.334-12.586 1.283-19.437 4.383-3.156 1.427-6.19 3.597-9.337 5.526-3.075 1.884-10.957 9.022-11.052 9.146-7.27 9.409-11.46 14.49-14.863 28.203-.512 2.063-.714 14.752-.762 16.387-.004.123 2 17.138 7.622 26.297 1.861 3.032 6.752 10.712 9.147 12.958 2.541 2.384 8.039 6.545 11.052 8.385 7.794 4.757 10.837 5.871 20.961 8.384 2.015.501 10.417 1.195 12.195 1.144 1.735-.051 8.68-.649 10.671-1.144 10.348-2.568 14.289-4.35 22.104-9.146 3.08-1.891 6.945-5.273 9.146-7.622 2.31-2.462 6.09-7.153 8.004-10.29 3.805-6.234 4.816-9.227 7.241-16.769 1.194-3.715 2.668-15.346 2.668-15.436-.003-19.47.002-40.131 0-61.073l-46.113-.095z"/></svg>