<?xml version="1.0" encoding="utf-8"?>
<!-- Generator: Adobe Illustrator 16.0.0, SVG Export Plug-In . SVG Version: 6.00 Build 0)  -->
<!DOCTYPE svg PUBLIC "-//W3C//DTD SVG 1.1//EN" "http://www.w3.org/Graphics/SVG/1.1/DTD/svg11.dtd">
<svg version="1.1" id="Layer_1_xA0_Image_1_" xmlns="http://www.w3.org/2000/svg" xmlns:xlink="http://www.w3.org/1999/xlink"
	 x="0px" y="0px" width="640px" height="360px" viewBox="0 0 640 360" enable-background="new 0 0 640 360" xml:space="preserve">
<g>
	<path fill-rule="evenodd" clip-rule="evenodd" d="M388.332,30c1.006,0,2.013,0,3.019,0c8.527,1.419,15.516,6.376,15.504,15.641
		c-0.007,4.935,0.137,67.665,0.137,93.022c20.246-0.146,85.272,0.14,95.629,0.137c9.502-0.002,14.777,7.08,16.189,15.641
		c0,1.006,0,2.012,0,3.018c-1.097,8.395-7.067,15.429-16.256,15.429c-9.861,0-73.792,0.214-95.563,0.211
		c0,11.33-0.144,54.692-0.137,65.719c0.011,20.519-7.519,36.714-16.464,49.53c-8.884,12.724-20.516,23.283-34.986,30.869
		c-14.134,7.408-32.931,12.646-54.743,10.153c-19.394-2.218-34.387-9.419-46.923-18.934c-12.647-9.6-22.528-21.67-29.361-36.633
		c-6.484-14.199-10.749-35.505-7.134-55.978c3.152-17.853,10.859-31.927,20.031-43.767c0.265-0.343,1.063-0.961,0.412-0.961
		c-8.247,0.003-91.567,0.003-100.568,0c-7.513-0.002-12.323-5.227-14.543-10.564c-4.487-10.788,2.597-20.993,11.662-23.187
		c3.373-0.816,7.329-0.549,12.074-0.549c75.109,0,150.098,0,226.38,0c0-25.36,0.143-88.415,0.138-93.159
		C372.818,36.373,379.807,31.419,388.332,30z M326.434,172.722c-5.145,0-14.165-0.065-19.247,0.762
		c-8.194,1.334-12.586,1.283-19.437,4.383c-3.156,1.427-6.19,3.597-9.337,5.526c-3.075,1.884-10.957,9.022-11.052,9.146
		c-7.27,9.409-11.46,14.49-14.863,28.203c-0.512,2.063-0.714,14.752-0.762,16.387c-0.004,0.123,2,17.138,7.622,26.297
		c1.861,3.032,6.752,10.712,9.147,12.958c2.541,2.384,8.039,6.545,11.052,8.385c7.794,4.757,10.837,5.871,20.961,8.384
		c2.015,0.501,10.417,1.195,12.195,1.144c1.735-0.051,8.68-0.649,10.671-1.144c10.348-2.568,14.289-4.35,22.104-9.146
		c3.08-1.891,6.945-5.273,9.146-7.622c2.31-2.462,6.09-7.153,8.004-10.29c3.805-6.234,4.816-9.227,7.241-16.769
		c1.194-3.715,2.668-15.346,2.668-15.436c-0.003-19.47,0.002-40.131,0-61.073C357.722,172.817,341.223,172.722,326.434,172.722z"/>
</g>
</svg>
