<?xml version="1.0" encoding="UTF-8" standalone="no"?>
<!-- Created with Inkscape (http://www.inkscape.org/) -->

<svg
   xmlns:dc="http://purl.org/dc/elements/1.1/"
   xmlns:cc="http://creativecommons.org/ns#"
   xmlns:rdf="http://www.w3.org/1999/02/22-rdf-syntax-ns#"
   xmlns:svg="http://www.w3.org/2000/svg"
   xmlns="http://www.w3.org/2000/svg"
   version="1.1"
   width="640"
   height="360"
   id="svg3476">
  <defs
     id="defs3478" />
  <g
     transform="matrix(0.99720733,0,0,0.99720733,0.89365789,0.50268708)"
     id="g4600">
    <path
       d="m 388.35181,98.127457 c -0.14742,-0.287461 -0.29483,-0.574922 -0.44225,-0.862383 0.027,0.292375 0.16953,0.58475 0.44225,0.862383 m -68.20218,47.105003 c -0.0123,-0.007 -0.0246,-0.01 -0.0393,-0.0172 0.01,0.0246 0.0197,0.0491 0.0295,0.0737 0.002,-0.0197 0.007,-0.0369 0.01,-0.0565 m 13.99301,-41.79827 c -0.0319,0.11793 -0.0762,0.22358 -0.10319,0.34888 m 3.59055,4.83473 c -1.38817,2.86478 -4.07605,5.27749 -8.00959,4.84261 -0.23096,-3.47901 4.47898,-5.53301 7.70493,-5.31188 -0.94592,-1.45205 -1.91395,-2.90164 -2.91883,-4.34631 -0.12285,-0.007 -0.24324,-0.005 -0.36609,-0.0197 0.027,-0.12285 0.0688,-0.23095 0.1032,-0.34888 C 329.1587,96.320821 323.46599,89.296456 317.06078,82.370368 L 293.89929,105.5294 c 4.48881,4.91877 8.52063,9.86703 12.11021,14.84232 0.27763,-0.50859 0.86975,-0.84273 1.72477,-0.59704 0.59703,0.68057 0.35134,1.87218 -0.56018,2.22844 1.55769,2.21861 3.01956,4.44459 4.39545,6.67302 0.44224,-0.15724 0.91397,-0.34151 1.42747,-0.48893 1.81567,-0.51841 4.21855,-0.34888 6.10056,-1.05156 1.43731,-0.53807 2.78125,-2.08839 3.57484,-0.42014 0.7641,3.21858 -5.91875,0.81079 -5.67306,4.20872 1.87464,0.2629 3.6338,-1.02945 4.83278,-2.10558 3.17682,-0.96066 6.01703,-1.26287 8.62875,-2.73703 2.59451,-1.4545 2.4643,-3.42004 5.89172,-3.78367 1.75916,-0.19164 2.84021,0.67566 4.21118,0.62897 1.53066,-0.0491 3.05887,-0.87221 4.54532,-1.51838 -2.24072,-4.29226 -4.73451,-8.55749 -7.4789,-12.79078 m -40.04552,-4.80821 c 0.23096,-1.25058 2.7616,-1.43977 2.94832,0 -0.0393,1.41027 -2.90655,1.41027 -2.94832,0 m 4.89175,8.80809 c 0.65846,-3.07853 2.80582,-5.72219 6.10302,-5.46912 0.1253,3.98268 -3.16944,4.54777 -6.10302,5.46912 m 6.94329,1.89675 c -0.55772,-0.82307 0.13759,-1.88446 1.26041,-1.68545 0.53561,0.79359 -0.22358,1.79356 -1.26041,1.68545 m 14.26003,-16.387725 c 1.14247,0.948376 -0.0983,2.837755 -1.47416,1.896755 -0.45208,-0.980319 0.0614,-2.154732 1.47416,-1.896755 m -3.10802,15.542545 c 0.30712,1.17687 -0.67811,1.85253 -1.47416,1.26286 0.1597,-0.75673 0.42259,-1.40782 1.47416,-1.26286 m -5.26275,-27.984442 1.05648,0 c 0.55527,0.818158 -0.14004,1.877095 -1.26286,1.678084 -0.48156,-0.501214 -0.0369,-1.267777 0.20638,-1.678084 m -2.52572,27.775602 c -0.4619,-0.67566 -0.11302,-1.97783 1.05648,-1.683 0.54052,0.74445 -0.086,1.78373 -1.05648,1.683 m -0.50859,-15.871772 c -0.27763,-1.542953 1.70511,-2.803358 3.1547,-1.476616 1.26532,2.904092 -2.77141,3.592033 -3.1547,1.476616 m 3.6682,26.181052 c 0.23587,-2.74439 4.36351,-2.60926 6.72954,-2.52572 -0.12531,2.77142 -4.42248,3.28983 -6.72954,2.52572 m 6.94083,1.4717 c -0.54789,-0.36608 -0.49138,-1.46433 -0.21129,-2.10067 2.38813,-0.52579 1.82549,2.18667 0.21129,2.10067 m 8.62875,121.41347 c 0.0172,-1.65106 0.10073,-3.46182 -0.42014,-5.4765 -1.94097,-0.98277 -4.26768,-2.21615 -6.94328,-2.94586 -3.27755,-0.88941 -6.7541,-2.79353 -9.67785,-2.10067 1.95817,2.60189 6.45436,2.65839 8.83512,4.83769 0.52087,0.742 0.57001,1.95572 1.4717,2.31689 1.85744,-0.45453 3.11293,1.36605 1.68546,2.31443 -2.76651,-0.54053 -3.97532,-4.77382 -7.36588,-2.73702 -1.65597,-1.28989 -4.26769,-1.61912 -5.88926,-2.94586 0.0368,-1.78619 -0.42751,-4.33894 -3.15962,-3.99497 -0.0786,0.83781 0.84273,1.36605 0.20884,2.10067 -0.90906,0.0418 -1.73951,0 -2.10804,-0.50367 -5.27258,7.73442 -10.32157,13.36079 -13.18881,16.32876 l 23.1492,23.14429 c 3.83036,-3.91143 10.10536,-10.867 16.64571,-20.35567 -3.62152,-0.10811 -6.9138,-1.99748 -9.55255,-3.25298 -0.88941,0.29975 -0.82307,1.56261 -2.10559,1.47171 -1.99994,-1.01472 0.12039,-2.39306 1.05157,-2.94587 0.15479,-1.20635 -0.91889,-1.18178 -0.63143,-2.52081 4.14484,-3.19155 8.39287,2.63383 13.67773,2.31198 -0.14987,0.59457 -0.18673,1.09333 -0.16707,1.55523 0.58721,-0.89923 1.17441,-1.81813 1.75916,-2.75913 -1.1007,-0.12039 -2.17192,-0.75428 -2.22352,-1.9508 0.89187,-0.67075 2.39551,-0.35134 3.05642,0.59703 0.59949,-0.98523 1.19653,-1.98766 1.78865,-3.0122 -0.0393,-0.11793 -0.10074,-0.22849 -0.21621,-0.32185 -3.53553,-1.79848 -7.16441,1.60683 -9.68031,0.84518 m -30.08757,12.62371 c -0.0983,-0.66091 0.18181,-0.93855 0.84027,-0.84764 0.0958,0.66337 -0.18427,0.94592 -0.84027,0.84764 m 1.26286,-11.99474 c 0.39802,-0.96311 1.69037,-0.9926 2.30951,-0.20638 0.21867,1.91641 -2.15473,1.59946 -2.30951,0.20638 m 10.30928,5.47159 c -0.11302,-0.95575 0.30712,-1.37343 1.25795,-1.26286 0.81324,0.98768 -0.55035,2.35374 -1.25795,1.26286 m 7.57472,-5.26275 c -1.12036,2.08348 -3.90652,-1.41273 -1.26287,-1.68299 1.0614,-0.10811 1.64861,0.96311 1.26287,1.68299 m -1.2636,-23.56295 c 0.20147,0.91644 1.19653,1.30709 1.89429,0.62897 0.25798,-1.25057 -1.44959,-1.28497 -1.89429,-0.62897 m -1.0528,-0.20958 c 0.15233,-0.64863 -0.21621,-0.76902 -0.20884,-1.26286 -0.2678,-0.22113 -0.56264,-0.3538 -0.86975,-0.45208 -0.33169,0.68549 -0.66583,1.3636 -1.00489,2.02943 0.73708,-0.11548 1.46188,-0.28009 2.08348,-0.31449 m 27.98666,11.35815 c -1.68791,-0.72725 -2.88444,-2.13507 -4.21118,-2.73456 -1.63877,-0.742 -3.60186,-0.2113 -3.78613,-2.31443 0.69777,-1.05894 1.96554,0.56018 2.94586,-0.2113 0.85747,-2.58715 -1.48399,-5.29714 -2.73456,-7.15212 -1.99012,-0.67812 -5.03917,-0.28992 -5.47405,-2.52573 2.43237,-1.68054 5.56987,0.63635 8.41991,1.89429 2.76404,1.21619 5.99491,1.60929 8.41498,2.94341 0.43734,0.24078 0.91153,0.55035 1.40045,0.87958 1.27761,-3.27018 2.45694,-6.6632 3.51342,-10.17169 -1.5749,0.24815 -3.01957,0.93117 -4.69766,1.08596 -1.98028,0.18181 -3.72716,-0.82799 -5.05145,0 0.0418,-3.03922 -4.26768,-9.01202 -0.42504,-9.88915 5.31188,-1.20389 8.78598,3.70014 11.15446,3.99989 0.11793,0.0147 0.24569,0.01 0.371,0 1.42502,-5.48142 2.53801,-11.21835 3.21858,-17.19852 -3.1719,0.33169 -6.80324,-2.31934 -9.69014,-2.99991 -1.90658,-0.45208 -3.98268,-0.18182 -3.99988,-2.52818 0,-0.23096 0.32431,-0.7076 0.42013,-1.47416 2.11788,-1.14985 4.97037,-1.98275 6.31186,-3.99497 0.51841,-0.77148 0.42505,-1.87464 0.84273,-2.73702 1.67071,-3.44708 5.48632,-6.21358 6.31431,-10.09799 -0.5307,-1.28252 -0.48647,-2.1449 -0.12285,-2.63874 -0.31203,-2.86724 -0.72725,-5.72465 -1.24566,-8.57469 -0.12039,-0.23832 -0.23095,-0.49384 -0.31449,-0.78131 0.0467,-0.0393 0.10074,-0.0737 0.14987,-0.11056 -0.33905,-1.77881 -0.72233,-3.55272 -1.14247,-5.32171 -1.08351,-0.41276 -1.85252,-0.85747 -1.95572,-1.29972 -0.22358,-0.95328 0.18427,-1.99502 0.92135,-2.79107 -1.41028,-5.15955 -3.17435,-10.28225 -5.27503,-15.3681 -0.99014,0.34397 -2.26774,0.13267 -3.00974,-0.57001 -0.23095,-1.60437 0.6732,-2.29969 1.74442,-2.38814 -1.00242,-2.28003 -2.0761,-4.55515 -3.22103,-6.82044 -1.56507,0.44225 -3.2235,0.72234 -4.41511,1.21127 -2.67068,1.10562 -2.79353,3.17927 -5.68288,3.366 -0.6388,0.0467 -1.2948,-0.34643 -2.10313,-0.20639 -1.14247,0.1941 -2.24072,0.90415 -3.57729,1.26041 -2.054,0.56018 -4.09325,2.43973 -5.89418,2.94832 -0.71988,0.20638 -1.49381,-0.0516 -2.09822,0.20884 -1.05402,0.45207 -1.60929,1.67317 -2.53064,2.31688 -1.31691,0.92135 -2.73702,1.25058 -3.80333,1.99994 1.55524,2.96798 2.94832,5.94332 4.18661,8.92358 0.0147,0.005 0.027,0.01 0.0393,0.0172 -0.002,0.0197 -0.007,0.0369 -0.01,0.0565 1.37342,3.30949 2.55275,6.6288 3.53306,9.95057 0.31449,0.18182 0.61424,0.41031 0.89678,0.72234 0.0172,0.52578 -0.15233,0.86484 -0.36117,1.16704 0.21867,0.79851 0.42505,1.59701 0.62161,2.39551 1.60437,0.34397 3.84264,0.059 4.79101,1.06877 -0.941,0.93117 -2.42007,1.67317 -4.08096,2.08593 0.11302,0.5479 0.22112,1.09333 0.32432,1.64123 0.34888,0.0172 0.69039,0.0368 1.01962,0.0565 -0.22604,0.36854 -0.51104,0.67566 -0.83781,0.941 0.21375,1.21618 0.40048,2.43237 0.56264,3.64855 2.51098,-0.1597 5.17921,-0.16708 6.16689,-1.85499 -1.07122,-1.39062 -1.79847,-3.45444 0,-3.78367 1.62895,-0.29729 5.82293,4.05885 5.89172,5.68042 3.96549,1.26287 10.23558,-0.59949 13.88658,0.42014 -0.2629,2.72228 -2.83285,1.4545 -4.20381,1.26286 -1.66335,-0.23341 -4.85244,-0.2678 -6.52561,0 -1.1351,0.18181 -1.91149,1.0614 -2.94832,1.26286 -1.66825,0.32432 -3.18172,-0.22603 -4.62886,0.63635 0.12039,0.95083 -0.1081,1.57243 -0.63388,1.88692 -1.03192,0.17444 -0.97295,-0.88204 -1.67809,-1.26286 -1.09579,-0.58721 -2.64857,-0.38328 -3.79104,-0.84027 -0.46682,-0.18673 -0.84764,-0.51104 -1.23584,-0.81816 0.3882,3.81807 0.52824,7.6386 0.40048,11.46404 -0.007,0.17444 -0.0197,0.34643 -0.027,0.52087 1.65351,0.40048 3.2284,1.05402 3.17926,2.51098 -0.0639,1.72231 -1.69282,1.78865 -3.43724,1.47662 -0.12776,1.48644 -0.29238,2.9606 -0.49139,4.4151 2.26529,-1.56261 6.58703,-1.1007 7.71476,1.26041 -1.08596,2.11542 -5.70008,1.87955 -7.99485,0.61669 -0.0835,0.52578 -0.16707,1.05156 -0.26043,1.57243 0.59457,0.19656 1.17441,0.44225 1.72968,0.75674 1.03191,0.58475 1.52821,1.85252 2.52818,2.31443 0.91643,0.42259 2.24072,0.28992 2.94831,0.84764 0.43979,1.41519 -2.12524,2.20141 -3.78858,2.10067 -0.98523,-0.0614 -2.56258,-1.06385 -4.36597,-1.39308 -0.50367,2.18176 -1.08105,4.31437 -1.71494,6.40277 0.56018,-0.12531 1.13756,0.0884 1.24075,0.88203 -0.0909,0.60687 -1.09579,0.99506 -1.75179,0.77639 -1.20635,3.72717 -2.60189,7.28726 -4.11536,10.66554 1.09825,0.25306 2.1621,0.55527 3.13013,0.9754 0.32923,1.51593 -0.99997,1.3808 -0.83781,2.73702 5.90155,0.81079 14.93322,-0.55035 15.14698,5.67551 -1.12773,0.75182 -1.23092,-1.0835 -2.52818,-0.84027 -2.92375,2.06383 -6.69268,-1.67317 -9.04397,0 1.46925,4.21118 8.53538,2.82793 9.89161,7.15213 -1.30463,-0.60195 -2.5503,0.0737 -3.99989,0 -1.92869,-0.0958 -3.10801,-1.51593 -4.84261,-2.31443 -1.39799,-0.64126 -3.62643,-1.78865 -4.83769,-0.20884 2.00239,1.92623 4.21363,3.64117 6.94083,4.8377 1.06385,-0.059 1.18424,-1.0614 2.3218,-1.05157 1.2432,0.36854 1.82058,1.40291 3.36353,1.4717 1.03191,-0.086 0.62161,-1.61911 1.68054,-1.68299 2.47168,0.22112 3.51342,1.63631 5.05145,2.52572 0.77148,0.44962 1.86973,0.59458 2.52327,1.05402 0.62652,0.43242 1.18179,1.027 1.73705,1.65597 0.91889,-1.73705 1.81813,-3.51832 2.6928,-5.35119 -0.28992,-0.0909 -0.57738,-0.18673 -0.8501,-0.30466 m -24.19831,-92.58207 c 0.25061,-1.87709 2.9606,-2.51344 4.84015,-3.15224 2.18667,-0.74936 4.45442,-1.24075 6.52315,-1.47661 1.8427,-0.20639 3.43234,-2.98026 5.049,-1.26287 l 0,0.63143 c -1.03437,1.2555 -2.79845,0.88941 -4.41757,1.47416 -3.87212,1.39308 -6.27008,4.3414 -11.99473,3.78613 m 13.04384,-0.84027 c -0.45207,-0.56509 -0.45207,-1.12036 0,-1.68545 2.00486,-0.45945 1.71248,2.02205 0,1.68545 m -7.15212,13.04385 c -0.0442,-0.16216 -0.007,-0.41522 -0.21375,-0.42014 0.13758,-0.77639 0.72233,-1.10316 1.47415,-1.2604 1.76654,0.53807 0.26535,2.73702 -1.2604,1.68054 m 4.4151,6.10301 c 0.43979,-1.86726 3.5601,-1.62157 5.05391,-0.84272 0.13267,2.09822 -4.45196,2.65103 -5.05391,0.84272 m 1.68791,-12.62371 c 2.20633,-0.25306 2.36849,3.72963 -0.42504,2.94586 -1.01226,-0.77639 -0.5823,-2.49624 0.42504,-2.94586 m 3.99743,14.30917 c 1.35868,-2.08593 3.32669,-4.42985 7.15458,-3.37091 3.4004,3.10065 -4.97037,5.35857 -7.15458,3.37091 m 2.73948,-13.68019 c -1.31446,0.26289 -1.89921,1.08596 -2.73948,0.84273 -1.6486,-0.46928 -0.73216,-2.58224 -2.31197,-3.1547 -2.06382,0.82307 -12.38539,5.37822 -12.20603,1.47416 0.0934,-2.06874 4.44704,-2.43482 6.94328,-2.73703 1.62895,-1.11053 3.17927,-2.28985 5.68043,-2.52572 0.86975,1.43239 2.45939,0.80096 3.99742,1.04911 0.84519,0.13759 1.42011,1.14493 2.10559,1.26532 0.84273,0.1425 1.7346,-0.51104 2.52573,-0.2113 0.74445,0.0934 0.41031,1.27515 0.84027,1.68546 0.25306,0.58966 1.99257,-0.30958 1.89429,0.62897 -0.4791,1.52576 -4.19152,1.18178 -6.72953,1.683 m 7.77864,-4.41756 c -0.14741,-0.99506 0.30466,-1.38325 0.63389,-1.8943 2.80336,-0.77393 2.67068,3.24315 0,2.52573 -0.11793,-0.3022 -0.32923,-0.51596 -0.63389,-0.63143 m 1.26286,20.40972 c -1.44958,-1.28006 -0.24077,-3.51095 1.26287,-3.1547 1.54786,0.36608 1.60437,3.73945 -1.26287,3.1547 m 1.26287,14.73176 c 0.3194,2.58715 -2.97535,3.38074 -4.6264,2.10313 -1.43731,-3.61414 3.13995,-3.94337 4.6264,-2.10313 m -8.83513,-7.57718 c 2.45939,0.37837 -0.51349,3.40777 -1.89675,1.05157 0.55036,-0.61669 1.027,-1.18178 1.89675,-1.05157 m -0.21375,32.61576 c 0.6904,1.05402 -0.371,2.58469 -1.46679,1.89184 -0.62897,-0.99752 -0.0246,-2.33409 1.46679,-1.89184 m -2.94095,-3.99988 c -0.85009,1.67808 -3.68785,0.65354 -3.57974,-1.05157 0.14987,-2.38568 4.74187,-1.25303 3.57974,1.05157 m -9.26017,-22.51532 c -0.0491,-1.90903 3.8451,-2.253 3.15224,0.21376 -0.53315,1.91149 -3.10801,1.46924 -3.15224,-0.21376 m 3.36845,26.93288 c 1.86727,0.24078 3.70997,0.4963 4.20627,2.10805 -0.92381,0.83781 -2.40042,0.12284 -3.79104,0.20883 -0.41277,2.0884 -5.88435,3.36354 -6.72954,0.62898 0.56018,-1.57244 2.45202,-0.58966 4.42002,-0.83781 m 12.83255,31.13668 c -0.86975,0.11793 -2.08102,-0.83536 -2.52327,-1.68054 1.78128,-2.10559 5.6362,1.27269 2.52327,1.68054 m -33.03204,-3.78588 c 0.72725,0.51104 0.93855,2.03925 2.10313,1.47416 0.39065,-0.44962 0.1425,-1.54541 0.20884,-2.31689 -0.55526,-0.55281 -1.1695,-1.04911 -1.683,-1.6486 -0.4619,0.75428 -0.92134,1.49627 -1.38325,2.21861 0.27764,0.0663 0.55035,0.13267 0.75428,0.27272 m 5.89417,-4.20428 c 0.16707,-1.77636 -0.67566,-2.995 -2.0196,-3.93846 -0.61669,1.14247 -1.2432,2.25055 -1.87218,3.33897 1.12773,0.63143 2.38077,1.06385 3.89178,0.59949 m 89.03131,-80.15002 c -1.32183,0.23832 -2.58715,0.15479 -3.39794,-0.65109 0.4226,-0.97786 1.59947,-1.40782 2.97289,-1.59209 -1.08105,-5.60426 -2.44465,-11.18395 -4.08587,-16.73907 -0.83536,-0.10565 -1.5061,-0.48893 -1.61912,-1.23829 -0.0835,-0.55035 0.23341,-1.11053 0.7641,-1.60683 -0.70759,-2.25547 -1.46924,-4.50601 -2.26774,-6.75411 -1.58227,3.82545 -8.40516,4.98512 -12.59669,3.10065 -0.77147,0.34397 -1.81076,1.32674 -2.94094,0.62897 -0.65355,-2.46921 2.81318,-0.82798 2.73456,-2.72965 -0.0123,-0.27026 -0.27518,-0.29483 -0.21621,-0.63388 -4.74925,0.44224 -7.38799,4.10061 -12.41241,3.57729 0.78621,-2.43482 4.04656,-2.79599 6.52806,-3.36845 2.73456,-0.63389 5.30206,-1.51102 7.35851,-2.52082 1.13019,1.05403 4.3979,1.22601 5.26274,-0.21375 -0.0442,-1.00488 -1.312,-0.79604 -1.05402,-2.10559 0.74691,-1.42747 3.10802,-1.24075 3.78859,-2.7321 0.0565,-0.45699 0.18427,-0.90416 0.37837,-1.30218 -2.06137,-5.05145 -4.34386,-10.08079 -6.8745,-15.083096 -0.27272,-0.277634 -0.41522,-0.572465 -0.44224,-0.862383 -0.82799,-1.619118 -1.68546,-3.233321 -2.56258,-4.847525 -0.13022,0.06634 -0.26044,0.132675 -0.3882,0.206383 -2.1105,1.206353 -3.40285,4.476528 -6.72953,3.793501 -0.62898,-0.663372 -0.0197,-1.958174 -0.21375,-3.368452 1.84761,-1.132645 3.93108,-2.031882 6.13741,-2.805815 C 375.92982,75.505255 365.66968,60.984794 353.358,46.717397 L 330.14,69.935393 c 6.83518,8.071017 12.90626,16.201001 18.22306,24.380124 1.22109,-0.9926 2.42499,-2.078563 3.77384,-2.948317 2.07857,-1.348855 4.83524,-1.604376 6.94083,-2.734564 1.5749,-0.850098 2.25055,-2.840212 4.20627,-2.316886 1.16458,2.72965 -2.23581,2.223523 -3.78368,2.94586 -1.27514,0.592121 -1.95326,2.083478 -3.15961,2.94586 -2.1105,1.51347 -4.69274,2.309515 -7.17915,3.348797 3.20875,5.014593 6.12759,10.046393 8.76387,15.095383 0.4963,-0.0467 1.01226,0.11793 1.36114,0.49384 0.0172,0.4963 -0.17444,0.91398 -0.4619,1.22847 0.85501,1.67808 1.66825,3.36108 2.46184,5.04408 1.31938,-0.25307 2.58715,-0.2457 3.68294,0.4619 -0.3022,1.76899 -1.92132,0.74199 -2.73702,0.83781 -0.10319,0.0123 -0.21375,0.0369 -0.3194,0.0491 1.0098,2.1965 1.96309,4.39299 2.86478,6.5944 1.78373,-0.656 5.11042,0.5823 5.24064,1.77391 0.15724,1.43976 -2.25055,2.15964 -3.28246,3.21612 0.35871,0.96557 0.70268,1.93361 1.03928,2.90164 0.86238,-0.0565 1.4889,1.46187 0.656,1.90657 0.17198,0.51105 0.33905,1.02454 0.50367,1.53559 2.1793,-0.99015 5.67797,-0.5135 7.81795,-0.93118 -0.007,0.28992 0.0983,0.46436 0.2113,0.63143 -1.8943,0.91889 -4.74188,2.13753 -7.42976,2.1793 1.06385,3.43233 2.00486,6.86958 2.80581,10.31174 1.92132,0.59457 3.5085,1.63631 3.1547,2.6584 -0.0958,0.2506 -0.027,0.27763 -0.21866,0.41767 -0.58475,0.43242 -1.26778,0.81325 -2.02697,1.13756 0.11056,0.54299 0.21375,1.08351 0.31694,1.62649 3.06625,-0.87958 5.60426,-2.72719 8.86461,-0.8673 -1.78865,1.98029 -5.39788,1.56261 -7.57472,1.683 0.73217,3.57975 5.10305,1.04911 7.78847,0.84273 1.0098,-0.95329 1.67317,-2.26038 3.78613,-2.10313 0.32923,-0.52087 0.12776,-1.56015 1.05157,-1.4717 1.57981,4.72959 -4.963,5.15218 -8.83512,5.04653 -1.15476,1.06385 -2.43974,0.43242 -4.42985,0.57001 1.45942,8.96043 2.04417,17.95771 1.73214,26.97219 -0.14988,4.28243 -0.50367,8.47886 -1.02454,12.59422 4.30945,-1.49627 9.2184,0.81325 14.03398,1.10316 4.89175,0.29729 9.95303,-0.44224 13.67282,0.63389 l 0,0.42014 c -0.11547,0.30466 -0.32431,0.51104 -0.63143,0.63143 -1.52329,0.88695 -4.3807,-0.13022 -6.93837,-0.2113 -1.90903,-0.059 -3.96303,-0.30957 -5.89418,-0.21129 -5.71973,0.28992 -10.51566,2.20141 -14.57942,0.0762 -2.22353,15.44673 -6.84256,29.64533 -12.50087,42.21499 1.07614,-0.26535 2.39797,0.10319 3.09328,0.84518 -0.11056,1.65352 -2.70754,1.56752 -3.76648,0.62406 -0.64863,1.41028 -1.30954,2.80336 -1.98274,4.17187 0.16461,0.0786 0.32923,0.16216 0.48893,0.25552 1.683,0.9582 2.77387,3.00237 4.41756,4.20872 1.77636,1.30218 3.79596,1.25795 5.47159,2.73457 4.53303,0.4447 7.15458,2.80336 11.36084,3.57483 0.27272,0.6388 0.39803,1.43239 0.63144,2.10559 2.0417,0.85501 4.22592,1.8943 6.44207,2.91884 5.33154,-10.67537 10.14958,-22.53252 13.77355,-35.42403 -1.93852,0.40048 -4.94089,-1.54787 -2.75176,-3.05151 1.29972,0.14741 2.50607,0.38819 3.28492,1.06139 3.33159,-12.37064 5.56494,-25.65527 6.08581,-39.75314 0.45699,-12.37556 -0.42013,-24.65775 -2.6068,-36.82939 M 342.03892,77.451144 c 1.54541,4.304543 -5.38314,0.01966 0,0 m 13.3829,-7.835152 c -3.32177,-0.147416 -0.7813,-5.57969 1.88938,-2.734564 0.26043,1.889379 -0.66583,2.79353 -1.88938,2.734564 m -0.13267,-13.626139 c 0.21866,-1.943432 3.62397,-2.130159 4.63377,-0.420135 0.51104,4.21855 -4.91141,2.950774 -4.63377,0.420135 m 5.89417,45.480247 c -1.6142,-0.64863 -0.69285,-3.390565 1.04911,-3.16207 1.57489,0.648629 0.68549,3.35125 -1.04911,3.16207 m 1.89184,5.67797 c -0.0418,-0.23587 -0.23095,-0.32923 -0.42014,-0.4226 -0.0147,-0.92872 0.44717,-1.37096 1.26287,-1.47415 0.80833,0.61914 0.20146,1.91395 -0.84273,1.89675 m 12.83501,-5.26275 c -0.0442,-0.23341 -0.23096,-0.32677 -0.41523,-0.41522 0,-0.98769 0.48648,-1.476616 1.46925,-1.476616 0.54298,0.808326 0.005,2.019596 -1.05402,1.891836 m 0.84272,-11.569686 c -0.52824,2.599432 -5.67059,3.805785 -6.31431,0.837813 -0.86484,-4.00234 7.23075,-5.368394 6.31431,-0.837813 m -4.00234,7.574717 c -0.4963,-0.606862 0.0442,-1.518383 0.84764,-1.471701 0.4963,0.604405 -0.0442,1.515926 -0.84764,1.471701 m -2.94094,18.938019 c 0.58475,-3.01711 6.2578,-1.98765 8.62628,-2.52818 l 0,1.05157 c -2.51098,0.74445 -6.06862,1.46924 -8.62628,1.47661 m 2.10067,23.14184 c 0.0565,-1.10317 1.59701,-1.24321 2.52327,-0.83782 0.38574,1.5405 -2.29723,2.42499 -2.52327,0.83782 m 7.78847,6.94574 c -0.005,-1.27023 0.71743,-1.80585 2.10314,-1.683 0.97048,1.39554 -1.11299,2.86724 -2.10314,1.683 m 3.15962,5.46667 c -0.16462,-1.72722 1.94834,-1.97292 3.36353,-1.46925 0.18427,1.69774 -2.09822,1.91887 -3.36353,1.46925 m 12.62125,-6.0981 c -0.54298,-1.04911 0.35871,-2.25301 1.47416,-2.31443 0.656,1.15721 -0.22358,2.38568 -1.47416,2.31443 m -2.31443,-7.99977 c -0.0934,-1.93606 2.40534,-2.32917 3.57975,-1.25795 0.35871,2.21615 -2.70754,2.6756 -3.57975,1.25795 m 2.52573,-5.25537 c 0.26043,1.79847 -3.03186,2.29968 -2.95078,0.42259 0.45699,-0.7076 2.0368,-0.80833 2.95078,-0.42259 m -7.99486,1.47415 c 0.0467,-1.81321 3.90898,-3.10064 4.6264,-1.05156 -0.98768,0.79604 -3.12767,1.45941 -4.6264,1.05156 m 1.4717,19.98959 c -0.20638,-1.18669 0.4226,-1.53558 1.47416,-1.47416 0.74691,0.91153 -0.47419,2.30461 -1.47416,1.47416 m -2.53063,15.98479 c -0.62407,1.14248 -3.88933,1.96064 -4.4102,0.21376 0.32432,-1.48399 3.71734,-1.27515 4.4102,-0.21376 m -4.20627,-3.99251 c 0.5307,0.68303 0.0344,1.74442 -1.04665,1.47416 -0.0909,-0.93363 0.35134,-1.33411 1.04665,-1.47416 m -4.62886,15.56712 c 2.73702,-2.80582 8.37322,0.14741 11.7859,-0.62898 0.52087,0.58475 -0.24324,1.15967 -0.62898,1.4717 -3.36108,-1.2948 -8.63611,2.11542 -11.15692,-0.84272 m 14.93814,4.21118 c -2.85495,-1.53313 -7.7467,1.29234 -10.09553,-1.05403 2.09576,-2.82547 7.60912,0.16462 10.52058,-0.84027 0.57247,0.67811 -0.0393,1.52084 -0.42505,1.8943 m 1.89429,-5.26029 c 0.33415,-1.01472 2.58715,-1.09579 3.36846,-0.4226 0.44224,2.06874 -3.22104,1.78865 -3.36846,0.4226 m -10.51566,27.5643 c -0.58721,1.29726 -3.01711,0.91644 -3.15961,-0.42259 -0.23587,-2.26529 3.97531,-1.39799 3.15961,0.42259 m 3.99743,22.93545 c -1.44959,2.24072 -6.646,-0.39065 -5.88927,-2.73702 0.84765,-2.66577 7.20373,0.70268 5.88927,2.73702 m -7.36588,4.42002 c -1.4889,0.15479 -2.20141,-0.4619 -3.1547,-0.84518 0.26289,-1.95081 5.65094,-1.06385 3.1547,0.84518 m -1.25795,-16.62359 c -0.11548,2.88443 -7.58209,2.16947 -7.58209,-0.21376 0,-2.95568 7.41011,-1.58226 7.58209,0.21376 m -3.15961,9.04642 c -0.27026,0.28746 -0.9926,0.28746 -1.26287,0 0.0369,-0.59212 0.36363,-0.89678 1.05157,-0.84027 0.0663,0.28254 0.29729,0.40293 0.2113,0.84027 m -8.20615,10.31173 c 1.12282,-0.0786 1.52084,0.5823 2.31197,0.84027 0.20147,0.92381 0.36608,1.87956 0.42505,2.94586 -1.22847,0.53316 -2.82056,-0.21866 -3.57975,-0.84272 0.0319,-1.23338 0.24078,-2.28003 0.84273,-2.94341 m -0.84273,8.62629 -0.84027,0 c -0.16953,-0.7248 0.19656,-0.92626 0.62898,-1.05402 0.17444,0.24323 0.27763,0.56755 0.21129,1.05402 m 5.46667,5.89172 c -0.0884,-0.93609 0.12039,-1.56998 1.0614,-1.47416 1.4201,0.41031 0.12284,2.48396 -1.0614,1.47416 m 12.84238,2.10067 c -1.41028,2.98518 -7.53786,-0.0369 -7.15704,-2.52081 0.51104,-3.33897 8.70736,-0.77147 7.15704,2.52081 m 4.6264,-8.20123 c -0.92135,0.69531 -1.83533,-0.40294 -2.73702,-0.42014 -0.92626,1.93852 -5.70991,0.0344 -6.52315,2.10314 -2.55767,-1.96063 -8.47641,-1.01717 -10.94071,-3.366 -0.93118,-0.054 -1.81076,-0.15233 -1.89184,-1.05402 1.69282,-1.3292 5.84995,-0.73708 8.83758,-0.63143 0.65109,-0.39557 0.87712,-1.22355 1.4717,-1.68054 3.11047,0.0197 4.65343,1.44959 6.73199,2.31197 2.39551,0.98768 5.15464,0.21375 5.68288,2.31688 -0.32923,0.0172 -0.16461,0.53316 -0.63143,0.42014 m 3.78859,-36.40189 c -0.24815,1.61175 -3.08591,2.43728 -5.049,2.10314 -0.22112,0.48155 -0.13513,1.26777 -0.42259,1.68054 -1.99257,1.37342 -5.22589,0.72479 -5.89172,-1.47171 0.87713,-1.41764 3.32177,-0.41767 4.42002,-1.25794 -0.0835,-1.72231 -1.22601,-1.28989 -1.05402,-2.95078 0.41768,-4.14484 8.53538,-1.62894 7.99731,1.89675 m 0.84027,11.57215 c -0.0442,-0.24078 -0.23341,-0.32923 -0.42259,-0.4226 -0.0393,-0.95574 0.48155,-1.34394 1.47415,-1.26286 0.82062,0.62898 0.18427,1.8943 -1.05156,1.68546 m 1.47416,-3.57975 c -0.43488,-0.0639 -0.57493,-0.61423 -1.05157,-1.04911 1.11299,-4.33648 4.54287,1.58963 1.05157,1.04911 m -18.30659,52.81467 c 1.08596,-0.10319 0.35625,1.60438 1.04911,1.89184 1.1523,0.54052 2.15964,1.21863 3.20875,1.85252 1.80093,-3.13996 3.57238,-6.40767 5.29469,-9.79824 -3.46182,-1.49381 -6.73445,-3.17435 -9.13241,-5.72956 -1.62158,0.42996 -4.51093,0 -6.3094,-0.84027 -0.44471,-1.3808 -1.42011,-2.23335 -2.73702,-2.73702 -2.17439,0.18427 -10.60657,-3.37582 -11.57461,0.20884 -0.37345,1.38325 0.3882,2.34637 1.05403,3.15961 2.72719,-1.34885 3.03676,3.0122 5.89172,2.9434 0.85501,-0.0197 1.4545,-1.14984 2.52327,-1.2604 3.22103,-0.34152 3.23086,2.65348 2.10559,4.6264 0.15724,0.68548 1.12036,0.55772 1.68545,0.84518 -0.37345,1.91395 1.06877,2.00732 0.83536,3.78613 -4.963,0.25061 -7.72951,-3.47901 -11.77607,-4.84261 2.1793,-3.88195 -4.85735,-6.73444 -5.26521,-2.10313 -1.19161,-0.18918 -2.43236,-0.3194 -3.28491,-0.84764 -0.3538,0.58229 -0.70514,1.17196 -1.05894,1.74442 0.84027,0.68303 1.65106,1.36605 2.4471,1.84024 0.16708,0.0516 0.24815,0.17444 0.21376,0.42259 -0.8501,0.65846 -2.30706,0.0786 -3.6854,-0.63143 -1.14984,1.82304 -2.29969,3.58466 -3.44707,5.2824 0.67074,0.32186 1.20881,0.7248 1.45204,1.44714 -0.62651,1.37833 -1.42256,0.57737 -2.33899,-0.13022 -0.4963,0.71988 -0.98769,1.42256 -1.47908,2.11787 0.29729,1.67563 0.91398,3.02448 1.71248,4.53304 -1.1179,1.07614 -2.94094,-0.17936 -4.32911,-0.89924 -3.30457,4.4839 -6.46418,8.40271 -9.26754,11.6778 l 23.24502,23.24256 c 7.52558,-8.5452 17.36067,-21.05835 26.55205,-36.87853 -2.38322,-0.58721 -5.25537,-2.54047 -3.58466,-4.92369 m -27.98444,-2.52327 c 2.27266,0.48156 3.07362,-0.20884 4.6264,-0.83781 1.17195,1.58472 -1.60192,2.30951 -1.4717,4.20381 -2.15964,1.58226 -5.17921,-1.43485 -3.1547,-3.366 m 5.8868,23.77572 c -2.59451,0.68549 -7.24548,-2.95569 -6.52069,-6.31185 2.54047,-0.62161 6.09565,1.27269 7.15458,2.9434 0.84764,1.33903 0.67812,3.02694 -0.63389,3.36845 m 2.95078,-21.25245 c 1.77636,-0.11548 2.33163,-1.44959 4.4151,-1.26041 1.84024,2.70509 -4.29471,5.11288 -4.4151,1.26041 m 9.25771,3.78859 c -2.24809,-0.0688 -3.75664,-0.87713 -3.78858,-3.15962 1.8255,-1.86972 5.64111,1.37589 3.78858,3.15962 m 7.36834,4.84261 c -1.79356,0.10073 -4.21609,-0.98032 -4.42002,-3.15962 0.16216,-0.0442 0.24078,-0.17444 0.20393,-0.42013 2.22843,-1.53558 5.97525,1.80093 4.21609,3.57975 m 1.25795,-12.41979 c -1.40537,0.37591 -3.69523,0.14005 -3.78859,-1.4717 0.89187,-1.39799 3.41759,-0.0541 3.78859,1.05157 l 0,0.42013 z M 398.42522,121.4511 c -0.0319,-0.1769 -0.10565,-0.31449 -0.20393,-0.42996 0.059,0.16461 0.11548,0.32677 0.17445,0.49138 0.007,-0.0221 0.0221,-0.0393 0.0295,-0.0614 M 271.54392,207.724 c -0.0147,-1.08842 -0.94346,-1.99748 -1.94589,-2.18913 -0.3022,0.55527 -0.60932,1.10071 -0.91889,1.63141 0.66583,0.68057 1.86972,0.85501 2.86478,0.55772 m 25.66977,-69.85618 c 0.2113,0.027 0.41276,0.005 0.60686,-0.0319 -0.36608,-0.64863 -0.74445,-1.2948 -1.13019,-1.94098 -0.1769,0.30712 -0.29728,0.66829 -0.31448,1.13265 0.36608,0.18918 0.34642,0.77148 0.83781,0.84027 m -9.46901,7.9953 c 4.45442,-1.1695 8.02679,-3.22595 11.57706,-5.30206 -0.24815,-0.47418 -0.50613,-0.94592 -0.76411,-1.41765 -3.34879,2.49625 -9.51815,2.16947 -10.81295,6.71971 m -14.93545,-4.84139 c 1.89921,-1.20881 3.32423,-2.94586 5.04654,-3.99497 1.30463,-0.79359 2.89917,-0.84273 3.99742,-1.47416 1.19898,-0.69285 2.51836,-3.43724 4.42248,-1.68545 0.20638,2.87706 -3.73208,1.60437 -4.42248,3.57975 3.94829,0.0491 7.05385,-2.8525 9.68031,-4.41757 0.81079,-0.48647 1.86972,-0.61177 2.78616,-0.91643 -3.37582,-5.14481 -7.30937,-10.21101 -11.81047,-15.19366 l -7.86955,7.86955 c 0.89187,3.25789 1.96309,5.92857 -0.7813,7.8155 -0.77639,0.53561 -1.97783,0.4447 -2.94832,0.84764 -2.4127,0.98523 -4.62394,3.5994 -6.94083,3.36108 -0.01,-0.50859 0.0344,-0.99015 0.10811,-1.45942 l -4.75416,4.7517 c 1.50118,1.7174 2.90409,3.43479 4.21118,5.15465 2.20386,-0.66338 4.05639,-1.46925 5.90646,-2.55276 1.1867,-0.69531 2.53064,-1.1523 3.36845,-1.68545 m 7.57226,-10.72942 c 0.54298,0.74937 -0.086,1.78865 -1.04911,1.68546 -0.54544,-0.74691 0.0786,-1.7911 1.04911,-1.68546 m 2.31272,21.46057 c -0.67566,0.24078 -0.93118,0.98277 -1.68054,1.26532 -0.47173,0.17198 -1.15476,-0.11548 -1.683,0 -2.32425,0.49876 -5.52318,2.13753 -4.42002,4.62886 0.63389,0.87221 3.02449,0.75427 4.20873,0.42259 0.027,-2.75668 3.28983,-3.63872 4.20626,-1.05157 3.82053,-0.81324 9.73682,-0.64617 10.52304,-3.79104 -3.82053,-1.16704 -7.04402,3.4225 -10.31174,0.84273 0.68794,-2.0712 3.40776,0.9066 4.84261,-0.63144 -0.27272,-1.33902 -1.86236,-1.36605 -2.73948,-2.10067 -0.84027,0.50121 -1.74688,-0.005 -2.94586,0.41522 m 19.57018,1.05622 c -2.28003,1.5061 -6.42733,1.14247 -7.99731,3.36108 2.42253,1.71003 5.82293,0.23341 8.84004,-0.20638 0.93117,-0.13513 1.74933,-0.285 2.50852,-0.43733 -0.33905,-1.07614 -0.70514,-2.14736 -1.08842,-3.21858 -0.53561,0.38819 -1.22355,0.6216 -2.26283,0.50121 m -16.62382,57.02022 0,-0.42014 c -0.57001,-1.18669 -1.81813,-1.69773 -3.57483,-1.68299 -0.2457,2.03188 2.45447,2.13507 3.57483,2.10313 m -2.5218,-3.78786 c 0.28992,-0.97049 0.28992,-2.23581 1.26286,-2.52572 1.41274,-0.0835 1.39063,1.27514 2.52327,1.4717 1.91149,-1.57735 5.81556,1.31691 5.67797,-2.10068 -3.26772,-1.21618 -8.05382,-0.92626 -10.30683,-3.15716 -3.13258,0.50122 -6.48138,-1.85006 -9.01693,-2.09821 -0.44471,1.16949 -0.91644,2.31197 -1.41274,3.41513 3.19647,2.22107 6.91626,3.92372 11.2724,4.99494 m -6.10056,-5.68288 c 0.0123,0.36608 -0.0491,0.656 -0.21375,0.84518 -0.28992,0.007 -0.46191,-0.10319 -0.63389,-0.21375 -0.0565,-0.55281 0.29483,-0.68794 0.84764,-0.63143 m -4.9e-4,-60.38792 c -0.83781,-0.13513 -1.14002,0.26781 -1.47416,0.63635 0.20884,0.7985 1.73459,0.31203 1.47416,-0.63635 m 4.62591,4.41952 c 2.99254,-1.94343 4.26032,-4.56989 9.04888,-4.20872 0.84027,-1.77636 4.38562,-3.16453 2.52326,-5.67797 -2.61417,0.11548 -3.44216,2.02205 -4.62885,3.57238 -3.25298,-0.47665 -5.97772,1.4889 -8.83513,2.73948 -4.72959,2.06382 -9.62134,4.66816 -14.33619,7.01945 1.02454,1.45941 1.96555,2.91883 2.85004,4.3807 2.50853,-1.28743 4.89912,-2.77141 7.27743,-4.24557 1.70757,-1.06631 3.96549,-2.19158 6.10056,-3.57975 m 9.46901,-7.36342 c 0.17936,0.24323 0.27518,0.56264 0.20884,1.04911 -0.51104,0.45699 -1.55278,0.16216 -1.4717,-0.62898 0.43979,-0.12039 0.59703,-0.51841 1.26286,-0.42013 m 4.41805,86.05695 c 0.50367,-0.7813 1.48399,-1.28989 2.51344,-1.4545 0.31203,-0.56264 0.6216,-1.13265 0.92872,-1.71248 -1.13019,-0.29484 -2.20141,-0.71251 -3.02202,-1.25058 -2.19896,-1.44468 -4.29226,-3.6338 -6.732,-5.47159 -2.05153,-1.53804 -5.96788,-3.51586 -7.57471,-1.46924 0.8329,2.60435 5.07847,1.7911 6.52069,3.78613 -1.24321,0.68057 -2.99254,1.28743 -3.78122,2.9434 2.50607,3.60678 7.15213,5.07111 11.57215,6.76639 0.27518,-0.44962 0.54789,-0.90169 0.82061,-1.36605 -0.45207,-0.12531 -0.87466,-0.35872 -1.24566,-0.77148 m -4.20872,-3.99743 c -1.71003,-0.48893 -3.18418,-0.11547 -3.15716,-1.4717 0.0295,-1.2604 1.8427,-1.597 3.15716,-1.04911 0.54298,0.22113 0.77147,1.18179 1.47416,1.68054 1.10807,0.78131 2.62891,0.73954 2.94586,1.68054 l 0,0.63389 c -2.0196,0.21621 -2.42745,-0.90169 -4.42002,-1.47416 m 17.06535,-51.85843 c -0.31203,-1.95817 -0.69285,-3.90898 -1.1523,-5.84995 -0.18673,0.01 -0.371,0.027 -0.55035,0.0541 -1.61912,0.24815 -3.06871,1.53804 -4.42002,2.10805 -1.56015,0.656 -3.21612,1.48644 -5.26029,1.2604 -0.90415,-0.10073 -1.5405,-0.85992 -2.52573,-0.84272 -1.53803,0.0295 -3.13013,1.62894 -4.83769,1.05402 -0.74445,-1.0614 1.312,-1.3636 0.62897,-2.31689 -2.40779,-0.01 -6.76147,-0.1769 -7.99485,1.683 0.43979,1.39308 3.39302,1.1351 2.31443,3.37091 -1.57244,0.63634 -2.77879,-0.16953 -4.41756,0.20884 -1.41765,0.32186 -2.63875,1.64369 -4.75416,1.34148 0.27026,1.16459 0.49384,2.33163 0.67565,3.49622 2.8009,-0.36854 5.64111,-1.4324 8.49607,-1.88938 7.59683,-1.22847 16.06341,-2.26038 23.79783,-3.67803 m -1.91467,26.39819 c -3.10065,0.95575 -6.68285,0.74445 -10.09799,1.683 -0.37836,0.70759 0.34397,1.56752 -0.42259,2.10313 -0.94346,-0.0344 -1.52329,-0.43733 -2.10313,-0.84027 0.98031,-3.40285 -5.16447,-3.66574 -2.52573,-6.73199 1.94344,-2.25546 4.58218,-0.72234 7.57227,0 3.37336,0.8157 6.91626,1.07859 8.4199,2.52572 0.41522,-0.11301 0.78622,-0.35134 1.14984,-0.60931 0.44471,-2.92375 0.74936,-5.93595 0.86484,-9.03905 0.0688,-1.90412 0.0639,-3.80579 0,-5.69763 -0.68548,-0.48401 -0.64126,-1.69528 -1.597,-1.90903 -1.95572,0.14742 -3.51342,0.69531 -4.83524,1.47416 -0.41031,-0.57492 -0.88204,-1.08597 -1.683,-1.26286 -5.65586,0.71005 -12.4075,0.28746 -18.0953,0.42013 -0.29974,1.22601 1.26041,1.42256 0.62898,2.31443 -1.37343,0.96557 -2.30215,2.26775 -4.41756,2.31443 -0.78622,0.0172 -1.76408,-0.33414 -2.68789,-0.57492 0,0.57246 0.007,1.14493 -0.0147,1.71739 -0.007,0.20638 -0.0246,0.40785 -0.0344,0.61423 1.72723,0.58721 3.12522,1.30709 3.99989,2.87216 0.31694,0.57737 0.22849,1.4889 0.63143,2.10313 0.74199,1.13756 2.19158,1.62649 2.31197,2.94586 2.23826,0.28746 2.624,2.42499 3.99988,3.57729 1.13265,0.33906 2.43482,0.51104 3.36354,1.05402 0.34397,0.68057 0.10319,1.13756 0,1.89184 0.99506,2.24318 3.2972,1.90658 6.10302,2.31197 2.93357,0.43242 5.27503,2.45448 6.31185,4.63377 -2.83775,-0.52824 -4.51338,1.398 -7.15212,1.05403 -1.05648,1.04174 -0.77148,3.43233 -2.31443,3.99497 -0.89678,-0.15479 0.01,-2.11542 -0.84027,-2.31689 -1.35377,-0.15724 -1.41765,0.8157 -2.52818,0.84518 -1.88693,0.0467 -3.77139,-2.40287 -5.88927,-0.84518 1.35623,1.58963 3.89915,1.99503 6.5207,2.31689 2.60926,2.17192 6.18409,3.25297 9.68031,4.62885 0.39802,0.15725 0.7985,0.3194 1.20389,0.48648 2.51344,-5.69026 4.63377,-12.01931 5.94823,-18.8938 -0.57738,-0.22358 -1.10562,-0.60441 -1.4717,-1.16213 m 0,-14.518 c 0.52578,0.62897 -0.13759,1.41764 -0.84027,1.4717 -0.52578,-0.62652 0.1425,-1.41274 0.84027,-1.4717 m -2.52327,6.31185 c 1.16213,0.36117 0.52824,2.22844 -0.84273,1.89184 -0.6388,-0.656 -0.36853,-1.95326 0.84273,-1.89184 m -9.04887,-5.04899 c 0.74445,0.91643 -0.47173,2.3046 -1.47416,1.47416 0.0614,-0.92381 0.36854,-1.59455 1.47416,-1.47416 m -3.15716,6.52561 c -0.44962,-0.0786 -0.52824,-0.44716 -1.05157,-0.84273 0.76165,-4.56006 4.86227,1.48644 1.05157,0.84273 m -6.52315,-4.21118 c -0.52824,-0.68057 -0.0319,-1.74442 1.05402,-1.46925 0.3022,0.67812 -0.0614,1.50856 -1.05402,1.46925 m 13.46644,27.77806 c -0.29238,-0.27027 -0.29238,-0.99997 0,-1.26287 l 0.63143,0 c 0.4619,0.48156 0.0762,1.30709 -0.63143,1.26287 m -30.72029,0.62874 c -0.0369,2.66577 3.42496,3.59695 4.84261,1.89184 -0.656,-1.5061 -2.91638,-2.33654 -4.84261,-1.89184 m -0.84247,13.25317 c -0.14987,-1.18178 -1.683,-0.98032 -1.68054,-2.31197 2.74193,-0.31203 4.4667,-2.77142 8.20615,-1.47416 2.43973,-1.27515 -0.0295,-3.80579 -1.8943,-4.6264 -2.50115,-1.10808 -5.77378,-0.14742 -7.78601,-0.21621 -0.69531,0.87712 -1.42748,1.21127 -2.19158,1.25795 -0.61915,0.74199 -1.19653,1.40536 -1.71248,1.97537 l 0.40539,0.40294 c 0.25307,0.054 0.50859,0.11547 0.76411,0.15724 0.78376,-0.19655 0.96803,-1.00243 1.89183,-1.05648 1.43977,0.72234 0.7076,2.41271 -0.36854,3.18664 l 3.81316,3.81316 c 0.3022,-0.24815 0.57492,-0.52824 0.55281,-1.10808 m 21.88805,1.68497 c 0.36608,1.8771 2.79599,1.69283 2.9434,3.78859 -2.36356,0.65108 -3.60431,-1.57244 -5.89417,-1.683 -1.55033,0.41522 -0.47665,3.45444 -2.73457,3.15716 -0.5135,-1.28007 -0.027,-3.26035 -1.47416,-3.99743 -0.18181,-1.02454 0.60441,-1.08351 0.4226,-2.10805 -0.37837,-1.02208 -1.91641,-0.88449 -2.94341,-1.25795 -0.81816,-0.64863 -0.82307,-3.10801 -2.10559,-3.36845 -0.86238,-0.1769 -1.80338,0.12776 -1.89429,1.26286 -0.10073,1.30218 2.14981,1.17196 1.4717,2.73457 -0.80096,0.95083 -3.13996,0.36854 -3.1547,2.10313 0.52087,1.72231 3.30457,1.18178 3.57729,3.15716 -0.22603,0.61669 -0.941,0.73708 -1.89429,0.63389 -1.09333,-2.55521 -3.936,-3.36354 -6.52315,-4.42248 -0.16216,0.28009 -0.42505,0.62652 -0.74445,0.91644 l 15.14943,15.15189 c 2.96552,-3.18664 7.22829,-8.22089 11.45421,-14.8153 -1.5626,-0.85009 -3.15224,-1.65351 -4.81804,-2.3046 -0.21129,0.4226 -0.93363,0.33415 -0.83781,1.05157 m -10.94317,5.05145 c 1.16704,-1.04174 2.67068,0.0835 2.52573,1.04911 -0.20393,1.32674 -2.81565,1.09088 -2.52573,-1.04911 m 2.94586,3.36599 c 1.80093,-0.95328 4.15221,0.59704 5.04654,1.8943 -1.26041,1.95326 -5.04163,0.10565 -5.04654,-1.8943 m 16.19903,-86.90286 c -1.65106,0.61423 -3.63134,1.45205 -4.20381,2.73456 0.39557,1.14739 1.6142,1.46925 2.10313,2.53064 1.54787,-2.59452 4.74188,-3.11784 8.24055,-3.57975 -0.43733,-1.08596 -0.90169,-2.16947 -1.38817,-3.25051 -1.50855,0.33168 -3.28491,1.01962 -4.7517,1.56506 m 11.36527,23.36025 c -0.52578,0.1769 -1.12773,0.27518 -1.89429,0.20884 -0.81816,-0.62652 0.13758,-1.71494 -0.84027,-2.10559 -1.69774,1.97291 -5.16447,0.66828 -7.78847,1.89675 -0.0762,1.05648 1.53312,0.43242 1.26286,1.68545 -0.81816,0.72234 -2.1965,0.88696 -3.78859,0.83536 -0.69531,-0.28009 -0.32431,-1.63386 -1.26286,-1.683 -3.30457,0.76411 -8.06365,0.0737 -9.67785,2.52327 7.05876,0.61915 15.98725,0.17936 22.51777,0.2113 0.78867,-0.0442 0.88695,-0.78868 1.68054,-0.84027 0.11793,0.0147 0.24078,0.0221 0.35871,0.0344 -0.12285,-1.61666 -0.29974,-3.22595 -0.52087,-4.83278 -0.15724,0.0565 -0.32186,0.11302 -0.47173,0.16953 -0.0835,0.85993 0.69531,0.85255 0.42505,1.89675"
       id="path4714"
       style="fill:#000000;fill-opacity:1;fill-rule:nonzero;stroke:none" />
    <g
       id="g4593">
      <path
         d="m 468.38658,161.39686 c 2.17438,0 4.15958,0.34151 5.95806,1.02454 1.79356,0.68303 3.33651,1.64369 4.6264,2.88198 1.28989,1.24075 2.2874,2.73211 2.995,4.47653 0.70759,1.74688 1.06385,3.68048 1.06385,5.80573 l 0,22.75855 -8.1177,0 0,-22.22786 c 0,-2.63137 -0.59704,-4.64114 -1.78373,-6.03176 -1.18916,-1.39063 -2.76896,-2.08839 -4.74188,-2.08839 -1.97292,0 -3.55518,0.69776 -4.74188,2.08839 -1.18915,1.39062 -1.78373,3.40039 -1.78373,6.03176 l 0,22.22786 -8.19386,0 0,-22.22786 c 0,-2.63137 -0.59458,-4.64114 -1.78373,-6.03176 -1.1867,-1.39063 -2.79353,-2.08839 -4.81559,-2.08839 -1.97291,0 -3.55518,0.69776 -4.74187,2.08839 -1.18916,1.39062 -1.78374,3.40039 -1.78374,6.03176 l 0,22.22786 -8.1177,0 0,-22.75855 c 0,-4.25049 1.26532,-7.67546 3.79351,-10.28226 2.52818,-2.60435 6.14724,-3.90652 10.8498,-3.90652 2.17439,0 4.24803,0.55772 6.22095,1.66826 1.97292,1.11299 3.41513,2.83529 4.3242,5.15955 0.85992,-2.37585 2.27512,-4.10799 4.24803,-5.19641 1.97537,-1.08842 4.1473,-1.6314 6.52561,-1.6314"
         id="path4718"
         style="fill:#000000;fill-opacity:1;fill-rule:nonzero;stroke:none" />
      <path
         d="m 505.96263,198.80855 c -4.70502,0 -8.33391,-1.30217 -10.88666,-3.90652 -2.55521,-2.60435 -3.83281,-6.03177 -3.83281,-10.2798 l 0,-22.76101 8.1177,0 0,22.22786 c 0,2.63137 0.59457,4.64114 1.78373,6.03422 1.1867,1.39062 2.79353,2.08593 4.81804,2.08593 1.92132,0 3.47656,-0.69531 4.66571,-2.08593 1.1867,-1.39308 1.78373,-3.40285 1.78373,-6.03422 l 0,-22.22786 8.19387,0 0,22.76101 c 0,4.24803 -1.26532,7.67545 -3.7935,10.2798 -2.53064,2.60435 -6.14479,3.90652 -10.84981,3.90652"
         id="path4722"
         style="fill:#000000;fill-opacity:1;fill-rule:nonzero;stroke:none" />
      <path
         d="m 551.29424,177.59443 c 1.43976,0.37837 2.68051,0.96312 3.71734,1.74442 1.03682,0.78622 1.85744,1.81076 2.46675,3.07362 0.60687,1.26532 0.90907,2.85741 0.90907,4.77873 0,3.59203 -1.40537,6.41259 -4.21118,8.45921 -2.80827,2.04908 -6.58703,3.07362 -11.34365,3.07362 -5.56249,0 -10.49355,-1.67071 -14.79318,-5.00722 l 3.11293,-6.44944 c 1.97292,1.66825 3.90652,2.89672 5.80327,3.68048 1.89675,0.78376 3.80579,1.17687 5.72711,1.17687 5.05636,0 7.587,-1.64369 7.587,-4.93352 0,-2.32425 -1.39062,-3.58957 -4.17187,-3.7935 l -5.38805,-0.45453 c -8.04153,-0.656 -12.06107,-4.12027 -12.06107,-10.39528 0,-3.43724 1.27515,-6.15461 3.83035,-8.15455 2.55276,-1.99748 6.0072,-2.99745 10.35351,-2.99745 2.1277,0 4.31437,0.34151 6.56492,1.02454 2.25055,0.68302 4.36105,1.60683 6.33397,2.76896 l -2.65349,5.91874 c -1.87218,-1.21372 -3.68048,-2.04908 -5.4249,-2.50361 -1.74442,-0.45453 -3.35126,-0.68303 -4.8205,-0.68303 -4.04411,0 -6.06616,1.54296 -6.06616,4.6264 0,2.17684 1.51592,3.41514 4.55023,3.7198 l 5.31189,0.53069 c 1.66825,0.15233 3.22349,0.41768 4.66571,0.79605"
         id="path4726"
         style="fill:#000000;fill-opacity:1;fill-rule:nonzero;stroke:none" />
      <path
         d="m 574.3427,199.00487 c -2.93358,-0.60686 -5.01951,-1.8083 -6.26026,-3.60432 -1.23829,-1.79601 -1.85744,-4.21118 -1.85744,-7.24549 l 0,-26.32601 8.19386,0 0,27.00904 c 0,0.96066 0.20147,1.77145 0.60687,2.42745 0.40293,0.65846 1.11053,1.24075 2.12524,1.74688 l -2.80827,5.99245 z"
         id="path4730"
         style="fill:#000000;fill-opacity:1;fill-rule:nonzero;stroke:none" />
      <path
         d="m 582.58938,180.06093 c 0,-6.01948 1.36605,-10.6336 4.0957,-13.84726 2.73211,-3.21121 6.95557,-4.81559 12.67285,-4.81559 2.27512,0 4.34877,0.39066 6.21849,1.17442 1.87219,0.78621 3.61661,1.78373 5.23572,2.99745 l -3.18664,6.37328 c -1.31691,-1.21372 -2.70508,-2.17438 -4.17186,-2.88444 -1.46679,-0.70759 -2.83284,-1.06139 -4.09571,-1.06139 -3.03676,0 -5.23572,1.03682 -6.60177,3.11047 -1.36605,2.07611 -2.04908,5.05882 -2.04908,8.95306 0,3.89424 0.68303,6.87941 2.04908,8.95306 1.36605,2.07365 3.56501,3.11047 6.60177,3.11047 1.26287,0 2.62892,-0.3538 4.09571,-1.06385 1.46678,-0.7076 2.85495,-1.66826 4.17186,-2.88198 l 3.18664,6.37328 c -1.61911,1.21372 -3.36353,2.21369 -5.23572,2.995 -1.86972,0.78621 -3.94337,1.17687 -6.21849,1.17687 -5.71728,0 -9.94074,-1.60438 -12.67285,-4.81804 -2.72965,-3.21121 -4.0957,-7.82533 -4.0957,-13.84481"
         id="path4734"
         style="fill:#000000;fill-opacity:1;fill-rule:nonzero;stroke:none" />
    </g>
    <g
       id="g4585">
      <path
         d="m 65.149949,161.39686 c 2.174384,0 4.159584,0.34151 5.9556,1.02454 1.796017,0.68303 3.338969,1.64369 4.628858,2.88198 1.289889,1.24075 2.287402,2.73211 2.994999,4.47653 0.707596,1.74688 1.063851,3.68048 1.063851,5.80573 l 0,22.75855 -8.1177,0 0,-22.22786 c 0,-2.63137 -0.594577,-4.64114 -1.783732,-6.03176 -1.189154,-1.39063 -2.768961,-2.08839 -4.741876,-2.08839 -1.972915,0 -3.555179,0.69776 -4.741876,2.08839 -1.189155,1.39062 -1.783732,3.40039 -1.783732,6.03176 l 0,22.22786 -8.193864,0 0,-22.22786 c 0,-2.63137 -0.594578,-4.64114 -1.781275,-6.03176 -1.189155,-1.39063 -2.795988,-2.08839 -4.818042,-2.08839 -1.972915,0 -3.555178,0.69776 -4.741876,2.08839 -1.189155,1.39062 -1.783732,3.40039 -1.783732,6.03176 l 0,22.22786 -8.117699,0 0,-22.75855 c 0,-4.25049 1.262862,-7.67546 3.793501,-10.28226 2.528182,-2.60435 6.147241,-3.90652 10.849806,-3.90652 2.174384,0 4.248034,0.55772 6.220949,1.66826 1.972916,1.11299 3.415134,2.83529 4.324198,5.15955 0.859926,-2.37585 2.275118,-4.10799 4.248034,-5.19641 1.972915,-1.08842 4.147299,-1.6314 6.525608,-1.6314"
         id="path4738"
         style="fill:#000000;fill-opacity:1;fill-rule:nonzero;stroke:none" />
      <path
         d="m 102.10292,198.72377 c -2.682968,0 -4.93106,-0.27763 -6.751646,-0.8329 -1.823042,-0.55772 -3.314399,-1.35377 -4.476528,-2.39059 -1.164585,-1.03683 -1.999941,-2.25055 -2.503612,-3.64363 -0.506128,-1.38817 -0.759192,-2.91884 -0.759192,-4.58955 0,-1.71739 0.253064,-3.27263 0.759192,-4.66325 0.503671,-1.39308 1.339027,-2.58224 2.503612,-3.56747 1.162129,-0.98523 2.653486,-1.74442 4.476528,-2.27511 1.820586,-0.53316 4.068678,-0.79851 6.751646,-0.79851 0.7076,0 1.50364,0.0393 2.39059,0.11548 0.8845,0.0737 1.73214,0.16461 2.54047,0.26535 0.91152,0.10073 1.82059,0.20147 2.73211,0.3022 l 0,-1.66826 c 0,-4.60183 -2.57978,-6.90397 -7.73933,-6.90397 -1.46679,0 -2.93358,0.22604 -4.400368,0.68303 -1.466788,0.45453 -3.16207,1.39062 -5.08339,2.80581 l -2.72965,-5.99245 c 1.616661,-1.16213 3.488842,-2.14982 5.614087,-2.95815 2.122788,-0.80833 4.348768,-1.21618 6.675481,-1.21618 5.10796,0 9.01448,1.12773 11.72202,3.37582 2.70508,2.25301 4.05885,5.5281 4.05885,9.82773 l 0,10.01445 c 0,3.18418 -0.50613,5.71482 -1.51839,7.58454 -1.01225,1.87218 -2.30214,3.28983 -3.86966,4.25049 -1.56752,0.96066 -3.27509,1.57981 -5.12025,1.85744 -1.84761,0.27763 -3.60431,0.41768 -5.27257,0.41768 m 0,-6.59932 c 2.73211,0 4.69028,-0.57 5.87944,-1.70756 1.18915,-1.13756 1.78373,-2.92129 1.78373,-5.34874 l 0,-2.19895 c -0.85993,-0.15233 -1.94835,-0.27764 -3.26281,-0.38083 -1.31691,-0.10073 -2.78124,-0.15233 -4.40036,-0.15233 -2.326713,0 -3.958116,0.4054 -4.894206,1.21373 -0.936091,0.81078 -1.402908,2.02451 -1.402908,3.64362 0,3.28738 2.098219,4.93106 6.297114,4.93106"
         id="path4742"
         style="fill:#000000;fill-opacity:1;fill-rule:nonzero;stroke:none" />
      <path
         d="m 145.42844,169.97031 c -1.01226,-0.656 -1.96063,-1.14984 -2.84513,-1.47907 -0.88449,-0.32923 -1.60683,-0.49385 -2.16209,-0.49385 -2.02206,0 -3.62889,0.69532 -4.81805,2.08594 -1.18915,1.39308 -1.78127,3.40285 -1.78127,6.03176 l 0,22.23031 -8.19387,0 0,-22.761 c 0,-4.24804 1.27515,-7.67545 3.83036,-10.2798 2.55275,-2.60435 6.20866,-3.90898 10.96283,-3.90898 1.16212,0 2.45201,0.24078 3.86966,0.72234 1.41519,0.48156 2.78125,1.17441 4.0957,2.08593 l -2.95814,5.76642 z"
         id="path4746"
         style="fill:#000000;fill-opacity:1;fill-rule:nonzero;stroke:none" />
      <path
         d="m 162.87756,198.72377 c -2.68297,0 -4.93106,-0.27763 -6.75165,-0.8329 -1.82304,-0.55772 -3.3144,-1.35377 -4.47652,-2.39059 -1.16459,-1.03683 -1.99995,-2.25055 -2.50362,-3.64363 -0.50612,-1.38817 -0.75919,-2.91884 -0.75919,-4.58955 0,-1.71739 0.25307,-3.27263 0.75919,-4.66325 0.50367,-1.39308 1.33903,-2.58224 2.50362,-3.56747 1.16212,-0.98523 2.65348,-1.74442 4.47652,-2.27511 1.82059,-0.53316 4.06868,-0.79851 6.75165,-0.79851 0.7076,0 1.50364,0.0393 2.39059,0.11548 0.88204,0.0737 1.73214,0.16461 2.54047,0.26535 0.91152,0.10073 1.82059,0.20147 2.73211,0.3022 l 0,-1.66826 c 0,-4.60183 -2.57978,-6.90397 -7.73933,-6.90397 -1.46679,0 -2.93358,0.22604 -4.40037,0.68303 -1.46679,0.45453 -3.16207,1.39062 -5.08339,2.80581 l -2.72965,-5.99245 c 1.61666,-1.16213 3.48884,-2.14982 5.61409,-2.95815 2.12279,-0.80833 4.34877,-1.21618 6.67548,-1.21618 5.10796,0 9.01448,1.12773 11.72202,3.37582 2.70508,2.25301 4.05885,5.5281 4.05885,9.82773 l 0,10.01445 c 0,3.18418 -0.50613,5.71482 -1.51839,7.58454 -1.01225,1.87218 -2.30214,3.28983 -3.86966,4.25049 -1.56752,0.96066 -3.27509,1.57981 -5.12025,1.85744 -1.84761,0.27763 -3.60431,0.41768 -5.27257,0.41768 m 0,-6.59932 c 2.73211,0 4.69028,-0.57 5.87944,-1.70756 1.18669,-1.13756 1.78373,-2.92129 1.78373,-5.34874 l 0,-2.19895 c -0.86239,-0.15233 -1.94835,-0.27764 -3.26281,-0.38083 -1.31691,-0.10073 -2.78124,-0.15233 -4.40036,-0.15233 -2.32671,0 -3.95812,0.4054 -4.89421,1.21373 -0.93609,0.81078 -1.4029,2.02451 -1.4029,3.64362 0,3.28738 2.09822,4.93106 6.29711,4.93106"
         id="path4750"
         style="fill:#000000;fill-opacity:1;fill-rule:nonzero;stroke:none" />
      <path
         d="m 209.42239,177.59443 c 1.44222,0.37837 2.68051,0.96312 3.71734,1.74442 1.03682,0.78622 1.85989,1.81076 2.46675,3.07362 0.60687,1.26532 0.90907,2.85741 0.90907,4.77873 0,3.59203 -1.40291,6.41259 -4.21118,8.45921 -2.80582,2.04908 -6.58703,3.07362 -11.34119,3.07362 -5.56495,0 -10.49601,-1.67071 -14.79564,-5.00722 l 3.11293,-6.44944 c 1.97046,1.66825 3.90652,2.89672 5.80327,3.68048 1.89675,0.78376 3.80579,1.17687 5.72711,1.17687 5.05636,0 7.587,-1.64369 7.587,-4.93352 0,-2.32425 -1.39062,-3.58957 -4.17187,-3.7935 l -5.38805,-0.45453 c -8.04153,-0.656 -12.06353,-4.12027 -12.06353,-10.39528 0,-3.43724 1.27761,-6.15461 3.83281,-8.15455 2.55276,-1.99748 6.00474,-2.99745 10.35597,-2.99745 2.12279,0 4.31191,0.34151 6.56246,1.02454 2.25055,0.68302 4.36351,1.60683 6.33397,2.76896 l -2.65595,5.91874 c -1.86972,-1.21372 -3.67802,-2.04908 -5.42244,-2.50361 -1.74688,-0.45453 -3.35371,-0.68303 -4.81804,-0.68303 -4.04657,0 -6.06862,1.54296 -6.06862,4.6264 0,2.17684 1.51592,3.41514 4.55023,3.7198 l 5.31189,0.53069 c 1.66825,0.15233 3.22349,0.41768 4.66571,0.79605"
         id="path4754"
         style="fill:#000000;fill-opacity:1;fill-rule:nonzero;stroke:none" />
      <path
         d="m 235.2553,198.72377 c -3.48884,0 -6.24798,-0.98523 -8.27003,-2.95814 -2.02205,-1.97292 -2.98763,-4.47653 -2.98763,-7.51084 l 0,-26.41938 18.2378,0 0,6.54035 -10.09061,0 0,19.95519 c 0,1.16213 0.3022,2.07365 0.90906,2.72965 0.60686,0.65846 1.34148,0.98769 2.20141,0.98769 0.85993,0 1.68054,-0.10074 2.4643,-0.30466 0.78622,-0.20147 1.5061,-0.42996 2.16456,-0.68303 0.75673,-0.3022 1.49135,-0.656 2.19895,-1.06139 l 2.42745,5.99245 c -0.85993,0.50613 -1.76899,0.96312 -2.73211,1.36606 -0.85992,0.35625 -1.84515,0.67074 -2.95814,0.94837 -1.11299,0.27763 -2.30215,0.41768 -3.56501,0.41768"
         id="path4758"
         style="fill:#000000;fill-opacity:1;fill-rule:nonzero;stroke:none" />
    </g>
  </g>
  <metadata
     id="metadata4728">
    <rdf:RDF>
      <cc:Work
         rdf:about="">
        <dc:title></dc:title>
      </cc:Work>
    </rdf:RDF>
  </metadata>
</svg>
