<?xml version="1.0" encoding="UTF-8" standalone="no"?>
<!-- Created with Inkscape (http://www.inkscape.org/) -->

<svg
   xmlns:dc="http://purl.org/dc/elements/1.1/"
   xmlns:cc="http://creativecommons.org/ns#"
   xmlns:rdf="http://www.w3.org/1999/02/22-rdf-syntax-ns#"
   xmlns:svg="http://www.w3.org/2000/svg"
   xmlns="http://www.w3.org/2000/svg"
   version="1.1"
   width="640"
   height="360"
   id="svg3476">
  <defs
     id="defs3478">
    <clipPath
       id="clipPath3053">
      <path
         d="m 304.529,120.89 254.621,0 0,110.218 -254.621,0 0,-110.218 z"
         id="path3055" />
    </clipPath>
  </defs>
  <g
     transform="matrix(0.99720733,0,0,0.99720733,0.89365789,8.502687)"
     id="g4593">
    <path
       d="m 468.38658,161.39686 c 2.17438,0 4.15958,0.34151 5.95806,1.02454 1.79356,0.68303 3.33651,1.64369 4.6264,2.88198 1.28989,1.24075 2.2874,2.73211 2.995,4.47653 0.70759,1.74688 1.06385,3.68048 1.06385,5.80573 l 0,22.75855 -8.1177,0 0,-22.22786 c 0,-2.63137 -0.59704,-4.64114 -1.78373,-6.03176 -1.18916,-1.39063 -2.76896,-2.08839 -4.74188,-2.08839 -1.97292,0 -3.55518,0.69776 -4.74188,2.08839 -1.18915,1.39062 -1.78373,3.40039 -1.78373,6.03176 l 0,22.22786 -8.19386,0 0,-22.22786 c 0,-2.63137 -0.59458,-4.64114 -1.78373,-6.03176 -1.1867,-1.39063 -2.79353,-2.08839 -4.81559,-2.08839 -1.97291,0 -3.55518,0.69776 -4.74187,2.08839 -1.18916,1.39062 -1.78374,3.40039 -1.78374,6.03176 l 0,22.22786 -8.1177,0 0,-22.75855 c 0,-4.25049 1.26532,-7.67546 3.79351,-10.28226 2.52818,-2.60435 6.14724,-3.90652 10.8498,-3.90652 2.17439,0 4.24803,0.55772 6.22095,1.66826 1.97292,1.11299 3.41513,2.83529 4.3242,5.15955 0.85992,-2.37585 2.27512,-4.10799 4.24803,-5.19641 1.97537,-1.08842 4.1473,-1.6314 6.52561,-1.6314"
       id="path4718"
       style="fill:#000000;fill-opacity:1;fill-rule:nonzero;stroke:none" />
    <path
       d="m 505.96263,198.80855 c -4.70502,0 -8.33391,-1.30217 -10.88666,-3.90652 -2.55521,-2.60435 -3.83281,-6.03177 -3.83281,-10.2798 l 0,-22.76101 8.1177,0 0,22.22786 c 0,2.63137 0.59457,4.64114 1.78373,6.03422 1.1867,1.39062 2.79353,2.08593 4.81804,2.08593 1.92132,0 3.47656,-0.69531 4.66571,-2.08593 1.1867,-1.39308 1.78373,-3.40285 1.78373,-6.03422 l 0,-22.22786 8.19387,0 0,22.76101 c 0,4.24803 -1.26532,7.67545 -3.7935,10.2798 -2.53064,2.60435 -6.14479,3.90652 -10.84981,3.90652"
       id="path4722"
       style="fill:#000000;fill-opacity:1;fill-rule:nonzero;stroke:none" />
    <path
       d="m 551.29424,177.59443 c 1.43976,0.37837 2.68051,0.96312 3.71734,1.74442 1.03682,0.78622 1.85744,1.81076 2.46675,3.07362 0.60687,1.26532 0.90907,2.85741 0.90907,4.77873 0,3.59203 -1.40537,6.41259 -4.21118,8.45921 -2.80827,2.04908 -6.58703,3.07362 -11.34365,3.07362 -5.56249,0 -10.49355,-1.67071 -14.79318,-5.00722 l 3.11293,-6.44944 c 1.97292,1.66825 3.90652,2.89672 5.80327,3.68048 1.89675,0.78376 3.80579,1.17687 5.72711,1.17687 5.05636,0 7.587,-1.64369 7.587,-4.93352 0,-2.32425 -1.39062,-3.58957 -4.17187,-3.7935 l -5.38805,-0.45453 c -8.04153,-0.656 -12.06107,-4.12027 -12.06107,-10.39528 0,-3.43724 1.27515,-6.15461 3.83035,-8.15455 2.55276,-1.99748 6.0072,-2.99745 10.35351,-2.99745 2.1277,0 4.31437,0.34151 6.56492,1.02454 2.25055,0.68302 4.36105,1.60683 6.33397,2.76896 l -2.65349,5.91874 c -1.87218,-1.21372 -3.68048,-2.04908 -5.4249,-2.50361 -1.74442,-0.45453 -3.35126,-0.68303 -4.8205,-0.68303 -4.04411,0 -6.06616,1.54296 -6.06616,4.6264 0,2.17684 1.51592,3.41514 4.55023,3.7198 l 5.31189,0.53069 c 1.66825,0.15233 3.22349,0.41768 4.66571,0.79605"
       id="path4726"
       style="fill:#000000;fill-opacity:1;fill-rule:nonzero;stroke:none" />
    <path
       d="m 574.3427,199.00487 c -2.93358,-0.60686 -5.01951,-1.8083 -6.26026,-3.60432 -1.23829,-1.79601 -1.85744,-4.21118 -1.85744,-7.24549 l 0,-26.32601 8.19386,0 0,27.00904 c 0,0.96066 0.20147,1.77145 0.60687,2.42745 0.40293,0.65846 1.11053,1.24075 2.12524,1.74688 l -2.80827,5.99245 z"
       id="path4730"
       style="fill:#000000;fill-opacity:1;fill-rule:nonzero;stroke:none" />
    <path
       d="m 582.58938,180.06093 c 0,-6.01948 1.36605,-10.6336 4.0957,-13.84726 2.73211,-3.21121 6.95557,-4.81559 12.67285,-4.81559 2.27512,0 4.34877,0.39066 6.21849,1.17442 1.87219,0.78621 3.61661,1.78373 5.23572,2.99745 l -3.18664,6.37328 c -1.31691,-1.21372 -2.70508,-2.17438 -4.17186,-2.88444 -1.46679,-0.70759 -2.83284,-1.06139 -4.09571,-1.06139 -3.03676,0 -5.23572,1.03682 -6.60177,3.11047 -1.36605,2.07611 -2.04908,5.05882 -2.04908,8.95306 0,3.89424 0.68303,6.87941 2.04908,8.95306 1.36605,2.07365 3.56501,3.11047 6.60177,3.11047 1.26287,0 2.62892,-0.3538 4.09571,-1.06385 1.46678,-0.7076 2.85495,-1.66826 4.17186,-2.88198 l 3.18664,6.37328 c -1.61911,1.21372 -3.36353,2.21369 -5.23572,2.995 -1.86972,0.78621 -3.94337,1.17687 -6.21849,1.17687 -5.71728,0 -9.94074,-1.60438 -12.67285,-4.81804 -2.72965,-3.21121 -4.0957,-7.82533 -4.0957,-13.84481"
       id="path4734"
       style="fill:#000000;fill-opacity:1;fill-rule:nonzero;stroke:none" />
  </g>
  <g
     transform="matrix(0.99720733,0,0,0.99720733,0.89365789,8.502687)"
     id="g4585">
    <path
       d="m 65.149949,161.39686 c 2.174384,0 4.159584,0.34151 5.9556,1.02454 1.796017,0.68303 3.338969,1.64369 4.628858,2.88198 1.289889,1.24075 2.287402,2.73211 2.994999,4.47653 0.707596,1.74688 1.063851,3.68048 1.063851,5.80573 l 0,22.75855 -8.1177,0 0,-22.22786 c 0,-2.63137 -0.594577,-4.64114 -1.783732,-6.03176 -1.189154,-1.39063 -2.768961,-2.08839 -4.741876,-2.08839 -1.972915,0 -3.555179,0.69776 -4.741876,2.08839 -1.189155,1.39062 -1.783732,3.40039 -1.783732,6.03176 l 0,22.22786 -8.193864,0 0,-22.22786 c 0,-2.63137 -0.594578,-4.64114 -1.781275,-6.03176 -1.189155,-1.39063 -2.795988,-2.08839 -4.818042,-2.08839 -1.972915,0 -3.555178,0.69776 -4.741876,2.08839 -1.189155,1.39062 -1.783732,3.40039 -1.783732,6.03176 l 0,22.22786 -8.117699,0 0,-22.75855 c 0,-4.25049 1.262862,-7.67546 3.793501,-10.28226 2.528182,-2.60435 6.147241,-3.90652 10.849806,-3.90652 2.174384,0 4.248034,0.55772 6.220949,1.66826 1.972916,1.11299 3.415134,2.83529 4.324198,5.15955 0.859926,-2.37585 2.275118,-4.10799 4.248034,-5.19641 1.972915,-1.08842 4.147299,-1.6314 6.525608,-1.6314"
       id="path4738"
       style="fill:#000000;fill-opacity:1;fill-rule:nonzero;stroke:none" />
    <path
       d="m 102.10292,198.72377 c -2.682968,0 -4.93106,-0.27763 -6.751646,-0.8329 -1.823042,-0.55772 -3.314399,-1.35377 -4.476528,-2.39059 -1.164585,-1.03683 -1.999941,-2.25055 -2.503612,-3.64363 -0.506128,-1.38817 -0.759192,-2.91884 -0.759192,-4.58955 0,-1.71739 0.253064,-3.27263 0.759192,-4.66325 0.503671,-1.39308 1.339027,-2.58224 2.503612,-3.56747 1.162129,-0.98523 2.653486,-1.74442 4.476528,-2.27511 1.820586,-0.53316 4.068678,-0.79851 6.751646,-0.79851 0.7076,0 1.50364,0.0393 2.39059,0.11548 0.8845,0.0737 1.73214,0.16461 2.54047,0.26535 0.91152,0.10073 1.82059,0.20147 2.73211,0.3022 l 0,-1.66826 c 0,-4.60183 -2.57978,-6.90397 -7.73933,-6.90397 -1.46679,0 -2.93358,0.22604 -4.400368,0.68303 -1.466788,0.45453 -3.16207,1.39062 -5.08339,2.80581 l -2.72965,-5.99245 c 1.616661,-1.16213 3.488842,-2.14982 5.614087,-2.95815 2.122788,-0.80833 4.348768,-1.21618 6.675481,-1.21618 5.10796,0 9.01448,1.12773 11.72202,3.37582 2.70508,2.25301 4.05885,5.5281 4.05885,9.82773 l 0,10.01445 c 0,3.18418 -0.50613,5.71482 -1.51839,7.58454 -1.01225,1.87218 -2.30214,3.28983 -3.86966,4.25049 -1.56752,0.96066 -3.27509,1.57981 -5.12025,1.85744 -1.84761,0.27763 -3.60431,0.41768 -5.27257,0.41768 m 0,-6.59932 c 2.73211,0 4.69028,-0.57 5.87944,-1.70756 1.18915,-1.13756 1.78373,-2.92129 1.78373,-5.34874 l 0,-2.19895 c -0.85993,-0.15233 -1.94835,-0.27764 -3.26281,-0.38083 -1.31691,-0.10073 -2.78124,-0.15233 -4.40036,-0.15233 -2.326713,0 -3.958116,0.4054 -4.894206,1.21373 -0.936091,0.81078 -1.402908,2.02451 -1.402908,3.64362 0,3.28738 2.098219,4.93106 6.297114,4.93106"
       id="path4742"
       style="fill:#000000;fill-opacity:1;fill-rule:nonzero;stroke:none" />
    <path
       d="m 145.42844,169.97031 c -1.01226,-0.656 -1.96063,-1.14984 -2.84513,-1.47907 -0.88449,-0.32923 -1.60683,-0.49385 -2.16209,-0.49385 -2.02206,0 -3.62889,0.69532 -4.81805,2.08594 -1.18915,1.39308 -1.78127,3.40285 -1.78127,6.03176 l 0,22.23031 -8.19387,0 0,-22.761 c 0,-4.24804 1.27515,-7.67545 3.83036,-10.2798 2.55275,-2.60435 6.20866,-3.90898 10.96283,-3.90898 1.16212,0 2.45201,0.24078 3.86966,0.72234 1.41519,0.48156 2.78125,1.17441 4.0957,2.08593 l -2.95814,5.76642 z"
       id="path4746"
       style="fill:#000000;fill-opacity:1;fill-rule:nonzero;stroke:none" />
    <path
       d="m 162.87756,198.72377 c -2.68297,0 -4.93106,-0.27763 -6.75165,-0.8329 -1.82304,-0.55772 -3.3144,-1.35377 -4.47652,-2.39059 -1.16459,-1.03683 -1.99995,-2.25055 -2.50362,-3.64363 -0.50612,-1.38817 -0.75919,-2.91884 -0.75919,-4.58955 0,-1.71739 0.25307,-3.27263 0.75919,-4.66325 0.50367,-1.39308 1.33903,-2.58224 2.50362,-3.56747 1.16212,-0.98523 2.65348,-1.74442 4.47652,-2.27511 1.82059,-0.53316 4.06868,-0.79851 6.75165,-0.79851 0.7076,0 1.50364,0.0393 2.39059,0.11548 0.88204,0.0737 1.73214,0.16461 2.54047,0.26535 0.91152,0.10073 1.82059,0.20147 2.73211,0.3022 l 0,-1.66826 c 0,-4.60183 -2.57978,-6.90397 -7.73933,-6.90397 -1.46679,0 -2.93358,0.22604 -4.40037,0.68303 -1.46679,0.45453 -3.16207,1.39062 -5.08339,2.80581 l -2.72965,-5.99245 c 1.61666,-1.16213 3.48884,-2.14982 5.61409,-2.95815 2.12279,-0.80833 4.34877,-1.21618 6.67548,-1.21618 5.10796,0 9.01448,1.12773 11.72202,3.37582 2.70508,2.25301 4.05885,5.5281 4.05885,9.82773 l 0,10.01445 c 0,3.18418 -0.50613,5.71482 -1.51839,7.58454 -1.01225,1.87218 -2.30214,3.28983 -3.86966,4.25049 -1.56752,0.96066 -3.27509,1.57981 -5.12025,1.85744 -1.84761,0.27763 -3.60431,0.41768 -5.27257,0.41768 m 0,-6.59932 c 2.73211,0 4.69028,-0.57 5.87944,-1.70756 1.18669,-1.13756 1.78373,-2.92129 1.78373,-5.34874 l 0,-2.19895 c -0.86239,-0.15233 -1.94835,-0.27764 -3.26281,-0.38083 -1.31691,-0.10073 -2.78124,-0.15233 -4.40036,-0.15233 -2.32671,0 -3.95812,0.4054 -4.89421,1.21373 -0.93609,0.81078 -1.4029,2.02451 -1.4029,3.64362 0,3.28738 2.09822,4.93106 6.29711,4.93106"
       id="path4750"
       style="fill:#000000;fill-opacity:1;fill-rule:nonzero;stroke:none" />
    <path
       d="m 209.42239,177.59443 c 1.44222,0.37837 2.68051,0.96312 3.71734,1.74442 1.03682,0.78622 1.85989,1.81076 2.46675,3.07362 0.60687,1.26532 0.90907,2.85741 0.90907,4.77873 0,3.59203 -1.40291,6.41259 -4.21118,8.45921 -2.80582,2.04908 -6.58703,3.07362 -11.34119,3.07362 -5.56495,0 -10.49601,-1.67071 -14.79564,-5.00722 l 3.11293,-6.44944 c 1.97046,1.66825 3.90652,2.89672 5.80327,3.68048 1.89675,0.78376 3.80579,1.17687 5.72711,1.17687 5.05636,0 7.587,-1.64369 7.587,-4.93352 0,-2.32425 -1.39062,-3.58957 -4.17187,-3.7935 l -5.38805,-0.45453 c -8.04153,-0.656 -12.06353,-4.12027 -12.06353,-10.39528 0,-3.43724 1.27761,-6.15461 3.83281,-8.15455 2.55276,-1.99748 6.00474,-2.99745 10.35597,-2.99745 2.12279,0 4.31191,0.34151 6.56246,1.02454 2.25055,0.68302 4.36351,1.60683 6.33397,2.76896 l -2.65595,5.91874 c -1.86972,-1.21372 -3.67802,-2.04908 -5.42244,-2.50361 -1.74688,-0.45453 -3.35371,-0.68303 -4.81804,-0.68303 -4.04657,0 -6.06862,1.54296 -6.06862,4.6264 0,2.17684 1.51592,3.41514 4.55023,3.7198 l 5.31189,0.53069 c 1.66825,0.15233 3.22349,0.41768 4.66571,0.79605"
       id="path4754"
       style="fill:#000000;fill-opacity:1;fill-rule:nonzero;stroke:none" />
    <path
       d="m 235.2553,198.72377 c -3.48884,0 -6.24798,-0.98523 -8.27003,-2.95814 -2.02205,-1.97292 -2.98763,-4.47653 -2.98763,-7.51084 l 0,-26.41938 18.2378,0 0,6.54035 -10.09061,0 0,19.95519 c 0,1.16213 0.3022,2.07365 0.90906,2.72965 0.60686,0.65846 1.34148,0.98769 2.20141,0.98769 0.85993,0 1.68054,-0.10074 2.4643,-0.30466 0.78622,-0.20147 1.5061,-0.42996 2.16456,-0.68303 0.75673,-0.3022 1.49135,-0.656 2.19895,-1.06139 l 2.42745,5.99245 c -0.85993,0.50613 -1.76899,0.96312 -2.73211,1.36606 -0.85992,0.35625 -1.84515,0.67074 -2.95814,0.94837 -1.11299,0.27763 -2.30215,0.41768 -3.56501,0.41768"
       id="path4758"
       style="fill:#000000;fill-opacity:1;fill-rule:nonzero;stroke:none" />
  </g>
  <metadata
     id="metadata4728">
    <rdf:RDF>
      <cc:Work
         rdf:about="">
        <dc:title></dc:title>
        <dc:format>image/svg+xml</dc:format>
        <dc:type
           rdf:resource="http://purl.org/dc/dcmitype/StillImage" />
      </cc:Work>
    </rdf:RDF>
  </metadata>
  <path
     d="m 388.31331,106.34296 c -0.14742,-0.28746 -0.29483,-0.57492 -0.44225,-0.86238 0.027,0.29237 0.16953,0.58475 0.44225,0.86238 m -68.20218,47.105 c -0.0123,-0.007 -0.0246,-0.01 -0.0393,-0.0172 0.01,0.0246 0.0196,0.0491 0.0295,0.0737 0.002,-0.0197 0.007,-0.0369 0.01,-0.0565 m 13.99301,-41.79827 c -0.0319,0.11793 -0.0762,0.22358 -0.10319,0.34888 m 3.59055,4.83473 c -1.35076,3.04529 -4.5914,5.35485 -8.00959,4.84261 -0.0937,-3.18011 3.38112,-4.89499 6.10858,-5.25214 3.16377,0.45326 -0.41754,-2.47336 -0.94735,-3.86407 -1.24626,-1.60804 -2.72677,-3.98548 -4.25985,-5.89706 -4.20282,-5.58883 -8.71395,-10.943305 -13.46121,-16.076775 -7.7205,7.71968 -15.44099,15.439355 -23.16149,23.159035 4.3062,4.71887 8.37173,9.66091 12.11021,14.84232 1.28822,-2.09342 3.16895,0.90643 1.16459,1.6314 1.70012,1.98992 2.92716,5.17967 4.73285,6.55102 2.8044,-1.19178 6.17358,-0.37396 8.74411,-2.22775 2.57032,-1.62344 2.6268,2.93142 -0.0481,2.34006 -1.32158,-0.0582 -4.4875,0.95437 -3.25354,2.28928 2.30078,0.24434 3.61721,-2.05577 5.65849,-2.47004 3.59877,-0.92213 7.68488,-1.55193 10.08653,-4.70498 1.95627,-2.218 5.01734,-1.38537 7.46938,-0.85379 1.45564,-0.34873 5.50667,-0.76609 3.90845,-2.72486 -2.11231,-3.95768 -4.4018,-7.82018 -6.84203,-11.5843 m -40.04552,-4.80821 c 0.52238,-2.32777 4.70791,-0.0839 2.0092,0.9916 -0.74876,0.19783 -1.95419,-0.0302 -2.0092,-0.9916 z m 4.89175,8.80809 c 0.51464,-2.89122 2.92444,-5.80971 6.10302,-5.46913 0.33059,2.78321 -2.29148,4.54539 -4.71588,5.04894 -0.46206,0.14112 -0.92619,0.27544 -1.38714,0.42019 z m 6.94329,1.89674 c -1.19271,-1.88694 2.75798,-2.16691 0.99567,-0.27653 -0.27798,0.21961 -0.64498,0.31544 -0.99567,0.27653 z m 14.26003,-16.38772 c 2.04775,2.82258 -3.67785,2.18747 -0.88992,0.0497 l 0.40242,-0.0825 0.4875,0.0328 z m -3.10802,15.54254 c 0.77129,1.86073 -2.76202,1.78634 -0.88644,0.13635 0.26095,-0.16748 0.58956,-0.17759 0.88644,-0.13635 z m -5.26275,-27.984435 c 2.68103,-0.68733 -0.17465,3.46514 -0.37501,0.80495 l 0.17241,-0.44013 0.2026,-0.36482 z m -2.52572,27.775595 c -1.21716,-1.83573 2.39263,-2.21985 0.90328,-0.29195 -0.23865,0.22441 -0.579,0.32959 -0.90328,0.29195 z m -0.50859,-15.87177 c -0.37049,-3.52278 5.38344,-1.70769 2.81364,0.82458 -0.89239,0.74116 -2.61259,0.46424 -2.81364,-0.82458 z m 3.6682,26.18105 c 0.3349,-2.83265 5.54496,-3.13046 6.65866,-2.03224 -0.88566,2.5644 -4.48502,2.64192 -6.65866,2.03224 z m 6.94083,1.4717 c -1.51298,-1.23813 0.87599,-3.49049 1.39523,-1.21526 -0.0507,0.68698 -0.69679,1.2742 -1.39523,1.21526 z m 83.14595,24.85141 c -7.05537,0.0857 2.27111,-2.42401 -1.28874,-6.44177 -1.22734,-7.90051 -4.58735,-13.41545 -5.75324,-20.45314 -0.86585,-2.48718 -6.45163,4.40682 -10.60502,2.15553 -5.92123,-0.27456 -5.69216,0.19758 -3.00596,-3.47601 -3.10673,-0.13983 -12.5891,6.46482 -11.40968,2.10428 5.56383,-3.22748 13.88766,-2.92042 17.92696,-5.19879 -1.82038,-2.97211 6.66524,-4.89826 1.74465,-9.35546 -2.98366,-4.97038 -5.04427,-14.81453 -9.43827,-16.26488 -1.85322,4.64525 -9.79827,3.35017 -4.75645,-0.91973 9.75575,-2.121165 -2.73244,-11.586705 -4.49371,-17.119215 -6.55665,-9.93439 -13.8175,-19.3961 -21.59222,-28.40617 -7.73933,7.73933 -15.47867,15.47866 -23.218,23.21799 6.56055,7.74715 12.68884,15.86714 18.22306,24.380135 4.08915,-3.278835 11.51593,-7.376855 15.15621,-7.119115 -3.48371,3.08431 -11.66471,6.443905 -13.75946,9.300305 2.88345,5.14313 7.48272,11.63496 9.06486,15.87725 0.11212,4.58451 5.05206,4.42983 5.70434,6.36971 -5.35217,-1.59332 0.051,8.71545 3.48919,6.81167 4.80024,2.47192 -4.4796,5.55141 0.78322,9.1107 -1.60929,3.92829 13.97936,-0.9619 4.74548,3.14786 -7.18025,-0.46219 -1.82873,11.07891 1.87456,12.9679 -1.54381,2.373 -3.25582,5.01376 1.43742,2.79333 7.19395,-2.09448 4.73671,3.12386 -1.12564,1.9414 -0.61994,4.21917 9.98972,-1.9e-4 11.74907,-2.70644 1.25996,9.45429 -17.41568,0.56932 -12.53644,10.66054 1.45042,11.44728 1.44691,23.07704 -0.0209,34.52241 8.97394,7.2e-4 19.33126,0.9925 27.7068,2.15719 -6.54408,1.80554 -14.36227,-0.97952 -21.37468,1.15261 -5.05869,-0.35444 -8.01536,-1.49577 -7.61218,4.8657 -2.32695,12.57745 -6.30852,24.82561 -11.55741,36.48171 4.9513,-0.92866 2.39097,4.06056 -0.6732,1.46925 -5.25109,8.90122 10.86447,11.23761 16.84399,14.12401 4.09774,1.87964 10.75862,9.90232 12.44465,0.75585 4.57024,-9.78851 8.3911,-19.93229 11.3146,-30.33396 -5.3155,0.77513 -3.23613,-5.56157 0.53316,-1.99011 6.76665,-24.87044 8.09708,-51.20481 3.47901,-76.58253 z M 342.00042,85.666635 c 1.32993,4.42793 -4.99138,-0.46725 0,0 z m 13.3829,-7.83515 c -6.49331,-4.20889 7.39227,-4.59053 0,0 z m -0.13267,-13.62614 c 6.15417,-7.22252 5.61799,8.16916 0,0 z m 5.89417,45.480245 c -3.77442,-5.04915 6.2277,-2.97859 0,0 z m 1.89184,5.67797 c -1.78417,-3.09369 3.76688,-1.473 0,0 z m 12.83501,-5.26275 c -1.99012,-3.15928 4.22214,-1.47998 0,0 z m 0.84272,-11.569685 c -6.18268,8.736315 -8.26675,-7.41658 -0.0437,-1.42893 l 0.0437,1.42893 z m -4.00234,7.574715 c -0.86074,-2.71795 2.88029,-0.87566 0,0 z m -2.94094,18.93802 c 1.9799,-4.58778 14.5107,-1.59062 4.33065,-0.4619 -1.42978,0.25383 -2.87606,0.45104 -4.33065,0.4619 z m 2.10067,23.14184 c 3.1854,-4.04189 3.3283,3.20317 0,0 z m 7.78847,6.94574 c 1.26804,-4.90636 4.64387,1.62565 0,0 z m 3.15962,5.46667 c 1.15196,-4.86239 7.15068,1.35595 0,0 z m 12.62125,-6.0981 c -0.6483,-4.38996 4.33781,-1.10868 0,0 z m -2.31443,-7.99977 c 2.52562,-6.23168 6.42323,3.49843 0,0 z m 2.52573,-5.25537 c -1.18396,4.14878 -5.29626,-1.60294 0,0 z m -7.99486,1.47415 c 2.60963,-5.25095 8.42142,0.70547 0,0 z m 1.4717,19.98959 c 0.0849,-3.94516 3.88708,0.8019 0,0 z m -2.53063,15.98479 c -4.98948,4.33481 -6.21426,-3.47206 0,0 z m -4.20627,-3.99251 c 0.95767,2.36937 -2.78411,1.1579 0,0 z m -4.62886,15.56712 c 3.58996,-3.21941 18.73965,0.91887 6.81443,0.78705 -2.21309,0.3064 -5.07575,1.19548 -6.81443,-0.78705 z m 14.93814,4.21118 c -2.83399,-0.32565 -14.68229,-0.0439 -6.61343,-2.2966 1.42,1.20596 9.53279,-1.03409 6.61343,2.2966 z m 1.89429,-5.26029 c 4.4915,-3.62834 4.27731,3.94561 0,0 z m -10.51566,27.5643 c -5.98049,3.50973 -1.90704,-5.93125 0,0 z m 3.99743,22.93546 c -5.41994,4.17335 -8.2093,-7.58315 -1.06226,-2.4629 0.6698,0.53201 1.6377,1.49989 1.06226,2.4629 z m -7.36588,4.42002 c -8.98547,-0.34752 3.02732,-4.11451 0,0 z m -1.25795,-16.6236 c -2.07574,5.69083 -12.54531,-2.1282 -3.85554,-1.88877 1.31326,0.26706 3.27925,0.42127 3.85554,1.88877 z m -3.15961,9.04642 c -3.01015,1.27253 0.13971,-2.59323 0,0 z m -8.20615,10.31174 c 8.45818,2.00429 -3.61426,8.09928 0,0 z m -0.84273,8.62628 c -2.22887,0.37295 0.45854,-2.28323 0,0 z m 5.46667,5.89172 c 0.21256,-3.82503 3.21883,1.11094 0,0 z m 12.84238,2.10068 c -4.01698,5.21977 -11.35858,-6.16843 -2.80551,-3.74713 1.47886,0.47247 3.655,1.85953 2.80551,3.74713 z m 4.6264,-8.20124 c -6.61638,0.54223 -13.4803,2.31984 -20.20088,-1.68299 -4.27879,-2.63035 8.61338,-1.43287 10.48925,-3.11773 1.64402,2.31849 11.23807,1.9325 9.71163,4.80072 z m 3.78859,-36.40189 c -3.38084,1.62227 -7.92931,7.06717 -11.36331,2.31197 4.49141,-0.76424 3.91328,-1.67718 3.85162,-5.46185 2.29845,-2.15406 7.60961,-0.13416 7.51169,3.14988 z m 0.84027,11.57215 c -1.7294,-2.96173 3.85872,-0.81015 0,0 z m 1.47416,-3.57975 c -4.21797,-4.83642 5.46745,-1.39116 0,0 z m 2.10287,-97.2146 c -0.0319,-0.1769 -0.10565,-0.31449 -0.20393,-0.42996 0.059,0.16461 0.11548,0.32677 0.17445,0.49138 0.007,-0.0221 0.0221,-0.0393 0.0295,-0.0614 m -126.88132,86.27288 c -1.22358,-5.27205 -5.35874,1.3232 0,0 z m 25.66977,-69.85618 c 1.57321,-0.67481 -2.24622,-3.03792 -0.28673,-0.13367 l 0.28673,0.13371 m -9.46901,7.9953 c 3.69722,-1.32786 9.80241,-3.0097 11.19869,-6.0118 -2.66738,0.2848 -9.80649,1.89881 -11.19869,6.0118 z m -14.93545,-4.84139 c 3.19507,-3.71171 8.03325,-4.51772 11.54651,-7.57381 4.18496,-0.0785 -0.0251,3.36945 -2.10584,3.39602 2.07073,1.89102 7.4029,-3.16002 10.63706,-4.341 2.87194,-1.08853 -2.72142,-5.28589 -3.6832,-7.5726 -2.24664,-2.368 -4.56937,-6.77389 -7.08029,-7.62538 -2.49461,2.49461 -4.98922,4.98922 -7.48383,7.48383 2.19185,4.11498 0.39896,8.95582 -4.62554,9.10021 -1.96176,1.73385 -6.23906,3.85883 -6.32262,1.85021 -1.45612,1.45536 -2.91223,2.91072 -4.36834,4.36608 2.36539,3.24838 4.72884,6.82971 8.72418,3.36458 1.54326,-0.90631 3.1813,-1.61647 4.76191,-2.44814 z m 7.57226,-10.72942 c 0.90618,3.2844 -3.41355,0.82935 0,0 z m 2.31272,21.46057 c -2.26025,1.46355 -11.23862,2.89005 -6.48558,6.49864 3.21832,1.54848 4.41615,-5.78956 7.11701,-1.23344 2.90077,-0.65397 10.77612,-0.69543 9.81353,-3.94556 -2.88173,-0.56451 -8.1683,3.92144 -9.25549,0.43854 1.98755,0.43003 6.81494,0.28141 2.51612,-1.72355 -0.97003,-0.78384 -2.52172,-0.0223 -3.70559,-0.0346 z m 19.57018,1.05622 c -1.95065,1.53161 -8.64262,1.34588 -7.04568,3.86122 3.03859,0.42809 8.90251,-0.115 10.13773,-1.95011 -0.66493,-2.74216 -0.56437,-2.18449 -3.09205,-1.91111 z m -16.62382,57.02022 c -0.49631,-3.52647 -6.23757,-1.52334 -1.68823,-0.11566 l 0.62246,0.0862 1.06577,0.0294 z m -2.5218,-3.78786 c 0.3659,-4.77206 3.825,0.0255 6.45896,-1.51074 3.28814,1.20943 3.82864,-2.80588 0.33296,-2.33662 -4.28827,-0.31431 -7.63989,-2.60989 -11.78411,-3.02962 -2.75436,-2.02023 -7.14587,-1.4072 -5.67471,2.29239 3.24488,2.1507 6.89111,3.66116 10.6669,4.58459 z m -6.10056,-5.68288 c 0.2428,2.07535 -2.10524,-0.16422 0,0 z m -4.9e-4,-60.38792 c -3.64675,0.005 0.16406,2.41019 0,0 z m 4.62591,4.41952 c 2.84087,-3.72196 7.85877,-3.36621 10.70757,-6.12317 3.79409,-3.07624 -1.40684,-5.20917 -2.908,-1.38713 -2.75867,1.836 -7.37391,2.04401 -10.58003,4.32858 -4.10686,2.30736 -10.67945,4.26973 -13.06723,7.17362 2.34771,7.37148 8.22093,-0.48137 12.6371,-2.08133 1.08536,-0.61072 2.16613,-1.23145 3.21059,-1.91057 z m 9.46901,-7.36342 c 1.0172,2.63711 -2.98194,0.0471 0,0 z m 4.41805,86.05695 c 1.90915,-1.23349 5.24817,-3.35175 1.07959,-4.03662 -4.5254,-2.52198 -7.74592,-8.05556 -13.39323,-8.17191 -5.30993,2.82398 9.86162,3.56429 2.38173,6.10009 -2.7973,3.91488 5.72154,6.20429 8.69348,7.61643 1.68288,1.48393 3.61581,-0.74392 1.23843,-1.50799 z m -4.20872,-3.99743 c -3.8094,0.76857 -3.96603,-3.99432 0,-2.52081 0.9872,1.61571 7.51014,4.80161 2.19987,3.55364 -0.69917,-0.40663 -1.41292,-0.81762 -2.19987,-1.03283 z m 17.06535,-51.85843 c 0.0364,-4.213 -1.652,-7.74394 -5.61118,-3.93196 -3.78598,3.12344 -8.03876,-0.56329 -11.87522,1.79776 -3.20422,0.39593 1.61845,-3.68617 -2.72255,-2.40169 -3.07017,-0.45666 -8.25919,1.64974 -3.43363,3.78267 -0.50945,3.01256 -5.72575,0.4371 -7.89105,2.78751 -2.63154,-0.85965 -1.07751,5.45106 1.34739,3.14664 9.87492,-2.65499 20.17257,-3.19146 30.18624,-5.18098 m -1.91467,26.39829 c -3.016,1.71085 -9.68115,-0.58951 -10.18436,3.33106 -2.89269,1.30538 -2.77414,-4.16316 -5.5458,-5.25027 0.88427,-5.64902 7.69117,-1.45852 11.29778,-1.21115 2.95945,0.34959 7.32732,3.70888 6.79933,-1.50636 0.47564,-3.96924 0.63368,-7.97489 0.49046,-11.96968 -1.50689,-4.50686 -6.0228,1.24335 -8.11524,-1.69773 -6.00664,0.72048 -12.06478,0.28181 -18.0953,0.42013 2.38979,3.34743 -3.79548,5.7391 -6.47647,4.05394 -1.09628,3.67124 5.01952,3.20459 4.58222,7.30691 2.96907,3.1124 5.90882,6.472 9.83501,8.05381 0.22199,6.11267 10.85181,1.65249 12.25525,8.36094 -3.78667,0.21131 -8.16465,0.42306 -8.96744,4.75853 -1.54314,0.7453 -0.5719,-4.09316 -3.1944,-1.34785 -1.57035,0.39586 -8.10299,-2.84878 -5.34007,0.30881 4.72585,0.84542 8.4836,3.60642 13.01062,5.20639 4.54266,3.48524 4.62634,-3.68548 6.21051,-6.589 0.71445,-3.63267 3.58927,-8.50215 2.09455,-11.52211 l -0.65661,-0.70637 m 0,-14.518 c 0.80835,2.49974 -2.80691,1.0778 0,0 z m -2.52327,6.31185 c 2.71157,2.86782 -4.18396,1.98115 0,0 z m -9.04887,-5.04899 c 0.95283,3.54772 -3.90143,0.76342 0,0 z m -3.15716,6.52561 c -3.71466,-3.41083 4.18224,-2.18289 0.62454,0.0465 l -0.62454,-0.0465 z m -6.52315,-4.21118 c -0.9838,-2.98737 3.2396,-0.7572 0,0 z m 13.46644,27.77806 c -1.24605,-2.44292 2.58253,-0.87787 0,0 z m -30.72029,0.62874 c -0.57072,4.35354 8.02507,2.39589 2.89764,0.21437 -0.91763,-0.34807 -1.93882,-0.43256 -2.89764,-0.21437 z m -0.84247,13.25318 c -4.37648,-3.00344 3.89554,-4.72756 6.52561,-3.78614 3.11356,-5.4348 -8.29681,-6.66356 -11.30488,-3.67756 -3.19705,1.14242 -1.93632,3.95509 0.78184,1.57197 1.32241,2.0317 -1.14868,4.0708 2.13866,5.69385 0.74973,0.45779 1.58074,2.5323 1.85877,0.19788 z m 21.88805,1.68496 c 0.96757,1.49931 5.11166,4.76374 0.64355,3.57135 -2.68955,-2.42165 -4.61736,-1.05754 -5.62671,1.65812 -1.67617,-1.2289 -1.79929,-4.64573 -2.22885,-6.64742 -3.06785,0.80129 -4.53665,-7.44924 -6.40605,-2.36104 5.1513,2.69013 -4.89913,3.21268 -0.45626,5.64539 4.03223,0.57738 0.85091,4.83545 -0.72254,0.936 -1.6929,-2.47485 -8.62392,-3.51421 -4.41531,-0.15006 4.47127,4.47199 8.94254,8.94399 13.41381,13.41599 4.25203,-4.58172 8.07839,-9.55555 11.45421,-14.81529 -1.51974,-0.32813 -4.90536,-3.74173 -5.65585,-1.25304 z m -10.94317,5.05145 c 3.69778,-1.95816 2.06477,4.3959 0.0169,0.71391 l -0.0169,-0.71391 z m 2.94586,3.366 c 2.95678,-1.88402 7.42347,3.95297 2.05246,2.4296 -0.97904,-0.43296 -2.00603,-1.26679 -2.05246,-2.4296 z m 16.19903,-86.90287 c -3.58898,0.0826 -5.32798,4.6315 -1.79149,4.80251 1.75214,-3.87906 10.73491,-1.04144 6.54319,-6.36757 -1.62962,0.3697 -3.1881,0.98756 -4.7517,1.56506 z m 11.36527,23.36025 c -3.05822,1.85459 -1.49605,-3.9214 -4.29874,-0.94081 -2.11859,0.53011 -8.21782,-0.14276 -4.96143,2.62626 -3.64998,2.86548 -4.60434,-2.46786 -8.43525,-0.4172 -2.4336,-0.56335 -9.17538,2.46106 -3.56771,2.27836 6.74749,0.23381 13.55906,0.19274 20.27514,-0.11691 3.37016,0.36261 -0.15086,-9.16801 0.98799,-3.42969 m 69.4368,100.57518 c 0.99521,0.70608 0.80996,2.59953 2.69218,2.78309 2.28386,2.37478 2.80426,-2.12941 4.07678,-3.53801 0.50354,-1.75867 3.273,-4.3592 2.13688,-5.58141 -3.07643,-1.36577 -6.15102,-2.96744 -8.4857,-5.44711 -2.38965,0.25998 -5.97134,0.38636 -7.02361,-2.18027 -2.11101,-2.15535 -5.54166,-1.61878 -8.2625,-2.56775 -2.38546,-0.96588 -6.9101,0.28379 -5.00546,3.5468 0.90075,1.46345 3.42598,0.37187 4.21658,2.67905 2.03275,3.31425 4.68225,-1.57146 7.06527,0.52064 2.07377,1.52127 -1.75131,4.89837 1.64875,4.94727 0.0214,1.84228 2.08249,4.77445 -1.34343,3.63629 -3.59513,-0.66886 -6.19741,-3.54299 -9.59728,-4.69277 2.30012,-3.318 -4.39329,-6.69629 -5.20804,-2.51559 -1.10845,1.15147 -4.02667,-1.77334 -4.40102,1.30924 1.06311,0.82243 4.27307,2.84524 1.01625,2.46031 -2.91804,-2.19637 -3.5438,2.47123 -5.2727,4.13442 -0.043,0.4401 2.40186,2.40129 0.17611,2.48332 -2.20052,-2.12805 -3.47179,2.5724 -1.85918,4.14817 2.2406,2.96711 -2.17071,2.01498 -3.51475,0.75617 -2.94946,4.00074 -6.03604,7.90099 -9.26754,11.67779 7.74834,7.74752 15.49668,15.49505 23.24502,23.24257 10.01482,-11.39562 18.92312,-23.76513 26.55205,-36.87853 -2.06037,-0.45543 -5.34534,-2.45355 -3.58466,-4.92369 z m -27.98444,-2.52327 c 1.65434,1.18755 5.55195,-2.32591 4.64143,0.68924 -0.96583,1.96615 -2.82154,4.64251 -4.8966,1.99288 -0.61945,-0.80341 -0.52797,-2.01589 0.25517,-2.68212 z m 5.8868,23.77572 c -3.15017,0.33245 -6.43529,-2.5008 -6.59541,-5.68036 1.8275,-1.96039 6.86187,0.58071 7.67235,3.3551 0.24926,0.89195 -0.0536,2.09614 -1.07694,2.32526 z m 2.95078,-21.25245 c 1.53388,-0.35336 5.58518,-2.82404 4.51852,0.61949 -0.99346,1.80675 -4.6049,2.03782 -4.51852,-0.61949 z m 9.25771,3.78858 c -3.08397,0.99035 -5.61651,-4.90326 -1.29917,-3.45186 1.22234,0.52207 2.53128,2.2708 1.29917,3.45186 z m 7.36834,4.84262 c -1.94744,0.40338 -5.63424,-2.07908 -3.78218,-3.81215 1.95513,-0.83093 5.42775,1.75628 3.78218,3.81215 z m 1.25795,-12.41979 c -1.72819,1.29178 -5.72835,-1.794 -2.29574,-2.04485 0.92698,0.19742 2.40682,0.90373 2.29574,2.04485 z m -45.24045,-21.03697 c -0.23648,-1.99418 0.74498,-5.17291 -1.55238,-6.05077 -3.38021,-1.88225 -7.17982,-2.69393 -10.78264,-4.01527 -1.27926,-0.37726 -3.99223,-1.07774 -4.51538,-0.22038 2.29999,2.50382 6.14456,2.38622 8.64425,4.60108 0.43861,1.57348 1.33012,2.53407 2.97319,2.46126 2.31279,2.19389 -1.28918,2.60245 -2.26869,0.70827 -1.28149,-1.72604 -3.55996,-2.01695 -5.23444,-1.50631 -1.75418,-1.52846 -5.86441,-1.18365 -5.66196,-4.14092 0.53382,-2.0087 -4.10775,-3.94128 -2.6651,-1.23475 -0.10157,2.08429 -2.83907,-0.8135 -3.03958,1.33662 -3.76031,5.38586 -7.89532,10.51816 -12.44903,15.25506 7.7164,7.71477 15.4328,15.42953 23.1492,23.14429 6.12539,-6.28528 11.65861,-13.13725 16.64571,-20.35567 -3.43987,-0.10301 -6.53023,-1.78388 -9.55255,-3.25298 -0.66004,1.03449 -2.83404,2.36788 -2.89727,0.23946 0.72641,-1.2612 2.77114,-1.87298 1.21098,-3.44529 0.61459,-2.83039 4.92556,-1.62207 6.83403,-0.51482 2.15122,1.01028 4.39378,2.18681 6.84454,2.03766 -0.32865,1.14572 -0.19779,2.03889 0.49341,0.53517 0.59574,-0.97517 1.70958,-1.97357 -0.075,-2.09373 -2.14413,-1.00813 -0.15429,-2.83462 1.37557,-1.58681 1.05117,1.34237 1.90194,-1.82418 2.34008,-2.59464 -2.30098,-1.52152 -5.09813,-0.13386 -7.45691,0.55575 -0.76257,0.20663 -1.58187,0.36867 -2.36007,0.13772 z m -30.08757,12.62371 c -0.0598,-2.03042 2.04753,-0.006 0,0 z m 1.26286,-11.99473 c 0.84425,-2.11568 3.87685,0.66243 1.2948,1.13786 -0.62453,-0.0118 -1.23572,-0.49454 -1.2948,-1.13786 z m 10.30928,5.47158 c -0.42926,-2.14568 2.85771,-0.95362 0.92341,0.34024 -0.33514,0.17053 -0.75617,-0.0243 -0.92341,-0.34024 z m 7.57472,-5.26275 c -1.33414,2.32018 -3.88499,-2.13892 -0.88805,-1.67124 0.74086,0.10326 1.25245,0.99648 0.88805,1.67124 z m -1.2636,-23.56294 c 0.20147,0.91643 1.19653,1.30708 1.89429,0.62897 0.25798,-1.25058 -1.44959,-1.28498 -1.89429,-0.62897 m -1.0528,-0.20959 c 0.15233,-0.64863 -0.21621,-0.76902 -0.20884,-1.26286 -0.2678,-0.22113 -0.56264,-0.3538 -0.86975,-0.45208 -0.33169,0.68549 -0.66583,1.3636 -1.00489,2.02943 0.73708,-0.11547 1.46188,-0.28009 2.08348,-0.31449 m 27.98666,11.35816 c -2.19884,-2.489 -6.5429,-2.35074 -7.99731,-5.049 1.956,-0.001 4.29236,-0.0496 2.78719,-3.12209 -0.89464,-4.15 -4.74739,-4.43577 -7.77149,-6.04442 1.15766,-3.35622 6.60537,0.7659 9.19736,1.59259 2.98255,0.54748 6.99475,2.75867 8.99792,2.78746 0.78943,-2.88399 3.42654,-7.60565 2.68984,-9.44554 -3.23458,0.71891 -9.72761,2.72004 -9.75307,-1.7296 -1.88011,-2.9711 -2.36261,-8.8159 2.96304,-7.28876 3.53664,-0.2197 9.1872,7.78064 9.4944,0.99333 1.08596,-4.64392 1.91167,-9.34943 2.45071,-14.08835 -4.42845,0.10093 -8.00183,-3.27995 -12.3986,-3.55364 -4.64166,-4.75614 7.21591,-4.71269 6.2833,-10.1806 1.91131,-4.12312 7.30029,-7.26405 5.98262,-12.29644 0.27781,-3.20162 -0.80652,-6.86874 -1.20144,-9.90685 -0.0315,-3.18799 -1.61055,-5.28455 -3.1522,-7.34775 1.93968,-3.0729 -0.72589,-6.528 -1.40326,-9.77644 -1.59958,-2.76459 -1.25882,-8.2446 -5.26209,-7.79254 -2.27094,-2.07767 3.00372,-2.98205 -0.0574,-5.38472 -0.77072,-3.87549 -3.1248,-4.9084 -6.47836,-3.04647 -3.66068,4.23812 -9.21189,2.53896 -13.65604,5.46496 -3.65587,1.85468 -7.06827,2.79784 -10.22594,5.49357 -3.6931,1.57839 1.84701,6.20506 2.14492,9.30031 1.44741,3.41478 2.73463,6.99321 3.79636,10.58301 1.45736,1.41232 -0.095,5.56391 3.79872,4.5696 5.4105,0.96087 -5.08261,3.26422 -0.96864,5.07692 -1.29804,2.67587 0.65008,5.31458 3.76064,3.72594 4.93603,0.24476 -1.06825,-5.4163 3.23024,-5.19202 4.20912,1.7221 4.85724,7.84979 10.34747,6.00726 2.24675,0.36489 9.28817,-1.91073 8.13784,1.3738 -4.43068,0.33945 -9.50709,-1.3523 -13.72129,1.23808 -2.3195,-0.25453 -4.17617,0.14657 -4.64423,2.43818 -1.52933,-1.2837 -6.05404,-2.85882 -6.6351,-2.20537 1.41108,3.68194 -1.65312,10.19492 2.04914,11.85531 3.7531,2.03499 -0.71998,4.03499 -2.05314,3.95811 -0.33087,2.62342 -1.08107,4.62806 2.12419,2.98263 3.25399,-1.08034 7.38652,3.37214 2.18722,3.67329 -1.86134,0.47081 -7.16244,-1.98588 -4.41411,0.98604 1.8169,1.87413 4.61519,2.88473 6.35829,4.08536 -2.41965,4.65965 -9.37522,-3.22359 -8.99489,3.44329 -1.26546,2.27935 -0.26729,2.90816 0.11463,4.45649 -3.54278,1.62349 -3.2891,7.67654 -5.64733,11.03384 2.74801,0.11384 3.83107,1.49325 2.29232,3.71241 4.70728,0.8252 10.31804,-0.52085 14.17549,2.90933 1.67368,1.59462 0.86296,4.26758 -1.12186,1.92303 -2.58284,2.36242 -8.39969,-2.43298 -9.14049,0.72969 2.22967,3.46514 8.0544,2.24461 9.5533,6.42533 -4.52995,1.00123 -7.84083,-2.32508 -11.98583,-3.32053 -3.7175,1.2637 3.35358,4.56375 5.24647,5.63495 2.44515,-2.70956 5.73836,2.59633 7.36587,-1.26286 3.3949,0.4792 7.43579,4.58296 9.65542,4.58224 0.19253,-1.37934 3.43456,-4.50025 1.49905,-5.00237 m -24.19831,-92.58207 c 2.62783,-4.4969 9.28384,-3.21716 13.34435,-5.57196 2.79545,-2.62224 4.40746,1.69702 0.48692,1.39347 -4.83355,0.77771 -8.55522,5.1971 -13.83127,4.17849 z m 13.04384,-0.84027 c -1.61999,-3.78828 3.98668,-0.45504 0,0 z m -7.15212,13.04385 c -0.049,-4.33905 4.68063,0.99653 0,0 z m 4.4151,6.10302 c 1.1245,-3.38131 8.24422,-0.10873 2.80244,1.04357 -0.97714,0.11964 -2.36835,0.0378 -2.80244,-1.04357 z m 1.68791,-12.62371 c 4.20999,0.34759 -0.95216,5.60547 -0.96987,1.35039 l 0.33614,-0.8096 0.63373,-0.54079 z m 3.99743,14.30916 c 0.48234,-3.53038 9.15447,-5.57642 7.4419,-0.81479 -1.9454,1.56094 -5.25826,2.22603 -7.4419,0.81479 z m 2.73948,-13.6802 c -2.82902,2.26662 -3.66932,-0.54816 -5.05145,-2.31197 -3.74208,1.2233 -7.83908,3.88552 -11.8177,2.56547 -0.87879,-4.85942 6.84014,-2.38445 9.06809,-5.41919 3.94821,-2.23873 7.71118,1.88685 11.79603,1.16827 -0.0459,2.30789 4.9746,1.88356 1.06395,3.38529 -1.66858,0.34216 -3.38776,0.28777 -5.05892,0.61214 z m 7.77864,-4.41756 c -0.56865,-3.87265 5.0652,-0.7402 1.51565,0.69714 -1.04639,0.61754 -0.82296,-0.59426 -1.51565,-0.69714 z m 1.26286,20.40972 c -2.86801,-2.84185 3.71137,-4.62339 2.06772,-0.64467 -0.41066,0.69495 -1.35348,0.82395 -2.06772,0.64467 z m 1.26287,14.73176 c 0.47026,5.00961 -8.48776,1.74797 -3.40961,-0.99383 1.19369,-0.28644 2.59241,0.0379 3.40961,0.99383 z m -8.83513,-7.57718 c 3.94015,2.84711 -5.99709,1.91438 0,0 z m -0.21375,32.61576 c 1.66895,4.14669 -5.10376,0.71146 0,0 z m -2.94095,-3.99988 c -3.02325,3.52577 -5.28966,-4.34807 -0.58243,-1.97452 0.67293,0.36179 1.01548,1.29326 0.58243,1.97452 z m -9.26017,-22.51532 c 2.846,-5.14647 4.36011,4.14043 0.12628,0.57079 l -0.12628,-0.57079 z m 3.36845,26.93289 c 2.78483,-0.65157 6.18686,3.47706 1.46434,2.36579 -1.50577,1.08416 -7.24578,4.15409 -7.50861,0.10278 1.15699,-0.96438 2.8115,-0.0467 4.14998,-0.36053 m 12.83255,31.13669 c -5.63737,-1.02044 1.57415,-4.1987 0.85839,-0.27568 l -0.85839,0.27568 z m -33.03206,-3.78589 c 2.75943,4.80805 2.97036,-3.44788 0.28293,-1.92804 -0.0278,0.61969 -2.07423,1.95883 -0.28293,1.92804 z m 5.89417,-4.20428 c 0.16707,-1.77636 -0.67566,-2.995 -2.0196,-3.93846 -0.61669,1.14247 -1.2432,2.25055 -1.87218,3.33897 1.12773,0.63143 2.38077,1.06385 3.89178,0.59949"
     id="path4714-0"
     style="fill:#000000;fill-opacity:1;fill-rule:nonzero;stroke:none" />
</svg>
