<svg xmlns="http://www.w3.org/2000/svg" width="640" height="360"><defs><clipPath><path d="M304.529 120.89h254.621v110.218h-254.621v-110.218z"/></clipPath></defs><g><path d="M467.972 169.449c2.168 0 4.148.341 5.941 1.022 1.789.681 3.327 1.639 4.613 2.874 1.286 1.237 2.281 2.724 2.987 4.464.706 1.742 1.061 3.67 1.061 5.79v22.695h-8.095v-22.166c0-2.624-.595-4.628-1.779-6.015-1.186-1.387-2.761-2.083-4.729-2.083-1.967 0-3.545.696-4.729 2.083-1.186 1.387-1.779 3.391-1.779 6.015v22.166h-8.171v-22.166c0-2.624-.593-4.628-1.779-6.015-1.183-1.387-2.786-2.083-4.802-2.083-1.967 0-3.545.696-4.729 2.083-1.186 1.387-1.779 3.391-1.779 6.015v22.166h-8.095v-22.695c0-4.239 1.262-7.654 3.783-10.254 2.521-2.597 6.13-3.896 10.82-3.896 2.168 0 4.236.556 6.204 1.664 1.967 1.11 3.406 2.827 4.312 5.145.858-2.369 2.269-4.097 4.236-5.182 1.97-1.085 4.136-1.627 6.507-1.627"/><path d="M505.443 206.756c-4.692 0-8.311-1.299-10.856-3.896-2.548-2.597-3.822-6.015-3.822-10.251v-22.697h8.095v22.166c0 2.624.593 4.628 1.779 6.017 1.183 1.387 2.786 2.08 4.805 2.08 1.916 0 3.467-.693 4.653-2.08 1.183-1.389 1.779-3.393 1.779-6.017v-22.166h8.171v22.697c0 4.236-1.262 7.654-3.783 10.251-2.524 2.597-6.128 3.896-10.82 3.896"/><path d="M550.648 185.601c1.436.377 2.673.96 3.707 1.74 1.034.784 1.852 1.806 2.46 3.065.605 1.262.907 2.849.907 4.765 0 3.582-1.401 6.395-4.199 8.436-2.8 2.043-6.569 3.065-11.312 3.065-5.547 0-10.464-1.666-14.752-4.993l3.104-6.431c1.967 1.664 3.896 2.889 5.787 3.67 1.891.782 3.795 1.174 5.711 1.174 5.042 0 7.566-1.639 7.566-4.92 0-2.318-1.387-3.58-4.16-3.783l-5.373-.453c-8.019-.654-12.027-4.109-12.027-10.366 0-3.428 1.272-6.137 3.82-8.132 2.546-1.992 5.99-2.989 10.325-2.989 2.122 0 4.302.341 6.547 1.022 2.244.681 4.349 1.602 6.316 2.761l-2.646 5.902c-1.867-1.21-3.67-2.043-5.41-2.497-1.74-.453-3.342-.681-4.807-.681-4.033 0-6.049 1.539-6.049 4.613 0 2.171 1.512 3.406 4.538 3.709l5.297.529c1.664.152 3.214.417 4.653.794"/><path d="M573.632 206.952c-2.925-.605-5.005-1.803-6.243-3.594-1.235-1.791-1.852-4.199-1.852-7.225v-26.252h8.171v26.934c0 .958.201 1.767.605 2.421.402.657 1.107 1.237 2.119 1.742l-2.8 5.976z"/><path d="M581.856 188.061c0-6.003 1.362-10.604 4.084-13.809 2.724-3.202 6.936-4.802 12.637-4.802 2.269 0 4.337.39 6.201 1.171 1.867.784 3.607 1.779 5.221 2.989l-3.178 6.355c-1.313-1.21-2.698-2.168-4.16-2.876-1.463-.706-2.825-1.058-4.084-1.058-3.028 0-5.221 1.034-6.583 3.102-1.362 2.07-2.043 5.045-2.043 8.928 0 3.883.681 6.86 2.043 8.928 1.362 2.068 3.555 3.102 6.583 3.102 1.259 0 2.622-.353 4.084-1.061 1.463-.706 2.847-1.664 4.16-2.874l3.178 6.355c-1.615 1.21-3.354 2.208-5.221 2.987-1.864.784-3.932 1.174-6.201 1.174-5.701 0-9.913-1.6-12.637-4.805-2.722-3.202-4.084-7.803-4.084-13.806"/></g><g><path d="M65.862 169.449c2.168 0 4.148.341 5.939 1.022 1.791.681 3.33 1.639 4.616 2.874 1.286 1.237 2.281 2.724 2.987 4.464.706 1.742 1.061 3.67 1.061 5.79v22.695h-8.095v-22.166c0-2.624-.593-4.628-1.779-6.015-1.186-1.387-2.761-2.083-4.729-2.083-1.967 0-3.545.696-4.729 2.083-1.186 1.387-1.779 3.391-1.779 6.015v22.166h-8.171v-22.166c0-2.624-.593-4.628-1.776-6.015-1.186-1.387-2.788-2.083-4.805-2.083-1.967 0-3.545.696-4.729 2.083-1.186 1.387-1.779 3.391-1.779 6.015v22.166h-8.095v-22.695c0-4.239 1.259-7.654 3.783-10.254 2.521-2.597 6.13-3.896 10.82-3.896 2.168 0 4.236.556 6.204 1.664 1.967 1.11 3.406 2.827 4.312 5.145.858-2.369 2.269-4.097 4.236-5.182 1.967-1.085 4.136-1.627 6.507-1.627"/><path d="M102.711 206.671c-2.675 0-4.917-.277-6.733-.831-1.818-.556-3.305-1.35-4.464-2.384-1.161-1.034-1.994-2.244-2.497-3.633-.505-1.384-.757-2.911-.757-4.577 0-1.713.252-3.263.757-4.65.502-1.389 1.335-2.575 2.497-3.558 1.159-.982 2.646-1.74 4.464-2.269 1.816-.532 4.057-.796 6.733-.796.706 0 1.499.039 2.384.115.882.073 1.727.164 2.533.265l2.724.301v-1.664c0-4.589-2.573-6.885-7.718-6.885-1.463 0-2.925.225-4.388.681-1.463.453-3.153 1.387-5.069 2.798l-2.722-5.976c1.612-1.159 3.479-2.144 5.598-2.95 2.117-.806 4.337-1.213 6.657-1.213 5.094 0 8.989 1.125 11.689 3.366 2.698 2.247 4.048 5.513 4.048 9.8v9.986c0 3.175-.505 5.699-1.514 7.563-1.009 1.867-2.296 3.281-3.859 4.239-1.563.958-3.266 1.575-5.106 1.852-1.842.277-3.594.417-5.258.417m0-6.581c2.724 0 4.677-.568 5.863-1.703 1.186-1.134 1.779-2.913 1.779-5.334v-2.193c-.858-.152-1.943-.277-3.254-.38-1.313-.1-2.773-.152-4.388-.152-2.32 0-3.947.404-4.881 1.21-.933.809-1.399 2.019-1.399 3.633 0 3.278 2.092 4.917 6.28 4.917"/><path d="M145.916 177.998c-1.009-.654-1.955-1.147-2.837-1.475-.882-.328-1.602-.492-2.156-.492-2.016 0-3.619.693-4.805 2.08-1.186 1.389-1.776 3.393-1.776 6.015v22.168h-8.171v-22.697c0-4.236 1.272-7.654 3.82-10.251 2.546-2.597 6.191-3.898 10.932-3.898 1.159 0 2.445.24 3.859.72 1.411.48 2.773 1.171 4.084 2.08l-2.95 5.75z"/><path d="M163.316 206.671c-2.675 0-4.917-.277-6.733-.831-1.818-.556-3.305-1.35-4.464-2.384-1.161-1.034-1.994-2.244-2.497-3.633-.505-1.384-.757-2.911-.757-4.577 0-1.713.252-3.263.757-4.65.502-1.389 1.335-2.575 2.497-3.558 1.159-.982 2.646-1.74 4.464-2.269 1.816-.532 4.057-.796 6.733-.796.706 0 1.499.039 2.384.115.88.073 1.727.164 2.533.265l2.724.301v-1.664c0-4.589-2.573-6.885-7.718-6.885-1.463 0-2.925.225-4.388.681-1.463.453-3.153 1.387-5.069 2.798l-2.722-5.976c1.612-1.159 3.479-2.144 5.598-2.95 2.117-.806 4.337-1.213 6.657-1.213 5.094 0 8.989 1.125 11.689 3.366 2.698 2.247 4.048 5.513 4.048 9.8v9.986c0 3.175-.505 5.699-1.514 7.563-1.009 1.867-2.296 3.281-3.859 4.239-1.563.958-3.266 1.575-5.106 1.852-1.842.277-3.594.417-5.258.417m0-6.581c2.724 0 4.677-.568 5.863-1.703 1.183-1.134 1.779-2.913 1.779-5.334v-2.193c-.86-.152-1.943-.277-3.254-.38-1.313-.1-2.773-.152-4.388-.152-2.32 0-3.947.404-4.881 1.21-.933.809-1.399 2.019-1.399 3.633 0 3.278 2.092 4.917 6.28 4.917"/><path d="M209.731 185.601c1.438.377 2.673.96 3.707 1.74 1.034.784 1.855 1.806 2.46 3.065.605 1.262.907 2.849.907 4.765 0 3.582-1.399 6.395-4.199 8.436-2.798 2.043-6.569 3.065-11.31 3.065-5.549 0-10.467-1.666-14.754-4.993l3.104-6.431c1.965 1.664 3.896 2.889 5.787 3.67 1.891.782 3.795 1.174 5.711 1.174 5.042 0 7.566-1.639 7.566-4.92 0-2.318-1.387-3.58-4.16-3.783l-5.373-.453c-8.019-.654-12.03-4.109-12.03-10.366 0-3.428 1.274-6.137 3.822-8.132 2.546-1.992 5.988-2.989 10.327-2.989 2.117 0 4.3.341 6.544 1.022 2.244.681 4.351 1.602 6.316 2.761l-2.649 5.902c-1.864-1.21-3.668-2.043-5.407-2.497-1.742-.453-3.344-.681-4.805-.681-4.035 0-6.052 1.539-6.052 4.613 0 2.171 1.512 3.406 4.538 3.709l5.297.529c1.664.152 3.214.417 4.653.794"/><path d="M235.492 206.671c-3.479 0-6.231-.982-8.247-2.95-2.016-1.967-2.979-4.464-2.979-7.49v-26.346h18.187v6.522h-10.062v19.899c0 1.159.301 2.068.907 2.722.605.657 1.338.985 2.195.985.858 0 1.676-.1 2.457-.304.784-.201 1.502-.429 2.159-.681.755-.301 1.487-.654 2.193-1.058l2.421 5.976c-.858.505-1.764.96-2.724 1.362-.858.355-1.84.669-2.95.946-1.11.277-2.296.417-3.555.417"/></g><path d="M388.313 106.343l-.442-.862c.027.292.17.585.442.862m-68.202 47.105l-.039-.017.029.074.01-.057m13.993-41.798l-.103.349m3.591 4.835c-1.351 3.045-4.591 5.355-8.01 4.843-.094-3.18 3.381-4.895 6.109-5.252 3.164.453-.418-2.473-.947-3.864-1.246-1.608-2.727-3.985-4.26-5.897-4.203-5.589-8.714-10.943-13.461-16.077-7.721 7.72-15.441 15.439-23.161 23.159 4.306 4.719 8.372 9.661 12.11 14.842 1.288-2.093 3.169.906 1.165 1.631 1.7 1.99 2.927 5.18 4.733 6.551 2.804-1.192 6.174-.374 8.744-2.228 2.57-1.623 2.627 2.931-.048 2.34-1.322-.058-4.487.954-3.254 2.289 2.301.244 3.617-2.056 5.658-2.47 3.599-.922 7.685-1.552 10.087-4.705 1.956-2.218 5.017-1.385 7.469-.854 1.456-.349 5.507-.766 3.908-2.725-2.112-3.958-4.402-7.82-6.842-11.584m-40.046-4.808c.522-2.328 4.708-.084 2.009.992-.749.198-1.954-.03-2.009-.992zm4.892 8.808c.515-2.891 2.924-5.81 6.103-5.469.331 2.783-2.291 4.545-4.716 5.049l-1.387.42zm6.943 1.897c-1.193-1.887 2.758-2.167.996-.277-.278.22-.645.315-.996.277zm14.26-16.388c2.048 2.823-3.678 2.187-.89.05l.402-.083.487.033zm-3.108 15.543c.771 1.861-2.762 1.786-.886.136.261-.167.59-.178.886-.136zm-5.263-27.984c2.681-.687-.175 3.465-.375.805l.172-.44.203-.365zm-2.526 27.776c-1.217-1.836 2.393-2.22.903-.292-.239.224-.579.33-.903.292zm-.509-15.872c-.37-3.523 5.383-1.708 2.814.825-.892.741-2.613.464-2.814-.825zm3.668 26.181c.335-2.833 5.545-3.13 6.659-2.032-.886 2.564-4.485 2.642-6.659 2.032zm6.941 1.472c-1.513-1.238.876-3.49 1.395-1.215-.051.687-.697 1.274-1.395 1.215zm83.146 24.851c-7.055.086 2.271-2.424-1.289-6.442-1.227-7.901-4.587-13.415-5.753-20.453-.866-2.487-6.452 4.407-10.605 2.156-5.921-.275-5.692.198-3.006-3.476-3.107-.14-12.589 6.465-11.41 2.104 5.564-3.227 13.888-2.92 17.927-5.199-1.82-2.972 6.665-4.898 1.745-9.355-2.984-4.97-5.044-14.815-9.438-16.265-1.853 4.645-9.798 3.35-4.756-.92 9.756-2.121-2.732-11.587-4.494-17.119-6.557-9.934-13.818-19.396-21.592-28.406l-23.218 23.218c6.561 7.747 12.689 15.867 18.223 24.38 4.089-3.279 11.516-7.377 15.156-7.119-3.484 3.084-11.665 6.444-13.759 9.3 2.883 5.143 7.483 11.635 9.065 15.877.112 4.585 5.052 4.43 5.704 6.37-5.352-1.593.051 8.715 3.489 6.812 4.8 2.472-4.48 5.551.783 9.111-1.609 3.928 13.979-.962 4.745 3.148-7.18-.462-1.829 11.079 1.875 12.968-1.544 2.373-3.256 5.014 1.437 2.793 7.194-2.094 4.737 3.124-1.126 1.941-.62 4.219 9.99 0 11.749-2.706 1.26 9.454-17.416.569-12.536 10.661 1.45 11.447 1.447 23.077-.021 34.522 8.974.001 19.331.993 27.707 2.157-6.544 1.806-14.362-.98-21.375 1.153-5.059-.354-8.015-1.496-7.612 4.866-2.327 12.577-6.309 24.826-11.557 36.482 4.951-.929 2.391 4.061-.673 1.469-5.251 8.901 10.864 11.238 16.844 14.124 4.098 1.88 10.759 9.902 12.445.756 4.57-9.789 8.391-19.932 11.315-30.334-5.316.775-3.236-5.562.533-1.99 6.767-24.87 8.097-51.205 3.479-76.583zm-63.991-72.642c1.33 4.428-4.991-.467 0 0zm13.383-7.835c-6.493-4.209 7.392-4.591 0 0zm-.133-13.626c6.154-7.223 5.618 8.169 0 0zm5.894 45.48c-3.774-5.049 6.228-2.979 0 0zm1.892 5.678c-1.784-3.094 3.767-1.473 0 0zm12.835-5.263c-1.99-3.159 4.222-1.48 0 0zm.843-11.57c-6.183 8.736-8.267-7.417-.044-1.429l.044 1.429zm-4.002 7.575c-.861-2.718 2.88-.876 0 0zm-2.941 18.938c1.98-4.588 14.511-1.591 4.331-.462-1.43.254-2.876.451-4.331.462zm2.101 23.142c3.185-4.042 3.328 3.203 0 0zm7.788 6.946c1.268-4.906 4.644 1.626 0 0zm3.16 5.467c1.152-4.862 7.151 1.356 0 0zm12.621-6.098c-.648-4.39 4.338-1.109 0 0zm-2.314-8c2.526-6.232 6.423 3.498 0 0zm2.526-5.255c-1.184 4.149-5.296-1.603 0 0zm-7.995 1.474c2.61-5.251 8.421.705 0 0zm1.472 19.99c.085-3.945 3.887.802 0 0zm-2.531 15.985c-4.989 4.335-6.214-3.472 0 0zm-4.206-3.993c.958 2.369-2.784 1.158 0 0zm-4.629 15.567c3.59-3.219 18.74.919 6.814.787-2.213.306-5.076 1.195-6.814-.787zm14.938 4.211c-2.834-.326-14.682-.044-6.613-2.297 1.42 1.206 9.533-1.034 6.613 2.297zm1.894-5.26c4.492-3.628 4.277 3.946 0 0zm-10.516 27.564c-5.98 3.51-1.907-5.931 0 0zm3.997 22.935c-5.42 4.173-8.209-7.583-1.062-2.463.67.532 1.638 1.5 1.062 2.463zm-7.366 4.42c-8.985-.348 3.027-4.115 0 0zm-1.258-16.624c-2.076 5.691-12.545-2.128-3.856-1.889 1.313.267 3.279.421 3.856 1.889zm-3.16 9.046c-3.01 1.273.14-2.593 0 0zm-8.206 10.312c8.458 2.004-3.614 8.099 0 0zm-.843 8.626c-2.229.373.459-2.283 0 0zm5.467 5.892c.213-3.825 3.219 1.111 0 0zm12.842 2.101c-4.017 5.22-11.359-6.168-2.806-3.747 1.479.472 3.655 1.86 2.806 3.747zm4.626-8.201c-6.616.542-13.48 2.32-20.201-1.683-4.279-2.63 8.613-1.433 10.489-3.118 1.644 2.318 11.238 1.933 9.712 4.801zm3.789-36.402c-3.381 1.622-7.929 7.067-11.363 2.312 4.491-.764 3.913-1.677 3.852-5.462 2.298-2.154 7.61-.134 7.512 3.15zm.84 11.572c-1.729-2.962 3.859-.81 0 0zm1.474-3.58c-4.218-4.836 5.467-1.391 0 0zm2.103-97.215c-.032-.177-.106-.314-.204-.43l.174.491.029-.061m-126.881 86.273c-1.224-5.272-5.359 1.323 0 0zm25.67-69.856c1.573-.675-2.246-3.038-.287-.134l.287.134m-9.469 7.995c3.697-1.328 9.802-3.01 11.199-6.012-2.667.285-9.806 1.899-11.199 6.012zm-14.935-4.841c3.195-3.712 8.033-4.518 11.547-7.574 4.185-.079-.025 3.369-2.106 3.396 2.071 1.891 7.403-3.16 10.637-4.341 2.872-1.089-2.721-5.286-3.683-7.573-2.247-2.368-4.569-6.774-7.08-7.625l-7.484 7.484c2.192 4.115.399 8.956-4.626 9.1-1.962 1.734-6.239 3.859-6.323 1.85l-4.368 4.366c2.365 3.248 4.729 6.83 8.724 3.365 1.543-.906 3.181-1.616 4.762-2.448zm7.572-10.729c.906 3.284-3.414.829 0 0zm2.313 21.461c-2.26 1.464-11.239 2.89-6.486 6.499 3.218 1.548 4.416-5.79 7.117-1.233 2.901-.654 10.776-.695 9.814-3.946-2.882-.565-8.168 3.921-9.255.439 1.988.43 6.815.281 2.516-1.724-.97-.784-2.522-.022-3.706-.035zm19.57 1.056c-1.951 1.532-8.643 1.346-7.046 3.861 3.039.428 8.903-.115 10.138-1.95-.665-2.742-.564-2.184-3.092-1.911zm-16.624 57.02c-.496-3.526-6.238-1.523-1.688-.116l.622.086 1.066.029zm-2.522-3.788c.366-4.772 3.825.025 6.459-1.511 3.288 1.209 3.829-2.806.333-2.337-4.288-.314-7.64-2.61-11.784-3.03-2.754-2.02-7.146-1.407-5.675 2.292 3.245 2.151 6.891 3.661 10.667 4.585zm-6.101-5.683c.243 2.075-2.105-.164 0 0zm0-60.388c-3.647.005.164 2.41 0 0zm4.626 4.42c2.841-3.722 7.859-3.366 10.708-6.123 3.794-3.076-1.407-5.209-2.908-1.387-2.759 1.836-7.374 2.044-10.58 4.329-4.107 2.307-10.679 4.27-13.067 7.174 2.348 7.371 8.221-.481 12.637-2.081 1.085-.611 2.166-1.231 3.211-1.911zm9.469-7.363c1.017 2.637-2.982.047 0 0zm4.418 86.057c1.909-1.233 5.248-3.352 1.08-4.037-4.525-2.522-7.746-8.056-13.393-8.172-5.31 2.824 9.862 3.564 2.382 6.1-2.797 3.915 5.722 6.204 8.693 7.616 1.683 1.484 3.616-.744 1.238-1.508zm-4.209-3.997c-3.809.769-3.966-3.994 0-2.521.987 1.616 7.51 4.802 2.2 3.554-.699-.407-1.413-.818-2.2-1.033zm17.065-51.858c.036-4.213-1.652-7.744-5.611-3.932-3.786 3.123-8.039-.563-11.875 1.798-3.204.396 1.618-3.686-2.723-2.402-3.07-.457-8.259 1.65-3.434 3.783-.509 3.013-5.726.437-7.891 2.788-2.632-.86-1.078 5.451 1.347 3.147 9.875-2.655 20.173-3.191 30.186-5.181m-1.915 26.398c-3.016 1.711-9.681-.59-10.184 3.331-2.893 1.305-2.774-4.163-5.546-5.25.884-5.649 7.691-1.459 11.298-1.211 2.959.35 7.327 3.709 6.799-1.506.476-3.969.634-7.975.49-11.97-1.507-4.507-6.023 1.243-8.115-1.698-6.007.72-12.065.282-18.095.42 2.39 3.347-3.795 5.739-6.476 4.054-1.096 3.671 5.02 3.205 4.582 7.307 2.969 3.112 5.909 6.472 9.835 8.054.222 6.113 10.852 1.652 12.255 8.361-3.787.211-8.165.423-8.967 4.759-1.543.745-.572-4.093-3.194-1.348-1.57.396-8.103-2.849-5.34.309 4.726.845 8.484 3.606 13.011 5.206 4.543 3.485 4.626-3.685 6.211-6.589.714-3.633 3.589-8.502 2.095-11.522l-.657-.706m0-14.518c.808 2.5-2.807 1.078 0 0zm-2.523 6.312c2.712 2.868-4.184 1.981 0 0zm-9.049-5.049c.953 3.548-3.901.763 0 0zm-3.157 6.526c-3.715-3.411 4.182-2.183.625.046l-.625-.046zm-6.523-4.211c-.984-2.987 3.24-.757 0 0zm13.466 27.778c-1.246-2.443 2.583-.878 0 0zm-30.72.629c-.571 4.354 8.025 2.396 2.898.214-.918-.348-1.939-.433-2.898-.214zm-.842 13.253c-4.376-3.003 3.896-4.728 6.526-3.786 3.114-5.435-8.297-6.664-11.305-3.678-3.197 1.142-1.936 3.955.782 1.572 1.322 2.032-1.149 4.071 2.139 5.694.75.458 1.581 2.532 1.859.198zm21.888 1.685c.968 1.499 5.112 4.764.644 3.571-2.69-2.422-4.617-1.058-5.627 1.658-1.676-1.229-1.799-4.646-2.229-6.647-3.068.801-4.537-7.449-6.406-2.361 5.151 2.69-4.899 3.213-.456 5.645 4.032.577.851 4.835-.723.936-1.693-2.475-8.624-3.514-4.415-.15l13.414 13.416c4.252-4.582 8.078-9.556 11.454-14.815-1.52-.328-4.905-3.742-5.656-1.253zm-10.943 5.051c3.698-1.958 2.065 4.396.017.714l-.017-.714zm2.946 3.366c2.957-1.884 7.423 3.953 2.052 2.43-.979-.433-2.006-1.267-2.052-2.43zm16.199-86.903c-3.589.083-5.328 4.631-1.791 4.803 1.752-3.879 10.735-1.041 6.543-6.368-1.63.37-3.188.988-4.752 1.565zm11.365 23.36c-3.058 1.855-1.496-3.921-4.299-.941-2.119.53-8.218-.143-4.961 2.626-3.65 2.865-4.604-2.468-8.435-.417-2.434-.563-9.175 2.461-3.568 2.278 6.747.234 13.559.193 20.275-.117 3.37.363-.151-9.168.988-3.43m69.437 100.575c.995.706.81 2.6 2.692 2.783 2.284 2.375 2.804-2.129 4.077-3.538.504-1.759 3.273-4.359 2.137-5.581-3.076-1.366-6.151-2.967-8.486-5.447-2.39.26-5.971.386-7.024-2.18-2.111-2.155-5.542-1.619-8.262-2.568-2.385-.966-6.91.284-5.005 3.547.901 1.463 3.426.372 4.217 2.679 2.033 3.314 4.682-1.571 7.065.521 2.074 1.521-1.751 4.898 1.649 4.947.021 1.842 2.082 4.774-1.343 3.636-3.595-.669-6.197-3.543-9.597-4.693 2.3-3.318-4.393-6.696-5.208-2.516-1.108 1.151-4.027-1.773-4.401 1.309 1.063.822 4.273 2.845 1.016 2.46-2.918-2.196-3.544 2.471-5.273 4.134-.043.44 2.402 2.401.176 2.483-2.201-2.128-3.472 2.572-1.859 4.148 2.241 2.967-2.171 2.015-3.515.756-2.949 4.001-6.036 7.901-9.268 11.678l23.245 23.243c10.015-11.396 18.923-23.765 26.552-36.879-2.06-.455-5.345-2.454-3.585-4.924zm-27.984-2.523c1.654 1.188 5.552-2.326 4.641.689-.966 1.966-2.822 4.643-4.897 1.993-.619-.803-.528-2.016.255-2.682zm5.887 23.776c-3.15.332-6.435-2.501-6.595-5.68 1.827-1.96 6.862.581 7.672 3.355.249.892-.054 2.096-1.077 2.325zm2.951-21.252c1.534-.353 5.585-2.824 4.519.619-.993 1.807-4.605 2.038-4.519-.619zm9.258 3.789c-3.084.99-5.617-4.903-1.299-3.452 1.222.522 2.531 2.271 1.299 3.452zm7.368 4.843c-1.947.403-5.634-2.079-3.782-3.812 1.955-.831 5.428 1.756 3.782 3.812zm1.258-12.42c-1.728 1.292-5.728-1.794-2.296-2.045.927.197 2.407.904 2.296 2.045zm-45.24-21.037c-.236-1.994.745-5.173-1.552-6.051-3.38-1.882-7.18-2.694-10.783-4.015-1.279-.377-3.992-1.078-4.515-.22 2.3 2.504 6.145 2.386 8.644 4.601.439 1.573 1.33 2.534 2.973 2.461 2.313 2.194-1.289 2.602-2.269.708-1.281-1.726-3.56-2.017-5.234-1.506-1.754-1.528-5.864-1.184-5.662-4.141.534-2.009-4.108-3.941-2.665-1.235-.102 2.084-2.839-.814-3.04 1.337-3.76 5.386-7.895 10.518-12.449 15.255 7.716 7.715 15.433 15.43 23.149 23.144 6.125-6.285 11.659-13.137 16.646-20.356-3.44-.103-6.53-1.784-9.553-3.253-.66 1.034-2.834 2.368-2.897.239.726-1.261 2.771-1.873 1.211-3.445.615-2.83 4.926-1.622 6.834-.515 2.151 1.01 4.394 2.187 6.845 2.038-.329 1.146-.198 2.039.493.535.596-.975 1.71-1.974-.075-2.094-2.144-1.008-.154-2.835 1.376-1.587 1.051 1.342 1.902-1.824 2.34-2.595-2.301-1.522-5.098-.134-7.457.556-.763.207-1.582.369-2.36.138zm-30.088 12.624c-.06-2.03 2.048-.006 0 0zm1.263-11.995c.844-2.116 3.877.662 1.295 1.138-.625-.012-1.236-.495-1.295-1.138zm10.309 5.472c-.429-2.146 2.858-.954.923.34-.335.171-.756-.024-.923-.34zm7.575-5.263c-1.334 2.32-3.885-2.139-.888-1.671.741.103 1.252.996.888 1.671zm-1.264-23.563c.201.916 1.197 1.307 1.894.629.258-1.251-1.45-1.285-1.894-.629m-1.053-.21c.152-.649-.216-.769-.209-1.263-.268-.221-.563-.354-.87-.452-.332.685-.666 1.364-1.005 2.029.737-.115 1.462-.28 2.083-.314m27.987 11.358c-2.199-2.489-6.543-2.351-7.997-5.049 1.956-.001 4.292-.05 2.787-3.122-.895-4.15-4.747-4.436-7.771-6.044 1.158-3.356 6.605.766 9.197 1.593 2.983.547 6.995 2.759 8.998 2.787.789-2.884 3.427-7.606 2.69-9.446-3.235.719-9.728 2.72-9.753-1.73-1.88-2.971-2.363-8.816 2.963-7.289 3.537-.22 9.187 7.781 9.494.993 1.086-4.644 1.912-9.349 2.451-14.088-4.428.101-8.002-3.28-12.399-3.554-4.642-4.756 7.216-4.713 6.283-10.181 1.911-4.123 7.3-7.264 5.983-12.296.278-3.202-.807-6.869-1.201-9.907-.032-3.188-1.611-5.285-3.152-7.348 1.94-3.073-.726-6.528-1.403-9.776-1.6-2.765-1.259-8.245-5.262-7.793-2.271-2.078 3.004-2.982-.057-5.385-.771-3.875-3.125-4.908-6.478-3.046-3.661 4.238-9.212 2.539-13.656 5.465-3.656 1.855-7.068 2.798-10.226 5.494-3.693 1.578 1.847 6.205 2.145 9.3 1.447 3.415 2.735 6.993 3.796 10.583 1.457 1.412-.095 5.564 3.799 4.57 5.41.961-5.083 3.264-.969 5.077-1.298 2.676.65 5.315 3.761 3.726 4.936.245-1.068-5.416 3.23-5.192 4.209 1.722 4.857 7.85 10.347 6.007 2.247.365 9.288-1.911 8.138 1.374-4.431.339-9.507-1.352-13.721 1.238-2.32-.255-4.176.147-4.644 2.438-1.529-1.284-6.054-2.859-6.635-2.205 1.411 3.682-1.653 10.195 2.049 11.855 3.753 2.035-.72 4.035-2.053 3.958-.331 2.623-1.081 4.628 2.124 2.983 3.254-1.08 7.387 3.372 2.187 3.673-1.861.471-7.162-1.986-4.414.986 1.817 1.874 4.615 2.885 6.358 4.085-2.42 4.66-9.375-3.224-8.995 3.443-1.265 2.279-.267 2.908.115 4.456-3.543 1.623-3.289 7.677-5.647 11.034 2.748.114 3.831 1.493 2.292 3.712 4.707.825 10.318-.521 14.175 2.909 1.674 1.595.863 4.268-1.122 1.923-2.583 2.362-8.4-2.433-9.14.73 2.23 3.465 8.054 2.245 9.553 6.425-4.53 1.001-7.841-2.325-11.986-3.321-3.717 1.264 3.354 4.564 5.246 5.635 2.445-2.71 5.738 2.596 7.366-1.263 3.395.479 7.436 4.583 9.655 4.582.193-1.379 3.435-4.5 1.499-5.002m-24.198-92.582c2.628-4.497 9.284-3.217 13.344-5.572 2.795-2.622 4.407 1.697.487 1.393-4.834.778-8.555 5.197-13.831 4.178zm13.044-.84c-1.62-3.788 3.987-.455 0 0zm-7.152 13.044c-.049-4.339 4.681.997 0 0zm4.415 6.103c1.125-3.381 8.244-.109 2.802 1.044-.977.12-2.368.038-2.802-1.044zm1.688-12.624c4.21.348-.952 5.605-.97 1.35l.336-.81.634-.541zm3.997 14.309c.482-3.53 9.154-5.576 7.442-.815-1.945 1.561-5.258 2.226-7.442.815zm2.739-13.68c-2.829 2.267-3.669-.548-5.051-2.312-3.742 1.223-7.839 3.886-11.818 2.565-.879-4.859 6.84-2.384 9.068-5.419 3.948-2.239 7.711 1.887 11.796 1.168-.046 2.308 4.975 1.884 1.064 3.385-1.669.342-3.388.288-5.059.612zm7.779-4.418c-.569-3.873 5.065-.74 1.516.697-1.046.618-.823-.594-1.516-.697zm1.263 20.41c-2.868-2.842 3.711-4.623 2.068-.645-.411.695-1.353.824-2.068.645zm1.263 14.732c.47 5.01-8.488 1.748-3.41-.994 1.194-.286 2.592.038 3.41.994zm-8.835-7.577c3.94 2.847-5.997 1.914 0 0zm-.214 32.616c1.669 4.147-5.104.711 0 0zm-2.941-4c-3.023 3.526-5.29-4.348-.582-1.975.673.362 1.015 1.293.582 1.975zm-9.26-22.515c2.846-5.146 4.36 4.14.126.571l-.126-.571zm3.368 26.933c2.785-.652 6.187 3.477 1.464 2.366-1.506 1.084-7.246 4.154-7.509.103 1.157-.964 2.812-.047 4.15-.361m12.833 31.137c-5.637-1.02 1.574-4.199.858-.276l-.858.276zm-33.032-3.786c2.759 4.808 2.97-3.448.283-1.928-.028.62-2.074 1.959-.283 1.928zm5.894-4.204c.167-1.776-.676-2.995-2.02-3.938-.617 1.142-1.243 2.251-1.872 3.339 1.128.631 2.381 1.064 3.892.599"/></svg>