<svg xmlns="http://www.w3.org/2000/svg" width="640" height="360" viewBox="0 0 640 360"><g clip-rule="evenodd" fill-rule="evenodd"><path d="M542.07 192.245l6.781 11.05h13.304v-27.211h-12.555v11.203c-3.128-3.731-5.237-7.809-7.904-11.142h-12.466v27.151h12.532s-.037-3.718.01-5.466c.045-1.67.298-5.585.298-5.585z"/><path d="M286.865 132.299l.025.053.036.081.01.007-.071-.141z"/><path d="M215.606 147.608c.936.133 1.734-.173 2.532.308-.543 1.237.611 2.21.471 3.451-.147 1.298-.033 2.624-.033 3.938v11.716000000000001h5.222v-9.717c.548-1.436 1.095-2.271 2.107-2.906.741 0 1.644.163 2.463-.028 2.823-.662 6.31-.492 9.195.417 3.023.952 5.673 2.482 8.178 4.417.955.737 1.798 1.754 2.996 2.192 3.046-3.429 7.03-5.661 10.009-9.012h1.556l11.933 13.575h3.044v-28.09l-.928-.927v-3.793c.538-.743 1.345-.845 1.949-1.27 1.664 0 3.328-.01 4.992.002 1.685.012 3.406-.213 4.788.659 1.29 2.071 1.088 3.888-.741 5.338 0 9.357-.001 18.638.006 27.918.001.062.106.147.181.182.318.147.064-.401.276.182v-12.348c.405-.757 1.027-.852 1.614-1.129-1.562-1.485-1.677-3.373-1.553-5.276 1.176-1.977 2.585-3.686 4.499-4.993 1.691-.2 3.246.063 4.597 1.422 1.354 1.364 1.568 2.916 1.326 4.65-1.356 1.952-3.32 3.21-5.149 4.632.637.497.482 1.201.483 1.859.006 3.48.002 6.961.002 10.533 5.061 0 9.952 0 14.843-.004.075 0 .16-.045.224-.091l.197-.214c-.123-1.594-.08-3.197.736-4.85 2.229-.947 4.563-.586 6.86-.613 3.148-.037 6.298.041 9.444-.033 1.366-.031 2.481.333 3.499 1.413v4.926c1.622-.04 3.149.056 4.664-.066v-20.703l.785-.785h20.166c.654 1.476 1.127 2.862 1.121 4.393-.013 3.574-.005 7.146-.005 10.924 2.366-.478 4.529.211 6.636.641 2.92.595 5.894.505 8.234-2.213.978-1.134 2.311-1.599 3.581-2.161 1.957-.868 4.099-1.128 6.174-1.572 2.516-.541 4.852-1.588 6.875-3.021 1.572-1.114 3.256-1.889 4.903-2.805 2.107-1.172 4.485-1.001 6.708-1.572.711-.182 1.031.536 1.626.539.702.004 1.45-.163 2.095.029 3.185.949 6.321 2.048 9.371 3.372 2.478 1.074 4.808 2.447 7.017 3.979 3.094 2.143 6.391 4.026 9.025 6.796 1.703.147 3.301-.473 4.754-1.146 1.549-.718 3.305-1.354 4.214-3.044 1.577-.515 2.338-1.982 3.479-3.003 1.175-1.049 2.445-2.077 3.313-3.359 1.558-2.298 3.545-4.269 5.008-6.596 1.096-1.74 2.798-2.904 3.804-4.714 1.238-2.226 2.905-4.165 4.787-5.908 1.091-1.011 2.114-2.099 3.254-3.238 1.236.192 2.623-.37 3.874.535.941.679 1.957 1.238 2.86 1.993 1.204 1.009 2.032 2.32 2.911 3.549 1.527 2.132 3.115 4.238 4.276 6.623.997 2.044 1.872 4.229 3.269 5.977 1.479 1.853 3.229 3.537 5.254 4.93 2.445 1.682 5.025 3.136 7.74 4.177 2.308.884 4.334 2.221 6.535 3.253 1.403.658 2.609 1.734 3.919 2.601.09.06.306-.073.528-.135v-1.146c-1.466-.963-2.837-2.047-4.364-2.832-3.603-1.854-7.284-3.551-10.923-5.336-3.748-1.839-6.766-4.778-8.826-8.468-.836-1.499-1.989-2.869-2.557-4.456-.629-1.759-1.84-3.11-2.77-4.621-1.649-2.68-3.83-5.04-6.587-6.681-1.844-1.098-3.859-1.561-5.935-.47-1.517.799-2.952 1.782-3.897 3.185-.579.855-1.155 1.686-1.927 2.328-.812.675-1.151 1.654-1.814 2.426-1.536 1.787-2.943 3.692-4.402 5.543-1.926 2.443-3.613 5.074-5.84 7.279-1.496 1.479-3.074 2.886-4.439 4.478-2.16 2.521-4.947 3.854-8.21 4.81-1.382-.836-2.916-1.626-4.3-2.624-4.336-3.124-8.612-6.328-13.625-8.347-1.657-.668-3.414-1.095-5.037-1.791-1.763-.755-3.629-1.137-5.43-1.435-3.358-.555-6.702.136-9.778 1.634-2.276 1.11-4.364 2.612-6.587 3.794-2.188 1.163-4.68 1.81-7.146 2.396-2.621.623-5.239 1.275-7.349 3.222-.935.86-2.068 1.749-3.362 1.954-1.367.218-2.798.008-4.195.062-1.283.05-2.392-.851-3.732-.584-.368.073-.85-.416-1.106-.557-1.039-.981-.776-2.125-.839-3.211-.18-3.168.503-6.383-.729-9.84-.35-.56-1.23-1.056-2.433-1.585-5.372 0-11.058.045-16.743-.026-1.949-.024-3.5.368-4.264 2.815v5.323c0 1.927-.133 3.865.038 5.777.171 1.917-.838 3.667-.573 5.566.018.138-.12.296-.186.452-.415.069-.83.157-1.232-.046-.158-.814-.911-1.425-.724-2.313-.935-.894-1.722-1.932-3.014-2.311-3.679 0-7.356-.022-11.035.009-2.214.018-4.461-.32-7.066.823-1.2.812-1.097 2.915-2.259 4.401-1.743.679-5.245.818-10.629.389l-1.084-1.084v-9.63c.896-.687 1.315-1.661 2.214-2.318.86-.63 1.262-1.885 1.916-2.947v-2.746c-.597-1.671-1.777-2.564-2.881-3.713-.235 0-.66.134-.891-.022-1.461-.988-2.957-.667-4.279.074-.84.471-1.532.561-2.458.307 0-1.043.116-2.1-.038-3.116-.111-.729.5-1.018.601-1.622.464-2.799.512-2.838-.526-5.053-1.923-1.925-3.922-1.593-5.85-1.603-1.661-.008-3.321-.002-4.983-.002-.257.409-.88.396-1.032.615l-1.318.728c0 .159.073.389-.011.499-1.107 1.442-1.111 3.055-.449 4.591.279.649.575 1.243.448 1.904-.162.837.588 1.33.581 2.151-.06 6.656-.019 13.313-.048 19.967-.005 1.222-.468 2.253-1.641 2.707-3.131-2.456-5.119-5.802-7.955-8.351-.065-.058-.15-.112-.184-.187-.973-2.263-3.004-3.223-5.172-4.231-.407 1.083-1.577.516-2.362 1.251-.908.847-2.008 1.558-2.853 2.507-.863.968-2.077 1.442-2.98 2.378-1.68 1.739-3.375 1.788-5.358.396-1.876-1.316-3.73-2.621-5.956-3.384-2.04-.699-4.022-1.488-6.22-1.471-1.752.013-3.511-.095-5.254.025-2.411.166-4.401 1.001-5.296 3.586-.212.613-.228 1.16-.239 1.729-.041 2.007-.017 4.014-.017 5.99-.613.412-.872 1.169-1.391 1.267l-1.777-1.57v-14.48c-.412-.245-.38-.88-.605-1.027l-.719-1.298c-2.342-.868-2.891-.802-4.651 1.022-1.911 1.982-3.808 3.983-5.669 6.012-2.57 2.798-4.947 5.789-7.752 8.435l.52.616-1.845.579c-.499.387-1.5.093-2.274.158-2.054.175-3.633-.42-4.314-2.62 0-.98.023-2.032-.007-3.083-.031-1.067.151-2.159-.412-3.189v9.359h8.432c5.193-5.703 10.276-11.287 15.292-16.798z"/><path d="M592.683 181.74v-5.626h-25.118v27.127h25.627v-5.735h-10.355v-5.194c1.56 0 3.035.009 4.514-.002 1.448-.009 2.905.045 4.233-.032v-5.775h-8.717v-4.762c3.332-.001 6.547-.001 9.816-.001z"/><path d="M617.499 203.272v-21.529h8.813v-4.991l-.652-.65h-31.741v5.787h8.358v21.384c5.131-.001 10.091-.001 15.222-.001z"/><path d="M507.559 165.599c.154 1.433-.109 2.793.142 4.03h122.3v-4.03h-122.442z"/><path d="M507.697 214.346h122.258v-4.165h-122.258v4.165z"/><path d="M126.522 165.068h-116.523v4.042h116.653c-.137-1.432.099-2.791-.13-4.042z"/><path d="M10.08 214.29h115.952v-4.032h-115.952v4.032z"/><path d="M522.841 183.246c0-.073-.047-.156-.094-.221l-.188-.173h-14.692l.005 14.621h14.975c-.001-4.802-.001-9.514-.006-14.227z"/><path d="M294.774 148.557l-.001-2.753c-.548-.245-.411-.89-.738-1.265-.479.052-.805-.2-1.087-.563h-2.68c-1.327 1.413-2.448 3.043-3.443 4.654.604 1.423 1.465 2.424 2.544 3.222 2.594.06 3.301-2.781 5.405-3.295z"/><path d="M260.045 193.296h4.58l-2.195-11.286z"/><path d="M358.95 180.88v6.749c1.633 0 2.756.028 4.181-.667.561-2.007 1.003-4.503-.711-6.082h-3.47z"/><path d="M59.843 190.874l2.342 12.355 10.375.061 2.362-12.678 1.911 12.669h10.683l2.504-12.669 2.543 12.649h11.05l3.59-27.123h-9.033l-2.012 14.305-1.806-14.335-9.084.021-1.934 13.53-2.11-13.551-12.883-.02-1.86 12.686-2.085-12.656h-9.145l-1.938 12.761-2.309-12.771h-12.577l-2.564 14.245-1.9-14.245-8.489-.026-2.693 13.601-2.076-13.575-8.127-.026 3.751 27.176h10.79l2.674-10.767 2.307 10.799h10.95l1.811-11.909 1.99 11.88h10.862z"/><path d="M110.936 182.138h15.096v15.097h-15.096z"/><path d="M500.673 167.226c-1.207-1.188-2.336-2.456-4.037-2.96-1.82-2.057-4.783-2.19-6.745-4.009-3.087-.893-5.822-2.491-8.507-4.202-3.426-2.186-6.217-4.788-7.464-8.193l-.18-.188c-1.436-1.62-2.116-3.691-3.299-5.477-1.802-2.719-3.436-5.552-5.818-7.815-1.425-1.349-3.081-2.292-5.151-1.917-.959.892-2.021 1.656-2.893 2.518-.868.859-1.797 1.827-2.46 2.881-1.833 2.913-4.188 5.417-6.214 8.175-.492.67-.758 1.489-1.423 2.065-.71.616-1.416 1.301-1.913 2.091-.902 1.438-1.876 2.789-3.109 3.966-2.112 2.01-4.089 4.151-6.427 5.933-1.525 1.161-3.425 1.575-2.922 5.627 1.711 2.368 1.427 2.475 1.193 2.411l-.875-.246-.015-.005c.083-.423.013-1.092-.304-2.16-2.792-2.615-3.62-2.996-4.495-2.568-.637.311-1.504-.542-2.096-.334-3.29-2.528-6.321-4.964-9.725-6.985-3.446-2.048-6.831-4.097-10.675-5.348-2.18-.71-4.375-1.474-6.619-1.729-4.336-.494-8.163 1.011-11.59 3.673-1.026.798-2.161 1.544-3.363 2.011-2.511.975-5.123 1.637-7.773 2.188-1.646.341-3.374.895-4.726 1.838-1.439 1.004-3.006 1.951-4.124 3.236-1.624 1.011-3.365.602-5.056.657-.971-1.041-2.37-.088-3.386-.697-1.157-.692-2.364-.204-3.538-.338-.758-.085-1.534-.016-2.379-.016v-15.133h-18.947v21.317h-7.389v-6.185c-5.858 0-11.625 0-17.393.003-.075 0-.159.043-.224.088l-.276.294v5.396c-5.955 0-11.814.001-17.673-.006-.158 0-.317-.073-.662-.158v-12.9h-2.659v12.975h-3.519c-.332-8.076-.177-30.071.199-30.382.415-.106.888.2 1.225-.191v-2.85h-9.837v2.232c.363.773 1.158.606 1.382.947v30.259h-5.42c-1.332-1.063-2.041-2.506-3.142-3.534-2.347-2.192-4.045-4.957-6.466-7.066-.132-.114-.33-.23-.359-.372-.248-1.219-1.234-1.592-2.115-1.947l-11.053 9.297c-6.391-6.599-13.786-9.521-22.92-7.104v11.801h-8.346v-19.735c-1.868 2.198-3.615 3.938-5.282 5.757-2.511 2.734-4.876 5.614-7.532 8.221-1.156 1.135-2.402 2.2-3.042 3.628h-10.21l-.729-.729v-10.788h-17.372v-20.772l-.649-.649c-8.342-.369-38.635-.222-40.717.179v81.117c14.924.479 368.439.266 370.899-.223v-44.7c-.922-.418-.99-1.508-1.664-2.17zm-320.895-7.928l4.024-.143v3.686h-4.024v-3.543zm-7.354-.009l4.111-.004v3.491l-4.111.151v-3.638zm-.107-5.216c-1.423.444-2.868.391-4.308.4-1.397.01-2.796.002-4.192.002h-4.603v9.848l-.36.061c-.413-3.375-.051-6.764-.224-10.311h13.687zm-3.225 5.265v3.501h-3.506v-3.501h3.506zm-12.348-9.153l-.11-1.927h3.567v1.927h-3.457zm10.154-1.927l.111 1.927h-3.568v-1.927h3.457zm-3.454-2.806v-1.921h3.453l.117 1.921h-3.57zm.74-6.232l2.845.016v2.01h-3.483l-.144-1.076.782-.95zm-3.986.101v1.933h-3.456l-.103-1.933h3.559zm.046 4.217v1.88l-3.45.141-.25-2.01 3.7-.011zm-10.32 1.963l-.215-1.994 4.011-.074.248 2.068h-4.044zm3.966 2.752v1.936h-3.979l-.099-1.936h4.078zm-.138-8.973l.203 1.926h-4.085l-.163-1.926h4.045zm0 13.137l.203 1.928h-4.085l-.163-1.928h4.045zm-3.969 6.173v-1.921h3.976l.119 1.921h-4.095zm4.084 4.209h-4.086v-1.931h3.981l.105 1.931zm.072 2.792v1.917l-3.951.133-.39-2.024 4.341-.026zm-10.511-26.23l3.452-.141.249 2.01-3.701.012v-1.881zm3.634 4.166v1.93h-3.456l-.107-1.93h3.563zm-.142 4.687l.203 1.927h-3.56l-.163-1.927h3.52zm-3.238 14.687l-.39-1.993 3.816-.027v1.88l-3.426.14zm3.422 3.779l-.782.95-2.844-.017v-2.01h3.482l.144 1.077zm-.044-14.306v2.01h-3.484s-.107-.675-.143-1.077c-.052-.562.782-.948.782-.948l2.845.015zm.002 4.293v1.924h-3.459l-.314-1.924h3.773zm-7.046-11.108l-2.845-.016v-2.01h3.484l.144 1.076-.783.95zm.782 3.78c.051.562-.782.95-.782.95l-2.845-.016v-2.011h3.484s.106.676.143 1.077zm-.043-10.014v1.924h-3.459l-.313-1.924h3.772zm.046 28.163l-3.441.16-.26-2.027 3.701-.012v1.879zm-.047-6.621v1.933h-3.456l-.103-1.933h3.559zm-3.555-4.206h3.555v1.936h-3.456l-.099-1.936zm-.031-2.274v-1.924h3.459l.314 1.924h-3.773zm17.777 48.348h-11.938c-.229-.98-.072-2.097-.097-3.196-.027-1.125-.006-2.248-.006-3.459h12.042l-.001 6.655zm14.167.032h-8.657l-2.21-6.7h12.556l-1.689 6.7zm2.01-7.922h-12.821l-3.211-9.194c-.048.063-.096.146-.096.218-.005 2.966-.005 5.928-.005 8.98h-12.042v-18.739h18.155l3.588 12.54c.813-4.582 2.413-8.395 3.019-12.542h18.155v18.748h-11.881v-9.225l-.368-.047c-.822 3.049-1.642 6.099-2.493 9.261zm14.873 7.892h-12.042v-6.659h12.03l.011 3.204.001 3.455zm5.781-22.126c-.007-1.474-.001-2.947-.001-4.503h23.074v5.078h-8.676l-.323 3.687h-14.048c-.059-1.353-.017-2.81-.026-4.262zm24.172 22.131h-24.131v-16.118h22.503v5.069h-8.189s-.116 1.93-.157 2.854c-.043.948-.01 2.934-.01 2.934h9.983c.002 1.777.001 3.478.001 5.261zm129.842-52.263l2.021.551v7.985l-2.021.221v-8.757zm-38.472 35.939c.154-7.484 3.611-11.254 11.512-11.254h10.127c7.806 0 10.65 2.871 10.839 10.228.005.176.007 1.643.009 2.699h-13.836v-8.15h-4.362v8.15h-14.289v-1.673zm-24.54-10.233l.092-.077c.067-.041.149-.081.226-.081 4.358-.005 8.717-.005 13.166-.005v7.841h-13.483c-.001-2.548-.001-5.06-.001-7.678zm-50.544-15.428c.707.246 1.108.898 1.546 1.38.314 1.289-.796 1.633-1.313 2.421-1.786-.6-1.912-.729-2.33-2.188 1.009-1.229 1.009-1.229 2.097-1.613zm-7.308 41.978v-13.485h13.966l.091.09c.044.063.085.149.085.225.005 4.361.004 8.721.004 13.171-4.693-.001-9.304-.001-14.146-.001zm14.147-18.434c-.011 1.037-.002 2.075-.002 3.195h-14.13c-.019-.911-.047-1.925-.057-2.938-.011-1.036-.002-2.073-.002-3.196h-7.753v-5.258h30.3v5.082h-8.296c-.022 1.089-.049 2.1-.06 3.115zm20.434 17.792l-.642.642h-14.095l.522-2.979h14.214l.001 2.337zm-13.5-4.086c1.923-7.32 3.823-14.558 5.747-21.889h20.303l6.191 21.889h-32.241zm20.049 4.749l-.653-.704v-2.307h13.485l1.09 3.011h-13.922zm16.68-.021v-17.156h13.599v11.894h8.753l.189 2.586.007 2.677c0-.001-14.899-.001-22.548-.001zm57.071-10.817c0 7.731-2.49 11.244-10.576 11.244h-11.021c-8.086 0-10.895-3.851-10.895-11.582l.001-1.698h14.291v8.152h4.362v-8.152h13.838v2.036zm.594-32.877l-1.6.144s-.415-.422-.411-.762c.007-.52 0-1.798 0-1.798h2.011v2.416zm.002-4.22l-1.923.118v-4.621h1.923v4.503zm18.434 47.919h-14.076c-.155-1.604-.004-3.31-.083-5.091h14.159v5.091zm15.815-14.366c-1.029 1.893-2.602 3.121-4.685 3.533-2.045.404-3.868.396-5.898.317-.909-.037-1.781.237-2.683.11-.761-.108-1.549-.023-2.413-.023v3.549h-14.191v-19.659c.51-.428 1.23-.162 1.885-.164 5.504-.026 11.013.058 16.517-.054 2.069-.041 3.423.25 5.438.503.541.068 1.854.248 2.359.394.888.254.755.688 1.254.719.979.819 1.848 1.734 2.417 3.132.452 2.363.326 5.178 0 7.643zm15.234-29.446c-.135-1.363.983-2.23 1.258-3.413.306.049.599-.103.875.382-.756 1.37-1.067 3.147-2.386 4.299-1.078.942-2.321 1.739-3.813 2.055 1.177-1.358 2.941-1.928 4.066-3.323zm-11.509 28.284c.153-7.485 3.61-11.254 11.511-11.254h10.127c7.806 0 10.651 2.87 10.839 10.228.005.175.007 1.643.009 2.699h-13.836v-8.15h-4.362v8.15h-14.29l.002-1.673zm32.487 5.5c0 7.731-2.489 11.243-10.576 11.243h-11.021c-8.087 0-10.896-3.85-10.896-11.581l.002-1.698h14.29v8.152h4.362v-8.152h13.838v2.036zm18.143-26.767l.201.225-.201-.225zm.52.539l.239.194-.239-.194zm.592.438l.266.161-.266-.161zm.655.357l.277.131-.277-.131zm1.44.54c-.246-.074-.485-.155-.723-.242.238.086.477.166.723.242zm-3.5-2.302l-.143-.23.143.23zm-12.456 10.684l.085-.087c.064-.045.148-.088.223-.088 4.537-.005 9.072-.005 13.697-.005v12.568h-14.005v-12.388zm22.376 26.541h-22.291l-.092-.104c-.043-.066-.081-.149-.081-.227-.005-4.009-.005-8.018-.005-12.114h14.192v7.186h8.276l.001 5.259zm3.373-26.559l.092-.075c.066-.041.15-.081.225-.081 4.533-.005 9.066-.005 13.691-.005v5.214h-14.008v-5.053zm14.055 26.547h-14.095c-.116-3.183-.03-6.471-.048-9.755-.015-3.313-.002-6.625-.002-10.03h14.145v19.785zm-.379-43.487c-2.971-.351-5.75.537-8.433 1.738-.218.097-.34.396-.652.327l-.248-.033c3.861-5.104 10.614-6.666 16.102-1.393 3.538-1.802 7.029-1.31 10.326.906 2.103 1.414 3.975 3.054 4.776 5.613-2.911-2.417-5.876-4.602-10.082-4.891-.446.806-1.702.219-2.714.718-1.096.54-1.527 1.622-2.693 2.061-.485-1.317-1.615-2.371-2.604-3.497-.935-1.062-2.426-1.389-3.778-1.549zm5.282 20.469c.223-.199.701-1.076 1.031-1.563 1.258-1.863 3.232-2.264 5.136-2.7 2.235-.513 4.719-.576 7.038-.472 2.009.091 4.079.077 6.088 0 2.81-.106 5.182.601 7.864 1.045.813.135 1.204 1.239 1.856 2.102 1.13 1.781 1.703 3.574 1.22 5.682h-13.011l.04-3.755c-.601-.518-1.091.007-1.86-.209-1.119.359-2.307.626-2.927 1.81-.126.965.537 1.657.86 2.368 1.925 1.161 3.856 1.916 5.936 2.404h-18.628c-1.629-1.875-1.031-4.162-.643-6.712zm31.396 18.346c-.372 1.014-1.15 2.311-1.968 2.925-.999.748-1.814 1.557-2.907 1.767-.943.18-1.649.633-2.749.599-4.25 0-8.541.101-12.822-.038-2.548-.081-5.014-.85-7.382-1.799-2.45-.982-3.286-3.134-3.678-5.507-.128-.768-.021-1.572-.021-2.595h13.06v4.343l.898.898c1.406-.314 3.051.566 4.354-.652.09-2.343.09-2.343-.573-3.964-3.014-1.455-6.126-2.634-9.327-3.507-1.831-.498-3.467-1.362-5.202-2.092.295-.693.896-.302 1.308-.304 5.865-.034 11.733.036 17.597-.058 1.827-.03 3.754-.058 5.301.728.501.254.915.855 1.804 1.317.365.417.489.612 1.037 1.168.871.882 1.352 1.872 1.292 3.153-.07 1.483-.022 2.116-.022 3.618z"/></g></svg>