<?xml version="1.0" encoding="UTF-8" standalone="no"?>
<!-- Generator: Adobe Illustrator 16.0.0, SVG Export Plug-In . SVG Version: 6.00 Build 0)  -->

<svg
   xmlns:dc="http://purl.org/dc/elements/1.1/"
   xmlns:cc="http://creativecommons.org/ns#"
   xmlns:rdf="http://www.w3.org/1999/02/22-rdf-syntax-ns#"
   xmlns:svg="http://www.w3.org/2000/svg"
   xmlns="http://www.w3.org/2000/svg"
   xmlns:sodipodi="http://sodipodi.sourceforge.net/DTD/sodipodi-0.dtd"
   xmlns:inkscape="http://www.inkscape.org/namespaces/inkscape"
   version="1.1"
   id="Layer_1"
   x="0px"
   y="0px"
   width="640px"
   height="360px"
   viewBox="0 0 640 360"
   enable-background="new 0 0 640 360"
   xml:space="preserve"
   inkscape:version="0.48.4 r9939"
   sodipodi:docname="metalopolis.svg"><metadata
     id="metadata41"><rdf:RDF><cc:Work
         rdf:about=""><dc:format>image/svg+xml</dc:format><dc:type
           rdf:resource="http://purl.org/dc/dcmitype/StillImage" /></cc:Work></rdf:RDF></metadata><defs
     id="defs39" /><sodipodi:namedview
     pagecolor="#ffffff"
     bordercolor="#666666"
     borderopacity="1"
     objecttolerance="10"
     gridtolerance="10"
     guidetolerance="10"
     inkscape:pageopacity="0"
     inkscape:pageshadow="2"
     inkscape:window-width="1194"
     inkscape:window-height="854"
     id="namedview37"
     showgrid="false"
     inkscape:zoom="0.9375"
     inkscape:cx="358.93098"
     inkscape:cy="15.497521"
     inkscape:window-x="250"
     inkscape:window-y="195"
     inkscape:window-maximized="0"
     inkscape:current-layer="Layer_1"
     showguides="true"
     inkscape:guide-bbox="true"><sodipodi:guide
       orientation="0,1"
       position="-18.133333,150.4"
       id="guide3035" /></sodipodi:namedview><g
     id="g3"
     transform="translate(-5e-4,-7.8666667)"><path
       clip-rule="evenodd"
       d="m 542.07,200.112 6.781,11.05 c 0,0 8.812,0 13.304,0 0,-9.109 0,-18.162 0,-27.211 -4.193,0 -8.283,0 -12.555,0 0,3.688 0,7.318 0,11.203 -3.128,-3.731 -5.237,-7.809 -7.904,-11.142 -4.373,0 -8.454,0 -12.466,0 0,9.118 0,18.108 0,27.151 4.17,0 12.532,0 12.532,0 0,0 -0.037,-3.718 0.01,-5.466 0.045,-1.67 0.298,-5.585 0.298,-5.585 z"
       id="path5"
       inkscape:connector-curvature="0"
       style="fill-rule:evenodd" /><path
       clip-rule="evenodd"
       d="m 286.866,140.166 c 0.008,0.018 0.017,0.034 0.025,0.053 0.014,0.03 0.023,0.05 0.036,0.081 0.004,0.003 0.007,0.004 0.01,0.007 -0.035,-0.068 -0.052,-0.103 -0.071,-0.141 z"
       id="path7"
       inkscape:connector-curvature="0"
       style="fill-rule:evenodd" /><path
       clip-rule="evenodd"
       d="m 215.606,155.475 c 0.936,0.133 1.734,-0.173 2.532,0.308 -0.543,1.237 0.611,2.21 0.471,3.451 -0.147,1.298 -0.033,2.624 -0.033,3.938 0,2.716 0,5.431 0,8.146 0,1.201 0,2.4 0,3.57 1.854,0 3.492,0 5.222,0 0,-3.458 0,-6.849 0,-9.717 0.548,-1.436 1.095,-2.271 2.107,-2.906 0.741,0 1.644,0.163 2.463,-0.028 2.823,-0.662 6.31,-0.492 9.195,0.417 3.023,0.952 5.673,2.482 8.178,4.417 0.955,0.737 1.798,1.754 2.996,2.192 3.046,-3.429 7.03,-5.661 10.009,-9.012 0.536,0 1.059,0 1.556,0 4.016,4.568 8.024,9.129 11.933,13.575 1.117,0 2.058,0 3.044,0 0,-9.423 0,-18.769 0,-28.09 -0.335,-0.333 -0.645,-0.644 -0.928,-0.927 0,-1.315 0,-2.604 0,-3.793 0.538,-0.743 1.345,-0.845 1.949,-1.27 1.664,0 3.328,-0.01 4.992,0.002 1.685,0.012 3.406,-0.213 4.788,0.659 1.29,2.071 1.088,3.888 -0.741,5.338 0,9.357 -10e-4,18.638 0.006,27.918 10e-4,0.062 0.106,0.147 0.181,0.182 0.318,0.147 0.064,-0.401 0.276,0.182 0,-4.344 0,-8.435 0,-12.348 0.405,-0.757 1.027,-0.852 1.614,-1.129 -1.562,-1.485 -1.677,-3.373 -1.553,-5.276 1.176,-1.977 2.585,-3.686 4.499,-4.993 1.691,-0.2 3.246,0.063 4.597,1.422 1.354,1.364 1.568,2.916 1.326,4.65 -1.356,1.952 -3.32,3.21 -5.149,4.632 0.637,0.497 0.482,1.201 0.483,1.859 0.006,3.48 0.002,6.961 0.002,10.533 5.061,0 9.952,0 14.843,-0.004 0.075,0 0.16,-0.045 0.224,-0.091 0.067,-0.048 0.116,-0.124 0.197,-0.214 -0.123,-1.594 -0.08,-3.197 0.736,-4.85 2.229,-0.947 4.563,-0.586 6.86,-0.613 3.148,-0.037 6.298,0.041 9.444,-0.033 1.366,-0.031 2.481,0.333 3.499,1.413 0,1.541 0,3.183 0,4.926 1.622,-0.04 3.149,0.056 4.664,-0.066 0,-7.047 0,-13.877 0,-20.703 0.252,-0.251 0.5,-0.5 0.785,-0.785 3.285,0 6.607,0 9.93,0 3.397,0 6.792,0 10.236,0 0.654,1.476 1.127,2.862 1.121,4.393 -0.013,3.574 -0.005,7.146 -0.005,10.924 2.366,-0.478 4.529,0.211 6.636,0.641 2.92,0.595 5.894,0.505 8.234,-2.213 0.978,-1.134 2.311,-1.599 3.581,-2.161 1.957,-0.868 4.099,-1.128 6.174,-1.572 2.516,-0.541 4.852,-1.588 6.875,-3.021 1.572,-1.114 3.256,-1.889 4.903,-2.805 2.107,-1.172 4.485,-1.001 6.708,-1.572 0.711,-0.182 1.031,0.536 1.626,0.539 0.702,0.004 1.45,-0.163 2.095,0.029 3.185,0.949 6.321,2.048 9.371,3.372 2.478,1.074 4.808,2.447 7.017,3.979 3.094,2.143 6.391,4.026 9.025,6.796 1.703,0.147 3.301,-0.473 4.754,-1.146 1.549,-0.718 3.305,-1.354 4.214,-3.044 1.577,-0.515 2.338,-1.982 3.479,-3.003 1.175,-1.049 2.445,-2.077 3.313,-3.359 1.558,-2.298 3.545,-4.269 5.008,-6.596 1.096,-1.74 2.798,-2.904 3.804,-4.714 1.238,-2.226 2.905,-4.165 4.787,-5.908 1.091,-1.011 2.114,-2.099 3.254,-3.238 1.236,0.192 2.623,-0.37 3.874,0.535 0.941,0.679 1.957,1.238 2.86,1.993 1.204,1.009 2.032,2.32 2.911,3.549 1.527,2.132 3.115,4.238 4.276,6.623 0.997,2.044 1.872,4.229 3.269,5.977 1.479,1.853 3.229,3.537 5.254,4.93 2.445,1.682 5.025,3.136 7.74,4.177 2.308,0.884 4.334,2.221 6.535,3.253 1.403,0.658 2.609,1.734 3.919,2.601 0.09,0.06 0.306,-0.073 0.528,-0.135 0,-0.392 0,-0.805 0,-1.146 -1.466,-0.963 -2.837,-2.047 -4.364,-2.832 -3.603,-1.854 -7.284,-3.551 -10.923,-5.336 -3.748,-1.839 -6.766,-4.778 -8.826,-8.468 -0.836,-1.499 -1.989,-2.869 -2.557,-4.456 -0.629,-1.759 -1.84,-3.11 -2.77,-4.621 -1.649,-2.68 -3.83,-5.04 -6.587,-6.681 -1.844,-1.098 -3.859,-1.561 -5.935,-0.47 -1.517,0.799 -2.952,1.782 -3.897,3.185 -0.579,0.855 -1.155,1.686 -1.927,2.328 -0.812,0.675 -1.151,1.654 -1.814,2.426 -1.536,1.787 -2.943,3.692 -4.402,5.543 -1.926,2.443 -3.613,5.074 -5.84,7.279 -1.496,1.479 -3.074,2.886 -4.439,4.478 -2.16,2.521 -4.947,3.854 -8.21,4.81 -1.382,-0.836 -2.916,-1.626 -4.3,-2.624 -4.336,-3.124 -8.612,-6.328 -13.625,-8.347 -1.657,-0.668 -3.414,-1.095 -5.037,-1.791 -1.763,-0.755 -3.629,-1.137 -5.43,-1.435 -3.358,-0.555 -6.702,0.136 -9.778,1.634 -2.276,1.11 -4.364,2.612 -6.587,3.794 -2.188,1.163 -4.68,1.81 -7.146,2.396 -2.621,0.623 -5.239,1.275 -7.349,3.222 -0.935,0.86 -2.068,1.749 -3.362,1.954 -1.367,0.218 -2.798,0.008 -4.195,0.062 -1.283,0.05 -2.392,-0.851 -3.732,-0.584 -0.368,0.073 -0.85,-0.416 -1.106,-0.557 -1.039,-0.981 -0.776,-2.125 -0.839,-3.211 -0.18,-3.168 0.503,-6.383 -0.729,-9.84 -0.35,-0.56 -1.23,-1.056 -2.433,-1.585 -5.372,0 -11.058,0.045 -16.743,-0.026 -1.949,-0.024 -3.5,0.368 -4.264,2.815 0,1.476 0,3.399 0,5.323 0,1.927 -0.133,3.865 0.038,5.777 0.171,1.917 -0.838,3.667 -0.573,5.566 0.018,0.138 -0.12,0.296 -0.186,0.452 -0.415,0.069 -0.83,0.157 -1.232,-0.046 -0.158,-0.814 -0.911,-1.425 -0.724,-2.313 -0.935,-0.894 -1.722,-1.932 -3.014,-2.311 -3.679,0 -7.356,-0.022 -11.035,0.009 -2.214,0.018 -4.461,-0.32 -7.066,0.823 -1.2,0.812 -1.097,2.915 -2.259,4.401 -1.743,0.679 -5.245,0.818 -10.629,0.389 -0.372,-0.372 -0.744,-0.744 -1.084,-1.084 0,-3.246 0,-6.462 0,-9.63 0.896,-0.687 1.315,-1.661 2.214,-2.318 0.86,-0.63 1.262,-1.885 1.916,-2.947 0,-0.937 0,-1.987 0,-2.746 -0.597,-1.671 -1.777,-2.564 -2.881,-3.713 -0.235,0 -0.66,0.134 -0.891,-0.022 -1.461,-0.988 -2.957,-0.667 -4.279,0.074 -0.84,0.471 -1.532,0.561 -2.458,0.307 0,-1.043 0.116,-2.1 -0.038,-3.116 -0.111,-0.729 0.5,-1.018 0.601,-1.622 0.464,-2.799 0.512,-2.838 -0.526,-5.053 -1.923,-1.925 -3.922,-1.593 -5.85,-1.603 -1.661,-0.008 -3.321,-0.002 -4.983,-0.002 -0.257,0.409 -0.88,0.396 -1.032,0.615 -0.354,0.514 -1.029,0.227 -1.318,0.728 0,0.159 0.073,0.389 -0.011,0.499 -1.107,1.442 -1.111,3.055 -0.449,4.591 0.279,0.649 0.575,1.243 0.448,1.904 -0.162,0.837 0.588,1.33 0.581,2.151 -0.06,6.656 -0.019,13.313 -0.048,19.967 -0.005,1.222 -0.468,2.253 -1.641,2.707 -3.131,-2.456 -5.119,-5.802 -7.955,-8.351 -0.065,-0.058 -0.15,-0.112 -0.184,-0.187 -0.973,-2.263 -3.004,-3.223 -5.172,-4.231 -0.407,1.083 -1.577,0.516 -2.362,1.251 -0.908,0.847 -2.008,1.558 -2.853,2.507 -0.863,0.968 -2.077,1.442 -2.98,2.378 -1.68,1.739 -3.375,1.788 -5.358,0.396 -1.876,-1.316 -3.73,-2.621 -5.956,-3.384 -2.04,-0.699 -4.022,-1.488 -6.22,-1.471 -1.752,0.013 -3.511,-0.095 -5.254,0.025 -2.411,0.166 -4.401,1.001 -5.296,3.586 -0.212,0.613 -0.228,1.16 -0.239,1.729 -0.041,2.007 -0.017,4.014 -0.017,5.99 -0.613,0.412 -0.872,1.169 -1.391,1.267 -0.628,-0.556 -1.139,-1.006 -1.777,-1.57 0,-4.673 0,-9.573 0,-14.48 -0.412,-0.245 -0.38,-0.88 -0.605,-1.027 -0.528,-0.342 -0.208,-1.039 -0.719,-1.298 -2.342,-0.868 -2.891,-0.802 -4.651,1.022 -1.911,1.982 -3.808,3.983 -5.669,6.012 -2.57,2.798 -4.947,5.789 -7.752,8.435 0.149,0.178 0.3,0.356 0.52,0.616 -0.507,0.454 -1.251,0.12 -1.845,0.579 -0.499,0.387 -1.5,0.093 -2.274,0.158 -2.054,0.175 -3.633,-0.42 -4.314,-2.62 0,-0.98 0.023,-2.032 -0.007,-3.083 -0.031,-1.067 0.151,-2.159 -0.412,-3.189 0,3.103 0,6.204 0,9.359 2.916,0 5.779,0 8.432,0 5.193,-5.703 10.276,-11.287 15.292,-16.798 z"
       id="path9"
       inkscape:connector-curvature="0"
       style="fill-rule:evenodd" /><path
       clip-rule="evenodd"
       d="m 592.684,189.607 c 0,-1.906 0,-3.721 0,-5.626 -8.505,0 -16.801,0 -25.118,0 0,9.089 0,18.084 0,27.127 8.587,0 17.117,0 25.627,0 0,-1.923 0,-3.737 0,-5.735 -3.521,0 -6.978,0 -10.355,0 0,-1.825 0,-3.466 0,-5.194 1.56,0 3.035,0.009 4.514,-0.002 1.448,-0.009 2.905,0.045 4.233,-0.032 0,-2.064 0,-3.876 0,-5.775 -2.963,0 -5.829,0 -8.717,0 0,-1.622 0,-3.149 0,-4.762 3.332,-0.001 6.547,-0.001 9.816,-0.001 z"
       id="path11"
       inkscape:connector-curvature="0"
       style="fill-rule:evenodd" /><path
       clip-rule="evenodd"
       d="m 617.499,211.139 c 0,-7.199 0,-14.322 0,-21.529 3.033,0 5.896,0 8.813,0 0,-1.722 0,-3.358 0,-4.991 -0.189,-0.19 -0.376,-0.374 -0.652,-0.65 -10.657,0 -21.214,0 -31.741,0 0,1.958 0,3.832 0,5.787 2.817,0 5.504,0 8.358,0 0,7.209 0,14.33 0,21.384 5.131,-10e-4 10.091,-10e-4 15.222,-10e-4 z"
       id="path13"
       inkscape:connector-curvature="0"
       style="fill-rule:evenodd" /><path
       clip-rule="evenodd"
       d="m 507.559,173.466 c 0.154,1.433 -0.109,2.793 0.142,4.03 40.882,0 81.569,0 122.3,0 0,-1.376 0,-2.663 0,-4.03 -40.931,0 -81.62,0 -122.442,0 z"
       id="path15"
       inkscape:connector-curvature="0"
       style="fill-rule:evenodd" /><path
       clip-rule="evenodd"
       d="m 507.697,222.213 c 40.782,0 81.474,0 122.258,0 0,-1.515 0,-2.807 0,-4.165 -40.846,0 -81.598,0 -122.258,0 0,1.553 0,2.843 0,4.165 z"
       id="path17"
       inkscape:connector-curvature="0"
       style="fill-rule:evenodd" /><path
       clip-rule="evenodd"
       d="m 126.523,172.935 c -38.947,0 -77.71,0 -116.523,0 0,1.369 0,2.656 0,4.042 38.987,0 77.749,0 116.653,0 -0.137,-1.432 0.099,-2.791 -0.13,-4.042 z"
       id="path19"
       inkscape:connector-curvature="0"
       style="fill-rule:evenodd" /><path
       clip-rule="evenodd"
       d="m 10.081,222.157 c 38.628,0 77.279,0 115.952,0 0,-1.38 0,-2.668 0,-4.032 -38.642,0 -77.231,0 -115.952,0 0,1.264 0,2.616 0,4.032 z"
       id="path21"
       inkscape:connector-curvature="0"
       style="fill-rule:evenodd" /><path
       clip-rule="evenodd"
       d="m 522.841,191.113 c 0,-0.073 -0.047,-0.156 -0.094,-0.221 -0.049,-0.068 -0.124,-0.115 -0.188,-0.173 -4.896,0 -14.692,0 -14.692,0 l 0.005,14.621 c 0,0 9.938,0 14.975,0 -10e-4,-4.802 -10e-4,-9.514 -0.006,-14.227 z"
       id="path23"
       inkscape:connector-curvature="0"
       style="fill-rule:evenodd" /><path
       clip-rule="evenodd"
       d="m 294.774,156.424 c 0,-1.009 0,-1.881 -10e-4,-2.753 -0.548,-0.245 -0.411,-0.89 -0.738,-1.265 -0.479,0.052 -0.805,-0.2 -1.087,-0.563 -0.86,0 -1.73,0 -2.68,0 -1.327,1.413 -2.448,3.043 -3.443,4.654 0.604,1.423 1.465,2.424 2.544,3.222 2.594,0.06 3.301,-2.781 5.405,-3.295 z"
       id="path25"
       inkscape:connector-curvature="0"
       style="fill-rule:evenodd" /><polygon
       clip-rule="evenodd"
       points="260.045,201.163 264.625,201.163 262.43,189.877 "
       id="polygon27"
       style="fill-rule:evenodd" /><path
       clip-rule="evenodd"
       d="m 358.95,188.747 c 0,2.278 0,4.426 0,6.749 1.633,0 2.756,0.028 4.181,-0.667 0.561,-2.007 1.003,-4.503 -0.711,-6.082 -1.204,0 -2.37,0 -3.47,0 z"
       id="path29"
       inkscape:connector-curvature="0"
       style="fill-rule:evenodd" /><polygon
       clip-rule="evenodd"
       points="59.843,198.741 62.185,211.096 72.56,211.157 74.922,198.479 76.833,211.148 87.516,211.148 90.02,198.479 92.563,211.128 103.613,211.128 107.203,184.005 98.17,184.005 96.158,198.31 94.352,183.975 85.268,183.996 83.334,197.526 81.224,183.975 68.341,183.955 66.481,196.641 64.396,183.985 55.251,183.985 53.313,196.746 51.004,183.975 38.427,183.975 35.863,198.22 33.963,183.975 25.474,183.949 22.781,197.55 20.705,183.975 12.578,183.949 16.329,211.125 27.119,211.125 29.793,200.358 32.1,211.157 43.05,211.157 44.861,199.248 46.851,211.128 57.713,211.128 "
       id="polygon31"
       style="fill-rule:evenodd" /><rect
       x="110.937"
       y="190.005"
       clip-rule="evenodd"
       width="15.096"
       height="15.097"
       id="rect33"
       style="fill-rule:evenodd" /><path
       clip-rule="evenodd"
       d="m 500.673,175.093 c -1.207,-1.188 -2.336,-2.456 -4.037,-2.96 -1.82,-2.057 -4.783,-2.19 -6.745,-4.009 -3.087,-0.893 -5.822,-2.491 -8.507,-4.202 -3.426,-2.186 -6.217,-4.788 -7.464,-8.193 -0.028,-0.075 -0.122,-0.123 -0.18,-0.188 -1.436,-1.62 -2.116,-3.691 -3.299,-5.477 -1.802,-2.719 -3.436,-5.552 -5.818,-7.815 -1.425,-1.349 -3.081,-2.292 -5.151,-1.917 -0.959,0.892 -2.021,1.656 -2.893,2.518 -0.868,0.859 -1.797,1.827 -2.46,2.881 -1.833,2.913 -4.188,5.417 -6.214,8.175 -0.492,0.67 -0.758,1.489 -1.423,2.065 -0.71,0.616 -1.416,1.301 -1.913,2.091 -0.902,1.438 -1.876,2.789 -3.109,3.966 -2.112,2.01 -4.089,4.151 -6.427,5.933 -1.525,1.161 -3.425,1.575 -2.922,5.627 1.711,2.368 1.427,2.475 1.193,2.411 -0.293,-0.081 -0.586,-0.163 -0.875,-0.246 -0.006,-0.003 -0.011,-0.004 -0.015,-0.005 0.083,-0.423 0.013,-1.092 -0.304,-2.16 -2.792,-2.615 -3.62,-2.996 -4.495,-2.568 -0.637,0.311 -1.504,-0.542 -2.096,-0.334 -3.29,-2.528 -6.321,-4.964 -9.725,-6.985 -3.446,-2.048 -6.831,-4.097 -10.675,-5.348 -2.18,-0.71 -4.375,-1.474 -6.619,-1.729 -4.336,-0.494 -8.163,1.011 -11.59,3.673 -1.026,0.798 -2.161,1.544 -3.363,2.011 -2.511,0.975 -5.123,1.637 -7.773,2.188 -1.646,0.341 -3.374,0.895 -4.726,1.838 -1.439,1.004 -3.006,1.951 -4.124,3.236 -1.624,1.011 -3.365,0.602 -5.056,0.657 -0.971,-1.041 -2.37,-0.088 -3.386,-0.697 -1.157,-0.692 -2.364,-0.204 -3.538,-0.338 -0.758,-0.085 -1.534,-0.016 -2.379,-0.016 0,-5.149 0,-10.116 0,-15.133 -6.348,0 -12.603,0 -18.947,0 0,7.175 0,14.243 0,21.317 -2.496,0 -4.898,0 -7.389,0 0,-2.111 0,-4.102 0,-6.185 -5.858,0 -11.625,0 -17.393,0.003 -0.075,0 -0.159,0.043 -0.224,0.088 -0.069,0.049 -0.119,0.124 -0.276,0.294 0,1.707 0,3.521 0,5.396 -5.955,0 -11.814,0.001 -17.673,-0.006 -0.158,0 -0.317,-0.073 -0.662,-0.158 0,-4.281 0,-8.613 0,-12.9 -0.95,0 -1.713,0 -2.659,0 0,4.402 0,8.734 0,12.975 -1.3,0 -2.416,0 -3.519,0 -0.332,-8.076 -0.177,-30.071 0.199,-30.382 0.415,-0.106 0.888,0.2 1.225,-0.191 0,-0.966 0,-1.903 0,-2.85 -3.346,0 -6.623,0 -9.837,0 0,0.888 0,1.649 0,2.232 0.363,0.773 1.158,0.606 1.382,0.947 0,10.216 0,20.257 0,30.259 -1.928,0 -3.742,0 -5.42,0 -1.332,-1.063 -2.041,-2.506 -3.142,-3.534 -2.347,-2.192 -4.045,-4.957 -6.466,-7.066 -0.132,-0.114 -0.33,-0.23 -0.359,-0.372 -0.248,-1.219 -1.234,-1.592 -2.115,-1.947 -3.711,3.121 -7.384,6.211 -11.053,9.297 -6.391,-6.599 -13.786,-9.521 -22.92,-7.104 0,3.938 0,7.855 0,11.801 -2.782,0 -5.472,0 -8.346,0 0,-6.479 0,-12.911 0,-19.735 -1.868,2.198 -3.615,3.938 -5.282,5.757 -2.511,2.734 -4.876,5.614 -7.532,8.221 -1.156,1.135 -2.402,2.2 -3.042,3.628 -3.511,0 -6.901,0 -10.21,0 -0.265,-0.265 -0.45,-0.45 -0.729,-0.729 0,-3.473 0,-7.039 0,-10.788 -5.821,0 -11.553,0 -17.372,0 0,-7.079 0,-13.972 0,-20.772 -0.277,-0.278 -0.464,-0.463 -0.649,-0.649 -8.342,-0.369 -38.635,-0.222 -40.717,0.179 0,27.053 0,54.087 0,81.117 14.924,0.479 368.439,0.266 370.899,-0.223 0,-14.887 0,-29.771 0,-44.7 -0.922,-0.418 -0.99,-1.508 -1.664,-2.17 z m -320.895,-7.928 4.024,-0.143 v 3.686 h -4.024 v -3.543 z m -7.354,-0.009 4.111,-0.004 v 3.491 l -4.111,0.151 v -3.638 z m -0.107,-5.216 c -1.423,0.444 -2.868,0.391 -4.308,0.4 -1.397,0.01 -2.796,0.002 -4.192,0.002 -1.477,0 -2.952,0 -4.603,0 0,3.334 0,6.608 0,9.848 -0.237,0.04 -0.299,0.05 -0.36,0.061 -0.413,-3.375 -0.051,-6.764 -0.224,-10.311 4.699,0 9.193,0 13.687,0 z m -3.225,5.265 c 0,1.06 0,2.17 0,3.501 -1.204,0 -2.311,0 -3.506,0 0,-1.146 0,-2.257 0,-3.501 1.076,0 2.244,0 3.506,0 z m -12.348,-9.153 -0.11,-1.927 h 3.567 v 1.927 h -3.457 z m 10.154,-1.927 0.111,1.927 h -3.568 v -1.927 h 3.457 z m -3.454,-2.806 v -1.921 h 3.453 l 0.117,1.921 h -3.57 z m 0.74,-6.232 2.845,0.016 v 2.01 h -3.483 l -0.144,-1.076 0.782,-0.95 z m -3.986,0.101 v 1.933 h -3.456 l -0.103,-1.933 h 3.559 z m 0.046,4.217 v 1.88 l -3.45,0.141 -0.25,-2.01 3.7,-0.011 z m -10.32,1.963 -0.215,-1.994 4.011,-0.074 0.248,2.068 h -4.044 z m 3.966,2.752 v 1.936 h -3.979 l -0.099,-1.936 h 4.078 z m -0.138,-8.973 0.203,1.926 h -4.085 l -0.163,-1.926 h 4.045 z m 0,13.137 0.203,1.928 h -4.085 l -0.163,-1.928 h 4.045 z m -3.969,6.173 v -1.921 h 3.976 l 0.119,1.921 h -4.095 z m 4.084,4.209 h -4.086 v -1.931 h 3.981 l 0.105,1.931 z m 0.072,2.792 v 1.917 l -3.951,0.133 -0.39,-2.024 4.341,-0.026 z m -10.511,-26.23 3.452,-0.141 0.249,2.01 -3.701,0.012 v -1.881 z m 3.634,4.166 v 1.93 h -3.456 l -0.107,-1.93 h 3.563 z m -0.142,4.687 0.203,1.927 h -3.56 l -0.163,-1.927 h 3.52 z m -3.238,14.687 -0.39,-1.993 3.816,-0.027 v 1.88 l -3.426,0.14 z m 3.422,3.779 -0.782,0.95 -2.844,-0.017 v -2.01 h 3.482 l 0.144,1.077 z m -0.044,-14.306 v 2.01 h -3.484 c 0,0 -0.107,-0.675 -0.143,-1.077 -0.052,-0.562 0.782,-0.948 0.782,-0.948 l 2.845,0.015 z m 0.002,4.293 v 1.924 h -3.459 l -0.314,-1.924 h 3.773 z m -7.046,-11.108 -2.845,-0.016 v -2.01 h 3.484 l 0.144,1.076 -0.783,0.95 z m 0.782,3.78 c 0.051,0.562 -0.782,0.95 -0.782,0.95 l -2.845,-0.016 v -2.011 h 3.484 c 0,0 0.106,0.676 0.143,1.077 z m -0.043,-10.014 v 1.924 h -3.459 l -0.313,-1.924 h 3.772 z m 0.046,28.163 -3.441,0.16 -0.26,-2.027 3.701,-0.012 v 1.879 z m -0.047,-6.621 v 1.933 h -3.456 l -0.103,-1.933 h 3.559 z m -3.555,-4.206 h 3.555 v 1.936 h -3.456 l -0.099,-1.936 z m -0.031,-2.274 v -1.924 h 3.459 l 0.314,1.924 h -3.773 z m 17.777,48.348 c -3.949,0 -7.857,0 -11.938,0 -0.229,-0.98 -0.072,-2.097 -0.097,-3.196 -0.027,-1.125 -0.006,-2.248 -0.006,-3.459 3.993,0 7.902,0 12.042,0 -0.001,2.247 -0.001,4.406 -0.001,6.655 z m 14.167,0.032 h -8.657 l -2.21,-6.7 h 12.556 l -1.689,6.7 z m 2.01,-7.922 c -4.172,0 -8.434,0 -12.821,0 l -3.211,-9.194 c -0.048,0.063 -0.096,0.146 -0.096,0.218 -0.005,2.966 -0.005,5.928 -0.005,8.98 -3.99,0 -7.903,0 -12.042,0 0,-6.276 0,-12.465 0,-18.739 6.055,0 12.068,0 18.155,0 1.128,3.942 2.286,7.988 3.588,12.54 0.813,-4.582 2.413,-8.395 3.019,-12.542 5.997,0 12.012,0 18.155,0 0,6.163 0,12.412 0,18.748 -3.873,0 -7.785,0 -11.881,0 0,-3.017 0,-6.12 0,-9.225 -0.123,-0.015 -0.246,-0.032 -0.368,-0.047 -0.822,3.049 -1.642,6.099 -2.493,9.261 z m 14.873,7.892 c -3.998,0 -7.907,0 -12.042,0 0,-2.255 0,-4.413 0,-6.659 3.954,0 7.862,0 12.03,0 0.003,1.003 0.009,2.103 0.011,3.204 0.002,1.124 0.001,2.247 0.001,3.455 z m 5.781,-22.126 c -0.007,-1.474 -0.001,-2.947 -0.001,-4.503 7.672,0 15.254,0 23.074,0 0,1.718 0,3.353 0,5.078 -2.892,0 -8.676,0 -8.676,0 l -0.323,3.687 c 0,0 -9.2,0 -14.048,0 -0.059,-1.353 -0.017,-2.81 -0.026,-4.262 z m 24.172,22.131 c -8.034,0 -15.967,0 -24.131,0 0,-5.407 0,-10.717 0,-16.118 7.509,0 14.98,0 22.503,0 0,1.702 0,3.339 0,5.069 -2.705,0 -8.189,0 -8.189,0 0,0 -0.116,1.93 -0.157,2.854 -0.043,0.948 -0.01,2.934 -0.01,2.934 0,0 6.511,0 9.983,0 0.002,1.777 0.001,3.478 0.001,5.261 z m 129.842,-52.263 2.021,0.551 v 7.985 l -2.021,0.221 v -8.757 z m -38.472,35.939 c 0.154,-7.484 3.611,-11.254 11.512,-11.254 h 10.127 c 7.806,0 10.65,2.871 10.839,10.228 0.005,0.176 0.007,1.643 0.009,2.699 h -13.836 v -8.15 h -4.362 v 8.15 h -14.289 l 0,-1.673 z m -24.54,-10.233 c -0.041,0.034 0.019,-0.032 0.092,-0.077 0.067,-0.041 0.149,-0.081 0.226,-0.081 4.358,-0.005 8.717,-0.005 13.166,-0.005 0,2.591 0,5.101 0,7.841 -4.524,0 -8.959,0 -13.483,0 -10e-4,-2.548 -10e-4,-5.06 -10e-4,-7.678 z m -50.544,-15.428 c 0.707,0.246 1.108,0.898 1.546,1.38 0.314,1.289 -0.796,1.633 -1.313,2.421 -1.786,-0.6 -1.912,-0.729 -2.33,-2.188 1.009,-1.229 1.009,-1.229 2.097,-1.613 z m -7.308,41.978 c 0,-4.524 0,-8.961 0,-13.485 4.649,0 9.259,0 13.966,0 -0.032,-0.03 0.042,0.021 0.091,0.09 0.044,0.063 0.085,0.149 0.085,0.225 0.005,4.361 0.004,8.721 0.004,13.171 -4.693,-0.001 -9.304,-0.001 -14.146,-0.001 z m 14.147,-18.434 c -0.011,1.037 -0.002,2.075 -0.002,3.195 -4.697,0 -9.305,0 -14.13,0 -0.019,-0.911 -0.047,-1.925 -0.057,-2.938 -0.011,-1.036 -0.002,-2.073 -0.002,-3.196 -2.599,0 -5.11,0 -7.753,0 0,-1.777 0,-3.477 0,-5.258 10.065,0 20.158,0 30.3,0 0,1.718 0,3.354 0,5.082 -2.711,0 -5.397,0 -8.296,0 -0.022,1.089 -0.049,2.1 -0.06,3.115 z m 20.434,17.792 c -0.185,0.186 -0.369,0.369 -0.642,0.642 -4.573,0 -14.095,0 -14.095,0 l 0.522,-2.979 c 0,0 9.492,0 14.214,0 0.001,0.817 0.001,1.577 0.001,2.337 z m -13.5,-4.086 c 1.923,-7.32 3.823,-14.558 5.747,-21.889 6.709,0 13.422,0 20.303,0 l 6.191,21.889 c 0,0 -21.333,0 -32.241,0 z m 20.049,4.749 c -0.157,-0.169 -0.393,-0.424 -0.653,-0.704 0,-0.715 0,-1.474 0,-2.307 4.472,0 8.89,0 13.485,0 0.373,1.031 0.719,1.983 1.09,3.011 -4.638,0 -9.232,0 -13.922,0 z m 16.68,-0.021 c 0,-5.737 0,-11.4 0,-17.156 4.518,0 9.016,0 13.599,0 0,3.975 0,7.887 0,11.894 2.941,0 8.753,0 8.753,0 l 0.189,2.586 0.007,2.677 c 0,-0.001 -14.899,-0.001 -22.548,-0.001 z m 57.071,-10.817 c 0,7.731 -2.49,11.244 -10.576,11.244 H 318.21 c -8.086,0 -10.895,-3.851 -10.895,-11.582 l 10e-4,-1.698 h 14.291 v 8.152 h 4.362 v -8.152 h 13.838 v 2.036 z m 0.594,-32.877 -1.6,0.144 c 0,0 -0.415,-0.422 -0.411,-0.762 0.007,-0.52 0,-1.798 0,-1.798 h 2.011 v 2.416 z m 0.002,-4.22 -1.923,0.118 v -4.621 h 1.923 v 4.503 z m 18.434,47.919 c -4.657,0 -9.267,0 -14.076,0 -0.155,-1.604 -0.004,-3.31 -0.083,-5.091 4.726,0 9.336,0 14.159,0 0,1.74 0,3.376 0,5.091 z m 15.815,-14.366 c -1.029,1.893 -2.602,3.121 -4.685,3.533 -2.045,0.404 -3.868,0.396 -5.898,0.317 -0.909,-0.037 -1.781,0.237 -2.683,0.11 -0.761,-0.108 -1.549,-0.023 -2.413,-0.023 0,1.189 0,2.305 0,3.549 -4.76,0 -9.432,0 -14.191,0 0,-6.492 0,-13.023 0,-19.659 0.51,-0.428 1.23,-0.162 1.885,-0.164 5.504,-0.026 11.013,0.058 16.517,-0.054 2.069,-0.041 3.423,0.25 5.438,0.503 0.541,0.068 1.854,0.248 2.359,0.394 0.888,0.254 0.755,0.688 1.254,0.719 0.979,0.819 1.848,1.734 2.417,3.132 0.452,2.363 0.326,5.178 0,7.643 z m 15.234,-29.446 c -0.135,-1.363 0.983,-2.23 1.258,-3.413 0.306,0.049 0.599,-0.103 0.875,0.382 -0.756,1.37 -1.067,3.147 -2.386,4.299 -1.078,0.942 -2.321,1.739 -3.813,2.055 1.177,-1.358 2.941,-1.928 4.066,-3.323 z m -11.509,28.284 c 0.153,-7.485 3.61,-11.254 11.511,-11.254 h 10.127 c 7.806,0 10.651,2.87 10.839,10.228 0.005,0.175 0.007,1.643 0.009,2.699 h -13.836 v -8.15 h -4.362 v 8.15 h -14.29 l 0.002,-1.673 z m 32.487,5.5 c 0,7.731 -2.489,11.243 -10.576,11.243 h -11.021 c -8.087,0 -10.896,-3.85 -10.896,-11.581 l 0.002,-1.698 h 14.29 v 8.152 h 4.362 v -8.152 h 13.838 v 2.036 z m 18.143,-26.767 c 0.064,0.079 0.133,0.15 0.201,0.225 -0.068,-0.075 -0.137,-0.146 -0.201,-0.225 z m 0.52,0.539 c 0.079,0.067 0.158,0.133 0.239,0.194 -0.08,-0.062 -0.16,-0.127 -0.239,-0.194 z m 0.592,0.438 c 0.088,0.055 0.176,0.111 0.266,0.161 -0.09,-0.05 -0.178,-0.106 -0.266,-0.161 z m 0.655,0.357 c 0.092,0.043 0.184,0.091 0.277,0.131 -0.093,-0.041 -0.185,-0.089 -0.277,-0.131 z m 1.44,0.54 c -0.246,-0.074 -0.485,-0.155 -0.723,-0.242 0.238,0.086 0.477,0.166 0.723,0.242 z m -3.5,-2.302 c -0.047,-0.077 -0.101,-0.147 -0.143,-0.23 0.042,0.082 0.096,0.153 0.143,0.23 z m -12.456,10.684 c -0.032,0.037 0.017,-0.038 0.085,-0.087 0.064,-0.045 0.148,-0.088 0.223,-0.088 4.537,-0.005 9.072,-0.005 13.697,-0.005 0,4.163 0,8.249 0,12.568 -4.693,0 -9.303,0 -14.005,0 0,-4.117 0,-8.203 0,-12.388 z m 22.376,26.541 c -7.383,0 -14.791,0 -22.291,0 0.023,0.026 -0.047,-0.031 -0.092,-0.104 -0.043,-0.066 -0.081,-0.149 -0.081,-0.227 -0.005,-4.009 -0.005,-8.018 -0.005,-12.114 4.698,0 9.306,0 14.192,0 0,2.426 0,4.764 0,7.186 2.772,0 5.459,0 8.276,0 0.001,1.779 0.001,3.478 0.001,5.259 z m 3.373,-26.559 c -0.04,0.036 0.018,-0.03 0.092,-0.075 0.066,-0.041 0.15,-0.081 0.225,-0.081 4.533,-0.005 9.066,-0.005 13.691,-0.005 0,1.712 0,3.349 0,5.214 -4.697,0 -9.308,0 -14.008,0 0,-1.669 0,-3.306 0,-5.053 z m 14.055,26.547 c -4.645,0 -9.256,0 -14.095,0 -0.116,-3.183 -0.03,-6.471 -0.048,-9.755 -0.015,-3.313 -0.002,-6.625 -0.002,-10.03 4.688,0 9.299,0 14.145,0 0,6.621 0,13.158 0,19.785 z m -0.379,-43.487 c -2.971,-0.351 -5.75,0.537 -8.433,1.738 -0.218,0.097 -0.34,0.396 -0.652,0.327 -0.079,-0.018 -0.165,-0.022 -0.248,-0.033 3.861,-5.104 10.614,-6.666 16.102,-1.393 3.538,-1.802 7.029,-1.31 10.326,0.906 2.103,1.414 3.975,3.054 4.776,5.613 -2.911,-2.417 -5.876,-4.602 -10.082,-4.891 -0.446,0.806 -1.702,0.219 -2.714,0.718 -1.096,0.54 -1.527,1.622 -2.693,2.061 -0.485,-1.317 -1.615,-2.371 -2.604,-3.497 -0.935,-1.062 -2.426,-1.389 -3.778,-1.549 z m 5.282,20.469 c 0.223,-0.199 0.701,-1.076 1.031,-1.563 1.258,-1.863 3.232,-2.264 5.136,-2.7 2.235,-0.513 4.719,-0.576 7.038,-0.472 2.009,0.091 4.079,0.077 6.088,0 2.81,-0.106 5.182,0.601 7.864,1.045 0.813,0.135 1.204,1.239 1.856,2.102 1.13,1.781 1.703,3.574 1.22,5.682 -4.271,0 -8.596,0 -13.011,0 0,-1.171 0.04,-2.704 0.04,-3.755 -0.601,-0.518 -1.091,0.007 -1.86,-0.209 -1.119,0.359 -2.307,0.626 -2.927,1.81 -0.126,0.965 0.537,1.657 0.86,2.368 1.925,1.161 3.856,1.916 5.936,2.404 -6.18,0 -12.36,0 -18.628,0 -1.629,-1.875 -1.031,-4.162 -0.643,-6.712 z m 31.396,18.346 c -0.372,1.014 -1.15,2.311 -1.968,2.925 -0.999,0.748 -1.814,1.557 -2.907,1.767 -0.943,0.18 -1.649,0.633 -2.749,0.599 -4.25,0 -8.541,0.101 -12.822,-0.038 -2.548,-0.081 -5.014,-0.85 -7.382,-1.799 -2.45,-0.982 -3.286,-3.134 -3.678,-5.507 -0.128,-0.768 -0.021,-1.572 -0.021,-2.595 4.439,0 8.702,0 13.06,0 0,1.504 0,2.97 0,4.343 0.341,0.34 0.589,0.588 0.898,0.898 1.406,-0.314 3.051,0.566 4.354,-0.652 0.09,-2.343 0.09,-2.343 -0.573,-3.964 -3.014,-1.455 -6.126,-2.634 -9.327,-3.507 -1.831,-0.498 -3.467,-1.362 -5.202,-2.092 0.295,-0.693 0.896,-0.302 1.308,-0.304 5.865,-0.034 11.733,0.036 17.597,-0.058 1.827,-0.03 3.754,-0.058 5.301,0.728 0.501,0.254 0.915,0.855 1.804,1.317 0.365,0.417 0.489,0.612 1.037,1.168 0.871,0.882 1.352,1.872 1.292,3.153 -0.07,1.483 -0.022,2.116 -0.022,3.618 z"
       id="path35"
       inkscape:connector-curvature="0"
       style="fill-rule:evenodd" /></g></svg>