<?xml version="1.0" encoding="utf-8"?>
<!-- Generator: Adobe Illustrator 16.0.0, SVG Export Plug-In . SVG Version: 6.00 Build 0)  -->
<!DOCTYPE svg PUBLIC "-//W3C//DTD SVG 1.1//EN" "http://www.w3.org/Graphics/SVG/1.1/DTD/svg11.dtd">
<svg version="1.1" id="Layer_1" xmlns="http://www.w3.org/2000/svg" xmlns:xlink="http://www.w3.org/1999/xlink" x="0px" y="0px"
	 width="640px" height="360px" viewBox="0 0 640 360" enable-background="new 0 0 640 360" xml:space="preserve">
<g>
	<polygon fill-rule="evenodd" clip-rule="evenodd" points="250.32,13.962 256.928,22.809 267.916,22.809 267.916,19.755 
		408.523,19.755 408.523,16.701 423.803,16.701 423.803,13.639 451.313,13.639 451.313,10.585 497.16,10.585 497.16,10 442.143,10 
		387.123,10 247.361,10 250.079,13.639 	"/>
	<polygon fill-rule="evenodd" clip-rule="evenodd" points="267.541,326.451 255.487,343.508 255.314,343.752 255.315,343.752 
		251.356,349.354 255.315,343.752 255.692,343.752 255.692,343.219 255.547,343.424 261.794,334.584 261.808,334.584 
		261.808,340.697 264.862,340.697 264.862,330.242 	"/>
	<polygon fill-rule="evenodd" clip-rule="evenodd" points="439.088,120.623 442.143,120.623 442.143,111.453 439.088,111.453 
		439.088,114.507 	"/>
	<polygon fill-rule="evenodd" clip-rule="evenodd" points="267.916,328.475 270.978,328.475 270.978,337.644 274.031,337.644 
		274.031,346.814 277.085,346.814 277.085,350 286.256,350 286.256,349.869 283.202,349.869 283.202,343.752 280.148,343.752 
		280.148,334.584 277.085,334.584 277.085,328.475 274.031,328.475 274.031,322.359 270.978,322.359 270.978,321.587 
		274.859,316.094 267.916,325.919 	"/>
	<rect x="258.746" y="349.869" fill-rule="evenodd" clip-rule="evenodd" width="3.062" height="0.131"/>
	<polygon fill-rule="evenodd" clip-rule="evenodd" points="267.916,340.697 264.862,340.697 264.862,350 270.978,350 
		270.978,346.814 267.916,346.814 	"/>
	<rect x="533.84" y="77.828" fill-rule="evenodd" clip-rule="evenodd" width="3.061" height="3.062"/>
	<polygon fill-rule="evenodd" clip-rule="evenodd" points="247.166,350 252.637,350 252.637,349.869 249.577,349.869 
		249.577,348.802 251.356,349.354 247.166,348.053 	"/>
	<rect x="536.9" y="80.89" fill-rule="evenodd" clip-rule="evenodd" width="3.055" height="3.054"/>
	<polygon fill-rule="evenodd" clip-rule="evenodd" points="552.18,90.059 549.125,90.059 549.125,86.998 546.07,86.998 
		546.07,83.943 539.955,83.943 539.955,86.998 539.955,90.059 543.01,90.059 543.01,96.168 546.07,96.168 546.07,120.623 
		549.125,120.623 549.125,126.739 552.18,126.739 552.18,123.677 555.242,123.677 555.242,111.453 552.18,111.453 	"/>
	<path fill-rule="evenodd" clip-rule="evenodd" d="M555.242,50.318v-3.054h6.107V44.21h6.117v-3.061h6.115v-3.055h9.17v-3.054h6.107
		v-3.062h6.115v-3.055h6.115v-3.054h6.109v-3.062h9.17v-3.054h6.115v-3.055h6.115v-3.062h0.518v-3.054h-6.633v3.054h-6.115v3.062
		h-6.109v3.055h-3.061v-3.055h3.061v-3.062h6.109v-3.054h6.115V10H610.26v0.585h-3.061v3.054h-6.109v3.062h-6.115v-3.062h3.053
		v-3.054h-6.107V10h-9.168v0.585h6.107v3.054h-6.107v3.062h-3.063v3.055h-6.107v3.054h-9.17v3.062H552.18v-3.062h12.232v-3.054h9.17
		v-3.055h3.053v-3.062h-3.053v-3.054h3.053V10H524.67v0.585h-12.223v3.054h-12.227v3.062h-21.4v3.055h-33.617v3.054h-27.51v3.062
		H374.9v3.054h-21.395v-3.054h-27.51v3.054h-64.188v-3.054h-2.593l-0.508-0.68l24.545,32.865l-3.492-4.676h40.12v3.055h9.171h6.115
		V53.38h6.109v-3.062h6.113v-3.054h15.287v3.054h-6.115v3.062h-3.055v6.11h-3.063v3.061h-6.107V59.49h-15.285v3.061h-6.115v3.055
		h30.57v3.053H374.9v-3.053h9.17v3.053h-3.055v3.063h-51.965v-3.063h-15.286v-3.053H288.89l20.863,27.935l62.875,84.188
		l-13.016,18.42v0.888h9.172v3.061h-11.962l-41.033,58.072h1.037v3.056h3.053v3.062h3.056v6.108h3.061v3.063h3.055v6.106h3.055
		v3.062h3.061v3.055h3.055v6.115h-3.055h-3.061v-3.061h-3.055v-3.055h-3.055v-3.055h-3.061v-3.062v-3.054h-3.056v-3.053h-3.053
		v-3.063h-3.063v-6.108h-2.297l-31.32,44.323v7.635h3.054v6.115h3.055v9.17h3.061v9.168h3.054v6.117h3.056V350h9.168v-3.186h-3.053
		v-3.063v-3.055h-3.055v-6.113h3.055v3.06h3.053v3.054h3.063v3.055v3.063h3.053V350h152.833v-0.131h3.055v-12.226h3.053v-21.399
		h3.063v21.399h-3.063v12.226h-3.053V350h162.52v-45.98H628.6v-3.055h-6.115v-3.062h-3.055v-3.055h-6.115v-3.054h-3.055v-3.061
		h-3.061v-3.055h-6.109v-3.055h-3.063v-3.062h-6.107v-3.054h-3.061v-3.053h-3.055v-3.063h-3.053v-3.055h-3.063v-3.054h-3.055v-3.062
		h-3.053v-3.056h-3.063V249h-3.053v-6.114h-3.055v-3.055h-3.063v-3.055h-3.053v-3.062h6.115v3.062h3.055v3.055h6.115v3.055h6.107
		v3.061h3.063V249h6.107v3.054h6.115v3.063h3.053v3.053h6.117v3.056h3.055v3.062h6.115v3.054h6.115v3.055h3.055v3.063h6.115v3.053
		h0.518v-21.394H628.6v-18.34h0.518v-61.135H628.6v-21.393h0.518v-15.286H628.6v-12.224h-3.061v6.108h-3.055V83.943h6.115v6.115
		v27.51v6.108h0.518V71.72H628.6v-6.115h0.518v-27.51H628.6v3.055h-6.115v3.061h-6.115v3.055h-9.17v3.054h-12.225v3.062h-9.17v3.055
		h-6.115v3.055h-3.055h-6.115v3.061h-9.17V59.49h3.063v-3.055h6.107V53.38h6.115v-3.062h6.117h6.107v-3.054h6.115V44.21h12.225
		v-3.061h6.115v-3.055h6.115v-3.054h6.109v-3.062h3.578v-9.17h-6.633v3.062h-6.115v3.054h-9.17v3.055h-6.109v3.062h-9.17v3.054
		h-6.115v3.055h-6.115v3.061h-6.107v3.055h-6.115v3.054h-3.055v3.062h-3.063v3.055h-6.107V53.38h-3.063v-3.062H555.242z
		 M585.805,16.701h6.115v3.055h-6.115V16.701z M344.336,47.265h-9.17h-12.23v3.054h-45.462l-0.388-0.52v-2.534h-1.892l-2.282-3.055
		h25.575v3.055h9.17V44.21h21.394v-3.061h15.285V47.265z M374.9,50.318h-3.055v3.062h-6.115v-6.115h9.17V50.318z M310.71,334.584
		h-3.053v-3.055h-3.063v-3.055h-3.053v-3.063h-3.055v-6.106h-3.061v-3.062h6.115v3.062h3.053v6.106h3.063v6.117h3.053V334.584z
		 M362.676,322.359h-6.115v-3.054v-3.062h-3.055v-3.055h-3.063v-9.17v-18.34V249h3.063v3.054h3.055v3.063h-3.055v6.108h3.055v36.679
		h3.053v3.062h3.063V322.359z M619.43,172.587h3.055v-6.115h3.055v15.287h3.061v3.053h-3.061v6.115h-6.109V172.587z M619.43,224.546
		v-3.055h3.055v9.17h-3.055V249h-3.061v-21.393v-3.062H619.43z M613.314,90.059h3.055v36.68h-3.055V90.059z M610.26,142.018h6.109
		v6.114h-6.109V142.018z M610.26,151.187h6.109v9.169h-3.055v64.19h-3.055V151.187z M604.145,114.507h3.055v9.17h-3.055V114.507z
		 M530.787,22.809h6.113v-3.054h12.225v3.054h-6.115v3.062h-12.223V22.809z M497.16,28.924h9.17v3.055h-9.17V28.924z
		 M429.918,50.318h9.17v-3.054h3.055v3.054h-3.055v3.062h-9.17V50.318z M429.918,59.49h6.115v-3.055h6.109v6.116h-12.225V59.49z
		 M405.463,41.149h6.115v-3.055h6.115v6.115h-12.23V41.149z M396.293,62.55h15.285v3.055h21.395v3.053h-6.109v3.063h-27.508v-3.063
		h12.223v-3.053h-15.285V62.55z M423.803,80.89v3.054h-6.109v3.055h-15.285v-3.055h9.17V80.89H423.803z M384.07,77.828h18.338v3.062
		H384.07V77.828z M304.595,80.89v3.054h-2.008l-4.566-6.116h3.521v-3.054h-5.803l-2.28-3.054h17.251v3.054h15.286v3.054h15.279
		v3.062h-15.279v-3.062h-24.455v3.062H304.595z M313.765,86.998h6.115v3.061h-6.115V86.998z M381.016,184.812h-9.17v-3.053h9.17
		V184.812z M390.186,346.814h-3.063v-12.23h3.063V346.814z M402.408,163.417h-6.115v-3.062h-6.107v-3.053h-9.17v-3.055h-3.061
		v-3.062h-6.109v-3.055h-3.061v-3.054h-3.055v-3.061h-6.117v-3.055h-6.107v-3.054h-6.117v-3.063h-3.053v-3.054h-3.061v-3.054h-3.055
		v-3.062h-5.959l-0.156-0.21v-2.845h-2.125l-0.93-1.246v-1.808h-1.35l-13.699-18.34h2.825v3.055h6.108v3.054h6.115v3.062h3.055
		v3.054h6.115v3.055h6.115v3.062h6.107v3.054h6.117v3.055h3.053v3.062h6.117v3.054h6.115v3.054h6.109v3.063h6.115v3.054h6.115v3.055
		h3.055v3.061h6.115v3.054h3.053V163.417z M344.336,108.399v-3.062h3.053v3.062H344.336z M402.408,108.399h-6.115v3.054h-24.447
		h-15.285v-6.115h15.285h30.563V108.399z M405.463,99.229h-6.107v-3.061h-18.34v-6.109h-24.455v-3.061h-21.395v-3.055h45.85v6.115
		h18.34v6.109h6.107V99.229z M445.203,215.376h-3.061v3.061h-3.055v3.055h3.055v12.224h-3.055v27.51h3.055v6.115h-3.055v3.055
		h-3.055v3.063h3.055v3.053h3.055v21.394h-3.055v3.062h-3.055v3.055h-9.17v-3.055h-3.061v-6.116h-3.055v-30.563h3.055V249h3.061
		v-42.795h-3.061v-9.169h-3.055v-6.109h-3.055v-6.115h-3.061v-9.17h-3.055v-18.338h-3.055v-9.171v-3.054h3.055v-3.061h-3.055v-9.171
		h3.055v9.171h3.055v-12.225h-3.055v-9.17v-3.054h3.055v-6.116h3.061v-9.169h3.055v-3.055v-3.061h3.055v-3.055h6.115v6.115h-3.055
		v3.055h-3.061v3.054h-3.055v6.115h-3.055v9.17h3.055v-3.054h3.055v-9.17h3.061v9.17h-3.061v6.108v3.062h-3.055v3.054v6.116h3.055
		v-3.063h3.061v30.571h3.055v9.17h3.055v9.171h3.061v3.053h3.055v9.17h3.055v9.169h3.061V215.376z M432.973,138.963v3.055h-3.055
		v-3.055H432.973z M497.16,270.395h-3.055v3.063h-9.17v-3.063h-3.053v-3.055h15.277V270.395z M509.393,255.116h-3.063v3.053h-3.055
		V249h-3.055v12.225h3.055v3.062h-3.055v-3.062h-3.061v3.062h-12.225v-3.062h-3.053v-9.171h3.053v-6.107h-3.053v-3.061h18.338h3.055
		V249h3.055v-3.054h3.063V255.116z M567.467,68.658h3.053v-3.053h9.17v3.053h-3.055v3.063h-9.168V68.658z M564.412,160.356v-9.169
		h3.055v-6.108h-3.055v-6.115h3.055v-21.394V96.168h3.053v3.061h3.063v3.055h3.053v3.054v6.115h3.055v39.734h-3.055v9.169h-3.053
		v6.116h-3.063v3.054h-3.053v6.115h-3.055v6.118h-3.063v6.106h-3.053v3.062h-3.055v3.055h-3.063v12.224h-3.055v21.402h3.055v9.169
		h3.063v30.563h-3.063v6.117h-3.055v3.053h-3.055v3.054h-3.061v-3.054h-3.055v-6.115h3.055v3.063h3.061v-6.117h-6.115v-21.394H536.9
		v-30.57h-3.061v-15.279h3.061v-6.115h3.055v-6.116h3.055v-3.054h3.061v-3.053h3.055v-3.063h3.055v-3.055h3.063v-3.054h3.055v-6.115
		h3.053v-6.116H564.412z M555.242,71.72v3.054h3.055v9.169h3.053v36.679v9.17h-6.107v3.054v15.285h3.055v9.171h-3.055v3.053h-3.063
		v3.062h-3.055v3.055h-3.055v3.054h-3.061v3.062h-3.055v6.109H536.9v6.115h-3.061v6.115h-3.053v6.109h-3.055v9.169h-3.063v6.116
		h-3.055v-18.34h3.055v-9.17h3.063v-6.115h3.055v-6.109h3.053v-3.062h3.061v-6.108h3.055v-3.062h3.055v-6.107h3.061v-6.117h-3.061
		v3.055H536.9v6.117h-3.061v3.053h-3.053v3.062h-3.055v6.108h-3.063v3.062h-3.055v3.054h-3.053v15.286h-3.061v21.395h-3.055v6.115
		h-3.055v3.055h-3.063v3.055h6.117v-3.055h3.055v-3.055h3.061v-3.061h3.053v6.115h-3.053v6.116h-3.061v3.054h-6.109v3.054h-3.063
		v3.062h-18.34v-3.062h-3.055v-3.054h-3.053v-3.054h-3.063v-3.062h-3.053v-6.109h3.053v3.055h6.115v-6.115h-3.053v-9.171h-3.063
		v-12.224h-3.053v-6.116h-3.055v-6.106h-3.063v-3.063h-3.053v6.115h3.053v6.115h3.063v15.278h-3.063v-9.169h-3.053v-6.109h-3.055
		v-3.062h-3.061v-3.054h-3.055v-3.053h-3.055v-3.063h-3.061v-3.055h-3.055v-3.054h-3.055v-6.115h-3.061v-15.286h-3.055v-21.394
		h-3.055v-12.224h-3.061v-15.286h3.061v9.169h3.055v-6.115v-9.169h-6.115v-6.109h3.061V80.89h3.055v-3.062h3.055V71.72h3.061v-3.063
		h3.055v-3.053h3.055V62.55h3.061V59.49h3.055v-3.055h3.055V53.38h6.115v-3.062h3.053v-3.054h6.117V44.21h9.168v-3.061h33.627v3.061
		h12.225v3.055h3.053v3.054h3.061v3.062h6.109v3.055h3.061v3.055h3.055v3.061h3.055v9.17H555.242z M549.125,44.21v3.055h-6.115
		V44.21h-3.055v-3.061h6.115v-3.055h-18.338v-3.054h15.277v-3.062h12.232v3.062h-6.117v3.054h12.225v-3.054h6.117v3.054h-6.117
		v3.055h-6.107v3.061H549.125z"/>
	<polygon fill-rule="evenodd" clip-rule="evenodd" points="274.859,316.094 280.148,308.609 280.148,308.608 	"/>
	<polygon fill-rule="evenodd" clip-rule="evenodd" points="288.889,65.605 288.89,65.605 283.252,58.056 	"/>
	<path fill-rule="evenodd" clip-rule="evenodd" d="M506.33,166.472h-9.17v3.054h-3.055v3.062h-3.053v9.171h-3.063v27.508h3.063
		v3.055h3.053v3.055h12.225v-15.279h3.063v-24.456h-3.063V166.472z M503.275,203.15h-3.055v3.055h-3.061v-6.108h6.115V203.15z"/>
	<polygon fill-rule="evenodd" clip-rule="evenodd" points="315.788,258.169 311.994,263.541 315.79,258.169 	"/>
	<polygon fill-rule="evenodd" clip-rule="evenodd" points="311.467,264.286 311.468,264.286 311.994,263.541 	"/>
	<polygon fill-rule="evenodd" clip-rule="evenodd" points="457.428,108.399 457.428,105.337 460.482,105.337 460.482,102.283 
		463.543,102.283 463.543,99.229 469.65,99.229 469.65,96.168 481.883,96.168 481.883,93.113 463.543,93.113 463.543,96.168 
		460.482,96.168 460.482,99.229 457.428,99.229 457.428,102.283 454.373,102.283 454.373,105.337 451.313,105.337 451.313,108.399 
		448.258,108.399 448.258,135.909 445.203,135.909 445.203,142.018 448.258,142.018 448.258,138.963 451.313,138.963 
		451.313,132.847 454.373,132.847 454.373,108.399 	"/>
	<polygon fill-rule="evenodd" clip-rule="evenodd" points="475.768,120.623 475.768,117.569 463.543,117.569 463.543,120.623 
		457.428,120.623 457.428,129.793 460.482,129.793 460.482,126.739 463.543,126.739 463.543,123.677 475.768,123.677 
		475.768,126.739 478.82,126.739 478.82,129.793 481.883,129.793 481.883,120.623 	"/>
	<rect x="478.82" y="135.909" fill-rule="evenodd" clip-rule="evenodd" width="3.063" height="3.054"/>
	<rect x="481.883" y="129.793" fill-rule="evenodd" clip-rule="evenodd" width="3.053" height="6.116"/>
	<rect x="460.482" y="129.793" fill-rule="evenodd" clip-rule="evenodd" width="6.115" height="3.054"/>
	<polygon fill-rule="evenodd" clip-rule="evenodd" points="460.482,135.909 457.428,135.909 457.428,132.847 454.373,132.847 
		454.373,138.963 457.428,138.963 457.428,142.018 469.65,142.018 469.65,145.078 466.598,145.078 466.598,148.132 472.713,148.132 
		475.768,148.132 475.768,142.018 478.82,142.018 478.82,138.963 460.482,138.963 	"/>
	<rect x="472.713" y="68.658" fill-rule="evenodd" clip-rule="evenodd" width="9.17" height="3.063"/>
	<polygon fill-rule="evenodd" clip-rule="evenodd" points="518.563,65.605 509.393,65.605 509.393,62.55 500.221,62.55 
		500.221,65.605 481.883,65.605 481.883,68.658 518.563,68.658 	"/>
	<polygon fill-rule="evenodd" clip-rule="evenodd" points="463.543,77.828 466.598,77.828 466.598,74.774 472.713,74.774 
		472.713,71.72 463.543,71.72 463.543,74.774 460.482,74.774 460.482,77.828 457.428,77.828 457.428,80.89 463.543,80.89 	"/>
	<polygon fill-rule="evenodd" clip-rule="evenodd" points="512.447,145.078 509.393,145.078 509.393,132.847 509.393,120.623 
		506.33,120.623 506.33,123.677 503.275,123.677 503.275,135.909 506.33,135.909 506.33,148.132 509.393,148.132 509.393,151.187 
		503.275,151.187 503.275,154.249 500.221,154.249 500.221,157.303 506.33,157.303 506.33,160.356 509.393,160.356 509.393,157.303 
		512.447,157.303 512.447,154.249 515.502,154.249 515.502,151.187 512.447,151.187 	"/>
	<polygon fill-rule="evenodd" clip-rule="evenodd" points="515.502,99.229 512.447,99.229 512.447,111.453 515.502,111.453 
		515.502,102.283 518.563,102.283 518.563,99.229 521.615,99.229 521.615,96.168 515.502,96.168 	"/>
	<polygon fill-rule="evenodd" clip-rule="evenodd" points="530.787,99.229 539.955,99.229 539.955,96.168 533.84,96.168 
		533.84,93.113 521.615,93.113 521.615,96.168 530.787,96.168 	"/>
	<polygon fill-rule="evenodd" clip-rule="evenodd" points="524.67,114.507 524.67,117.569 521.615,117.569 521.615,120.623 
		518.563,120.623 518.563,123.677 524.67,123.677 524.67,120.623 527.732,120.623 527.732,117.569 533.84,117.569 533.84,114.507 	
		"/>
	<rect x="533.84" y="117.569" fill-rule="evenodd" clip-rule="evenodd" width="3.061" height="3.054"/>
	<polygon fill-rule="evenodd" clip-rule="evenodd" points="518.563,138.963 524.67,138.963 524.67,142.018 527.732,142.018 
		527.732,148.132 533.84,148.132 533.84,145.078 530.787,145.078 530.787,142.018 533.84,142.018 533.84,138.963 536.9,138.963 
		536.9,135.909 518.563,135.909 	"/>
	<polygon fill-rule="evenodd" clip-rule="evenodd" points="497.16,151.187 491.053,151.187 491.053,154.249 487.99,154.249 
		487.99,151.187 484.936,151.187 484.936,157.303 497.16,157.303 	"/>
	<rect x="423.803" y="96.168" fill-rule="evenodd" clip-rule="evenodd" width="3.061" height="3.061"/>
	<rect x="448.258" y="157.303" fill-rule="evenodd" clip-rule="evenodd" width="3.055" height="3.053"/>
	<polygon fill-rule="evenodd" clip-rule="evenodd" points="454.373,160.356 451.313,160.356 451.313,163.417 448.258,163.417 
		448.258,166.472 451.313,166.472 451.313,169.526 454.373,169.526 454.373,166.472 457.428,166.472 457.428,163.417 
		454.373,163.417 	"/>
	
		<rect x="355.799" y="198.121" transform="matrix(0.577 -0.8168 0.8168 0.577 -10.2776 376.3993)" fill-rule="evenodd" clip-rule="evenodd" width="4.838" height="0.001"/>
	<rect x="539.955" y="123.677" fill-rule="evenodd" clip-rule="evenodd" width="3.055" height="12.232"/>
	<polygon fill-rule="evenodd" clip-rule="evenodd" points="518.563,126.739 515.502,126.739 515.502,129.793 512.447,129.793 
		512.447,132.847 518.563,132.847 	"/>
	<rect x="491.053" y="117.569" fill-rule="evenodd" clip-rule="evenodd" width="3.053" height="6.108"/>
	<rect x="527.732" y="126.739" fill-rule="evenodd" clip-rule="evenodd" width="3.055" height="3.054"/>
</g>
<g>
	<path d="M106.618,186.392H88.7v36.317h16.53c2.092,0,3.832-0.229,5.219-0.692c1.388-0.461,2.523-1.317,3.408-2.563
		c0.885-1.249,1.509-3.057,1.871-5.43c0.242-1.65,0.363-3.661,0.363-6.034v-10.016c0-3.135-0.625-5.69-1.871-7.66
		C112.57,187.698,110.037,186.392,106.618,186.392z"/>
	<path d="M77.178,116.771c-0.483-0.845-1.217-1.489-2.202-1.931c-0.985-0.443-2.423-0.664-4.313-0.664H54.554v18.642h14.479
		c3.86,0,6.294-0.563,7.3-1.689c0.724-0.844,1.216-1.83,1.479-2.956c0.26-1.126,0.391-2.494,0.391-4.103
		c0-1.648-0.08-3.106-0.241-4.374C77.801,118.43,77.54,117.454,77.178,116.771z"/>
	<path d="M272.75,94.187L209.874,10l-99.496,33.783L10.882,77.567l1.383,105.065l1.384,105.066L114,318.849L214.352,350
		l60.637-85.813l60.636-85.813L272.75,94.187z M206.163,109.711h5.188v19.909h26.545v-19.909h5.067v45.248h-5.067v-20.875h-26.545
		v20.875h-5.188V109.711z M164.595,123.588c0-4.344,0.905-7.602,2.716-9.774c1.568-1.89,3.921-3.157,7.058-3.801
		c2.092-0.443,4.927-0.663,8.506-0.663h1.629c0.724,0,1.739,0,3.046,0c1.307,0,2.262,0,2.865,0c2.574,0.242,4.605,0.996,6.094,2.252
		c1.085,0.895,1.95,2.192,2.593,3.891c0.644,1.698,0.965,4.093,0.965,7.179v1.157h-5.188v-1.75c0-1.569-0.08-2.755-0.242-3.56
		c-0.282-1.408-0.814-2.443-1.599-3.106c-0.784-0.664-1.719-1.098-2.805-1.298c-1.085-0.201-2.494-0.302-4.224-0.302h-1.025
		c-3.5,0-5.973,0.101-7.421,0.302c-2.695,0.362-4.666,1.167-5.912,2.414c-0.604,0.724-1.086,1.588-1.448,2.593
		c-0.361,1.006-0.542,2.353-0.542,4.043v14.842c0,3.297,0.211,5.74,0.633,7.33c0.422,1.589,1.086,2.785,1.971,3.589
		c0.854,0.885,1.92,1.448,3.217,1.689c0.081,0,1.327,0.121,3.75,0.361h3.097c0.805,0,1.941-0.04,3.389-0.12
		c1.458-0.081,2.494-0.121,3.097-0.121c0.965-0.121,1.739-0.243,2.302-0.362c1.258-0.281,2.222-0.765,2.906-1.448
		c1.056-0.965,1.579-2.333,1.579-4.103c0-0.523,0-1.388,0-2.594s0-2.071,0-2.594h5.067v2.594c0,2.332-0.121,4.082-0.362,5.249
		c-0.402,1.93-1.207,3.52-2.413,4.766c-1.206,1.248-2.977,2.112-5.309,2.595c-1.609,0.321-3.681,0.482-6.214,0.482h-3.258h-5.067
		c-2.092,0-3.841-0.221-5.25-0.663c-1.407-0.443-2.936-1.367-4.584-2.775c-1.005-0.885-1.86-2.292-2.564-4.222
		c-0.704-1.931-1.056-4.022-1.056-6.275V123.588z M201.035,181.927v45.247h-5.067v-45.247H201.035z M77.479,186.392H53.468v15.444
		h22.985v4.224H53.468v16.649h24.011v4.465H48.4v-45.247h29.079V186.392z M82.788,129.199c-0.442,1.93-1.186,3.519-2.232,4.766
		c-0.885,1.127-2.021,1.981-3.409,2.564c-1.387,0.583-3.188,0.875-5.399,0.875H54.554v17.555h-5.068v-45.248h22.925
		c4.424,0,7.421,1.409,8.989,4.223c0.685,1.207,1.167,2.625,1.448,4.253c0.282,1.629,0.423,3.429,0.423,5.4
		C83.271,125.84,83.11,127.711,82.788,129.199z M121.158,209.257c0,3.62-0.423,6.656-1.268,9.109
		c-1.126,3.257-2.996,5.61-5.61,7.059c-0.925,0.604-2.011,1.045-3.258,1.327c-1.247,0.281-2.594,0.422-4.042,0.422H83.573v-45.247
		h22.141c3.459,0,6.294,0.604,8.507,1.811c1.97,1.046,3.559,2.634,4.766,4.767c1.448,2.734,2.172,6.436,2.172,11.101V209.257z
		 M120.886,148.927c-0.623,1.89-1.619,3.317-2.987,4.284c-1.447,0.885-3.619,1.488-6.515,1.809c-1.93,0.202-4.464,0.302-7.601,0.302
		h-1.87c-2.534,0-4.465-0.121-5.792-0.362c-2.132-0.402-3.831-1.105-5.098-2.111c-1.268-1.005-2.152-2.313-2.655-3.921
		c-0.502-1.609-0.753-3.399-0.753-5.369c0.08-0.484,0.141-0.996,0.181-1.54c0.04-0.542,0.06-0.935,0.06-1.176h5.067l-0.12,1.036
		c0,1.87,0.12,3.448,0.362,4.735c0.241,1.278,0.745,2.252,1.508,2.896c1.006,0.895,2.313,1.348,3.921,1.348c0.523,0,1.357,0,2.504,0
		s1.961,0,2.443,0c0.522,0,1.045,0,1.569,0c0.523,0,1.146,0,1.87,0c1.77,0,3.258-0.111,4.465-0.332
		c1.206-0.221,2.232-0.613,3.076-1.197c0.845-0.573,1.408-1.448,1.689-2.604c0.282-1.155,0.423-2.593,0.423-4.313v-0.714
		c0-1.277-0.101-2.402-0.302-3.358c-0.201-0.956-0.623-1.739-1.267-2.333c-0.644-0.685-1.649-1.146-3.017-1.408
		c-1.368-0.262-2.997-0.392-4.887-0.392c-3.902,0-6.737-0.102-8.506-0.302c-3.378-0.362-5.913-1.167-7.603-2.412
		c-1.166-0.885-1.99-2.053-2.473-3.5c-0.482-1.448-0.724-3.218-0.724-5.31c0-2.574,0.271-4.746,0.815-6.515
		c0.542-1.77,1.367-3.117,2.473-4.042c1.105-0.925,2.584-1.619,4.435-2.082c1.85-0.462,4.886-0.693,9.109-0.693
		c3.378,0,6.093,0.181,8.145,0.543s3.64,0.994,4.766,1.9c1.126,0.905,1.951,2.131,2.474,3.68s0.784,3.329,0.784,5.339v1.267h-5.067
		c0-1.528-0.081-2.805-0.241-3.831c-0.161-1.025-0.544-1.86-1.147-2.503c-0.644-0.805-1.699-1.328-3.167-1.569
		c-1.468-0.242-3.649-0.362-6.545-0.362h-1.268c-2.211,0-4.002,0.111-5.369,0.332s-2.533,0.714-3.499,1.478
		c-0.563,0.442-0.956,1.166-1.177,2.172s-0.332,2.232-0.332,3.68c0,2.133,0.222,3.702,0.664,4.707
		c0.443,1.005,1.096,1.739,1.961,2.202c0.865,0.463,2.012,0.785,3.439,0.966c1.428,0.181,2.927,0.271,4.495,0.271h2.776
		c2.976,0,5.369,0.141,7.178,0.423c1.81,0.28,3.419,0.915,4.826,1.9c1.409,0.985,2.395,2.625,2.957,4.917
		c0.322,1.367,0.483,3.117,0.483,5.249C121.822,144.764,121.509,147.037,120.886,148.927z M155.606,186.392h-24.012v15.444h22.987
		v4.224h-22.987v16.649h24.012v4.465h-29.079v-45.247h29.079V186.392z M145.049,136.077v18.882h-5.189v-18.882l-16.53-26.365h5.913
		l13.373,21.217l13.473-21.217h6.154L145.049,136.077z M162.364,181.927h5.188v40.782h22.986v4.465h-28.174V181.927z
		 M176.419,272.943h-5.43v-6.155h5.43V272.943z M215.694,262.929c0,1.648-0.181,3.126-0.542,4.434
		c-0.363,1.307-1.056,2.434-2.082,3.38c-1.026,0.944-2.494,1.628-4.404,2.05c-1.91,0.424-4.132,0.634-6.667,0.634
		c-2.655,0-4.807-0.201-6.455-0.604c-1.649-0.401-3.097-1.188-4.344-2.353c-1.287-1.328-2.102-2.886-2.443-4.676
		c-0.342-1.79-0.514-4.555-0.514-8.295c0-3.982,0.172-6.848,0.514-8.598c0.341-1.749,1.035-3.248,2.081-4.494
		c1.328-1.568,3.158-2.595,5.491-3.077c1.327-0.28,3.458-0.422,6.394-0.422c2.012,0,3.871,0.19,5.581,0.573
		c1.709,0.381,2.986,0.895,3.83,1.538c1.288,0.965,2.172,2.354,2.655,4.163c0.282,1.086,0.423,2.553,0.423,4.404h-4.827v-0.664
		c0-0.966-0.121-1.911-0.361-2.836c-0.241-0.926-0.625-1.628-1.147-2.112c-0.482-0.362-1.196-0.652-2.142-0.873
		c-0.945-0.223-2.362-0.333-4.253-0.333h-1.146c-1.77,0-3.077,0.101-3.922,0.302c-0.845,0.201-1.709,0.725-2.593,1.568
		c-0.644,0.685-1.097,1.669-1.358,2.957c-0.261,1.287-0.392,2.815-0.392,4.585c0,0.401,0,0.815,0,1.236c0,0.423,0,0.834,0,1.236
		v1.389c0,0.481,0,0.943,0,1.387s0,0.745,0,0.906c0,1.728,0.141,3.207,0.422,4.434c0.282,1.227,0.795,2.202,1.539,2.926
		c0.744,0.725,1.729,1.187,2.956,1.389c1.227,0.199,2.725,0.3,4.495,0.3c1.851,0,3.308-0.039,4.374-0.12
		c1.066-0.079,2.001-0.502,2.806-1.267c0.523-0.484,0.875-1.217,1.056-2.202c0.182-0.984,0.272-2.063,0.272-3.227v-1.026h4.705
		V262.929z M244.231,245.733l-18.874,23.408l18.874-0.059v3.86h-24.554v-4.343l19.003-23.47h-17.315v-3.859h22.866V245.733z
		 M244.231,214.444c0,2.332-0.121,4.083-0.362,5.25c-0.402,1.929-1.207,3.52-2.414,4.765c-1.206,1.248-2.976,2.112-5.308,2.595
		c-1.609,0.322-3.68,0.483-6.213,0.483h-3.259h-5.067c-2.092,0-3.841-0.223-5.249-0.664c-1.407-0.442-2.936-1.367-4.585-2.775
		c-1.005-0.884-1.86-2.292-2.564-4.223s-1.056-4.022-1.056-6.274v-17.797c0-4.346,0.905-7.603,2.715-9.775
		c1.568-1.889,3.922-3.154,7.059-3.8c2.091-0.441,4.927-0.664,8.506-0.664h1.628c0.725,0,1.74,0,3.047,0c1.308,0,2.262,0,2.865,0
		c2.575,0.243,4.606,0.997,6.095,2.253c1.085,0.895,1.95,2.191,2.593,3.892c0.644,1.699,0.965,4.093,0.965,7.179v1.157h-5.188
		v-1.751c0-1.567-0.08-2.754-0.24-3.559c-0.282-1.408-0.815-2.444-1.599-3.106c-0.785-0.664-1.72-1.097-2.805-1.298
		c-1.086-0.201-2.494-0.303-4.224-0.303h-1.026c-3.499,0-5.973,0.102-7.419,0.303c-2.695,0.362-4.666,1.167-5.913,2.412
		c-0.604,0.726-1.086,1.591-1.448,2.596c-0.363,1.006-0.543,2.353-0.543,4.041v14.843c0,3.298,0.211,5.74,0.633,7.33
		c0.423,1.588,1.086,2.785,1.972,3.589c0.854,0.886,1.92,1.448,3.217,1.689c0.081,0,1.327,0.119,3.75,0.362h3.098
		c0.804,0,1.94-0.041,3.388-0.121c1.458-0.08,2.494-0.122,3.097-0.122c0.965-0.119,1.74-0.241,2.303-0.36
		c1.257-0.282,2.222-0.764,2.906-1.448c1.055-0.965,1.579-2.332,1.579-4.102c0-0.524,0-1.388,0-2.596c0-1.206,0-2.071,0-2.594h5.068
		V214.444z"/>
</g>
</svg>
