<svg xmlns="http://www.w3.org/2000/svg" width="640" height="360" viewBox="0 0 640 360"><g fill-rule="evenodd" clip-rule="evenodd"><path d="M250.32 13.962l6.608 8.847h10.988v-3.054h140.607v-3.054h15.28v-3.062h27.51v-3.054h45.847v-.585h-249.799l2.718 3.639zM267.541 326.451l-12.054 17.057-.173.244h.001l-3.959 5.602 3.959-5.602h.377v-.533l-.145.205 6.247-8.84h.014v6.113h3.054v-10.455zM439.088 120.623h3.055v-9.17h-3.055v3.054zM267.916 328.475h3.062v9.169h3.053v9.17h3.054v3.186h9.171v-.131h-3.054v-6.117h-3.054v-9.168h-3.063v-6.109h-3.054v-6.116h-3.053v-.772l3.881-5.493-6.943 9.825zM258.746 349.869h3.062v.131h-3.062zM267.916 340.697h-3.054v9.303h6.116v-3.186h-3.062zM533.84 77.828h3.061v3.062h-3.061zM247.166 350h5.471v-.131h-3.06v-1.067l1.779.552-4.19-1.301zM536.9 80.89h3.055v3.054h-3.055zM552.18 90.059h-3.055v-3.061h-3.055v-3.055h-6.115v6.116h3.055v6.109h3.06v24.455h3.055v6.116h3.055v-3.062h3.062v-12.224h-3.062zM555.242 50.318v-3.054h6.107v-3.054h6.117v-3.061h6.115v-3.055h9.17v-3.054h6.107v-3.062h6.115v-3.055h6.115v-3.054h6.109v-3.062h9.17v-3.054h6.115v-3.055h6.115v-3.062h.518v-3.054h-6.633v3.054h-6.115v3.062h-6.109v3.055h-3.061v-3.055h3.061v-3.062h6.109v-3.054h6.115v-.582h-12.222v.585h-3.061v3.054h-6.109v3.062h-6.115v-3.062h3.053v-3.054h-6.107v-.585h-9.168v.585h6.107v3.054h-6.107v3.062h-3.063v3.055h-6.107v3.054h-9.17v3.062h-12.233v-3.062h12.232v-3.054h9.17v-3.055h3.053v-3.062h-3.053v-3.054h3.053v-.585h-51.965v.585h-12.223v3.054h-12.227v3.062h-21.4v3.055h-33.617v3.054h-27.51v3.062h-42.793v3.054h-21.395v-3.054h-27.51v3.054h-64.188v-3.054h-2.593l-.508-.68 24.545 32.865-3.492-4.676h40.12v3.055h15.286v-3.056h6.109v-3.062h6.113v-3.054h15.287v3.054h-6.115v3.062h-3.055v6.11h-3.063v3.061h-6.107v-3.061h-15.285v3.061h-6.115v3.055h30.57v3.053h21.396v-3.053h9.17v3.053h-3.055v3.063h-51.965v-3.063h-15.286v-3.053h-24.874l20.863 27.935 62.875 84.188-13.016 18.42v.888h9.172v3.061h-11.962l-41.033 58.072h1.037v3.056h3.053v3.062h3.056v6.108h3.061v3.063h3.055v6.106h3.055v3.062h3.061v3.055h3.055v6.115h-6.116v-3.061h-3.055v-3.055h-3.055v-3.055h-3.061v-6.116h-3.056v-3.053h-3.053v-3.063h-3.063v-6.108h-2.297l-31.32 44.323v7.635h3.054v6.115h3.055v9.17h3.061v9.168h3.054v6.117h3.056v3.186h9.168v-3.186h-3.053v-6.118h-3.055v-6.113h3.055v3.06h3.053v3.054h3.063v6.118h3.053v3.185h152.833v-.131h3.055v-12.226h3.053v-21.399h3.063v21.399h-3.063v12.226h-3.053v.131h162.52v-45.98h-.518v-3.055h-6.115v-3.062h-3.055v-3.055h-6.115v-3.054h-3.055v-3.061h-3.061v-3.055h-6.109v-3.055h-3.063v-3.062h-6.107v-3.054h-3.061v-3.053h-3.055v-3.063h-3.053v-3.055h-3.063v-3.054h-3.055v-3.062h-3.053v-3.056h-3.063v-9.164h-3.053v-6.114h-3.055v-3.055h-3.063v-3.055h-3.053v-3.062h6.115v3.062h3.055v3.055h6.115v3.055h6.107v3.061h3.063v3.053h6.107v3.054h6.115v3.063h3.053v3.053h6.117v3.056h3.055v3.062h6.115v3.054h6.115v3.055h3.055v3.063h6.115v3.053h.518v-21.394h-.513v-18.34h.518v-61.135h-.518v-21.393h.518v-15.286h-.518v-12.224h-3.061v6.108h-3.055v-48.906h6.115v39.733h.518v-51.956h-.517v-6.115h.518v-27.51h-.518v3.055h-6.115v3.061h-6.115v3.055h-9.17v3.054h-12.225v3.062h-9.17v3.055h-6.115v3.055h-9.17v3.061h-9.17v-3.063h3.063v-3.055h6.107v-3.055h6.115v-3.062h12.224v-3.054h6.115v-3.054h12.225v-3.061h6.115v-3.055h6.115v-3.054h6.109v-3.062h3.578v-9.17h-6.633v3.062h-6.115v3.054h-9.17v3.055h-6.109v3.062h-9.17v3.054h-6.115v3.055h-6.115v3.061h-6.107v3.055h-6.115v3.054h-3.055v3.062h-3.063v3.055h-6.107v-3.057h-3.063v-3.062h3.063zm30.563-33.617h6.115v3.055h-6.115v-3.055zm-241.469 30.564h-21.4v3.054h-45.462l-.388-.52v-2.534h-1.892l-2.282-3.055h25.575v3.055h9.17v-3.055h21.394v-3.061h15.285v6.116zm30.564 3.053h-3.055v3.062h-6.115v-6.115h9.17v3.053zm-64.19 284.266h-3.053v-3.055h-3.063v-3.055h-3.053v-3.063h-3.055v-6.106h-3.061v-3.062h6.115v3.062h3.053v6.106h3.063v6.117h3.053v3.056zm51.966-12.225h-6.115v-6.116h-3.055v-3.055h-3.063v-64.18799999999999h3.063v3.054h3.055v3.063h-3.055v6.108h3.055v36.679h3.053v3.062h3.063v21.393zm256.754-149.772h3.055v-6.115h3.055v15.287h3.061v3.053h-3.061v6.115h-6.109v-18.34zm0 51.959v-3.055h3.055v9.17h-3.055v18.339h-3.061v-24.455000000000002h3.061zm-6.116-134.487h3.055v36.68h-3.055v-36.68zm-3.054 51.959h6.109v6.114h-6.109v-6.114zm0 9.169h6.109v9.169h-3.055v64.19h-3.055v-73.359zm-6.115-36.68h3.055v9.17h-3.055v-9.17zm-73.358-91.698h6.113v-3.054h12.225v3.054h-6.115v3.062h-12.223v-3.062zm-33.627 6.115h9.17v3.055h-9.17v-3.055zm-67.242 21.394h9.17v-3.054h3.055v3.054h-3.055v3.062h-9.17v-3.062zm0 9.172h6.115v-3.055h6.109v6.116h-12.225v-3.061zm-24.455-18.341h6.115v-3.055h6.115v6.115h-12.23v-3.06zm-9.17 21.401h15.285v3.055h21.395v3.053h-6.109v3.063h-27.508v-3.063h12.223v-3.053h-15.285v-3.055zm27.51 18.34v3.054h-6.109v3.055h-15.285v-3.055h9.17v-3.054h12.224zm-39.733-3.062h18.338v3.062h-18.338v-3.062zm-79.475 3.062v3.054h-2.008l-4.566-6.116h3.521v-3.054h-5.803l-2.28-3.054h17.251v3.054h15.286v3.054h15.279v3.062h-15.279v-3.062h-24.455v3.062h3.054zm9.17 6.108h6.115v3.061h-6.115v-3.061zm67.251 97.814h-9.17v-3.053h9.17v3.053zm9.17 162.002h-3.063v-12.23h3.063v12.23zm12.222-183.397h-6.115v-3.062h-6.107v-3.053h-9.17v-3.055h-3.061v-3.062h-6.109v-3.055h-3.061v-3.054h-3.055v-3.061h-6.117v-3.055h-6.107v-3.054h-6.117v-3.063h-3.053v-3.054h-3.061v-3.054h-3.055v-3.062h-5.959l-.156-.21v-2.845h-2.125l-.93-1.246v-1.808h-1.35l-13.699-18.34h2.825v3.055h6.108v3.054h6.115v3.062h3.055v3.054h6.115v3.055h6.115v3.062h6.107v3.054h6.117v3.055h3.053v3.062h6.117v3.054h6.115v3.054h6.109v3.063h6.115v3.054h6.115v3.055h3.055v3.061h6.115v3.054h3.053v15.285zm-58.072-55.018v-3.062h3.053v3.062h-3.053zm58.072 0h-6.115v3.054h-39.732v-6.115h45.848v3.061zm3.055-9.17h-6.107v-3.061h-18.34v-6.109h-24.455v-3.061h-21.395v-3.055h45.85v6.115h18.34v6.109h6.107v3.062zm39.74 116.147h-3.061v3.061h-3.055v3.055h3.055v12.224h-3.055v27.51h3.055v6.115h-3.055v3.055h-3.055v3.063h3.055v3.053h3.055v21.394h-3.055v3.062h-3.055v3.055h-9.17v-3.055h-3.061v-6.116h-3.055v-30.563h3.055v-15.289h3.061v-42.795h-3.061v-9.169h-3.055v-6.109h-3.055v-6.115h-3.061v-9.17h-3.055v-18.338h-3.055v-12.225h3.055v-3.061h-3.055v-9.171h3.055v9.171h3.055v-12.225h-3.055v-12.224h3.055v-6.116h3.061v-9.169h3.055v-6.116h3.055v-3.055h6.115v6.115h-3.055v3.055h-3.061v3.054h-3.055v6.115h-3.055v9.17h3.055v-3.054h3.055v-9.17h3.061v9.17h-3.061v9.17h-3.055v9.17h3.055v-3.063h3.061v30.571h3.055v9.17h3.055v9.171h3.061v3.053h3.055v9.17h3.055v9.169h3.061v12.227zm-12.23-76.413v3.055h-3.055v-3.055h3.055zm64.187 131.432h-3.055v3.063h-9.17v-3.063h-3.053v-3.055h15.277v3.055zm12.233-15.279h-3.063v3.053h-3.055v-9.169h-3.055v12.225h3.055v3.062h-3.055v-3.062h-3.061v3.062h-12.225v-3.062h-3.053v-9.171h3.053v-6.107h-3.053v-3.061h21.393v6.114h3.055v-3.054h3.063v9.17zm58.074-186.458h3.053v-3.053h9.17v3.053h-3.055v3.063h-9.168v-3.063zm-3.055 91.698v-9.169h3.055v-6.108h-3.055v-6.115h3.055v-42.796h3.053v3.061h3.063v3.055h3.053v9.169h3.055v39.734h-3.055v9.169h-3.053v6.116h-3.063v3.054h-3.053v6.115h-3.055v6.118h-3.063v6.106h-3.053v3.062h-3.055v3.055h-3.063v12.224h-3.055v21.402h3.055v9.169h3.063v30.563h-3.063v6.117h-3.055v3.053h-3.055v3.054h-3.061v-3.054h-3.055v-6.115h3.055v3.063h3.061v-6.117h-6.115v-21.394h-3.053v-30.57h-3.061v-15.279h3.061v-6.115h3.055v-6.116h3.055v-3.054h3.061v-3.053h3.055v-3.063h3.055v-3.055h3.063v-3.054h3.055v-6.115h3.053v-6.116h3.06zm-9.17-88.636v3.054h3.055v9.169h3.053v45.849000000000004h-6.107v18.339h3.055v9.171h-3.055v3.053h-3.063v3.062h-3.055v3.055h-3.055v3.054h-3.061v3.062h-3.055v6.109h-3.054v6.115h-3.061v6.115h-3.053v6.109h-3.055v9.169h-3.063v6.116h-3.055v-18.34h3.055v-9.17h3.063v-6.115h3.055v-6.109h3.053v-3.062h3.061v-6.108h3.055v-3.062h3.055v-6.107h3.061v-6.117h-3.061v3.055h-6.11v6.117h-3.061v3.053h-3.053v3.062h-3.055v6.108h-3.063v3.062h-3.055v3.054h-3.053v15.286h-3.061v21.395h-3.055v6.115h-3.055v3.055h-3.063v3.055h6.117v-3.055h3.055v-3.055h3.061v-3.061h3.053v6.115h-3.053v6.116h-3.061v3.054h-6.109v3.054h-3.063v3.062h-18.34v-3.062h-3.055v-3.054h-3.053v-3.054h-3.063v-3.062h-3.053v-6.109h3.053v3.055h6.115v-6.115h-3.053v-9.171h-3.063v-12.224h-3.053v-6.116h-3.055v-6.106h-3.063v-3.063h-3.053v6.115h3.053v6.115h3.063v15.278h-3.063v-9.169h-3.053v-6.109h-3.055v-3.062h-3.061v-3.054h-3.055v-3.053h-3.055v-3.063h-3.061v-3.055h-3.055v-3.054h-3.055v-6.115h-3.061v-15.286h-3.055v-21.394h-3.055v-12.224h-3.061v-15.286h3.061v9.169h3.055v-15.284h-6.115v-6.109h3.061v-9.167h3.055v-3.062h3.055v-6.108h3.061v-3.063h3.055v-3.053h3.055v-3.054h3.061v-3.06h3.055v-3.055h3.055v-3.055h6.115v-3.062h3.053v-3.054h6.117v-3.054h9.168v-3.061h33.627v3.061h12.225v3.055h3.053v3.054h3.061v3.062h6.109v3.055h3.061v3.055h3.055v3.061h3.055v9.17h3.068zm-6.117-27.51v3.055h-6.115v-3.055h-3.055v-3.061h6.115v-3.055h-18.338v-3.054h15.277v-3.062h12.232v3.062h-6.117v3.054h12.225v-3.054h6.117v3.054h-6.117v3.055h-6.107v3.061h-6.117zM274.859 316.094l5.289-7.485v-.001zM288.889 65.605h.001l-5.638-7.549zM506.33 166.472h-9.17v3.054h-3.055v3.062h-3.053v9.171h-3.063v27.508h3.063v3.055h3.053v3.055h12.225v-15.279h3.063v-24.456h-3.063v-9.17zm-3.055 36.678h-3.055v3.055h-3.061v-6.108h6.115v3.053zM315.788 258.169l-3.794 5.372 3.796-5.372zM311.467 264.286h.001l.526-.745zM457.428 108.399v-3.062h3.054v-3.054h3.061v-3.054h6.107v-3.061h12.233v-3.055h-18.34v3.055h-3.061v3.061h-3.054v3.054h-3.055v3.054h-3.06v3.062h-3.055v27.51h-3.055v6.109h3.055v-3.055h3.055v-6.116h3.06v-24.448zM475.768 120.623v-3.054h-12.225v3.054h-6.115v9.17h3.054v-3.054h3.061v-3.062h12.225v3.062h3.052v3.054h3.063v-9.17zM478.82 135.909h3.063v3.054h-3.063zM481.883 129.793h3.053v6.116h-3.053zM460.482 129.793h6.115v3.054h-6.115zM460.482 135.909h-3.054v-3.062h-3.055v6.116h3.055v3.055h12.222v3.06h-3.052v3.054h9.17v-6.114h3.052v-3.055h-18.338zM472.713 68.658h9.17v3.063h-9.17zM518.563 65.605h-9.17v-3.055h-9.172v3.055h-18.338v3.053h36.68zM463.543 77.828h3.055v-3.054h6.115v-3.054h-9.17v3.054h-3.061v3.054h-3.054v3.062h6.115zM512.447 145.078h-3.054v-24.455h-3.063v3.054h-3.055v12.232h3.055v12.223h3.063v3.055h-6.118v3.062h-3.054v3.054h6.109v3.053h3.063v-3.053h3.054v-3.054h3.055v-3.062h-3.055zM515.502 99.229h-3.055v12.224h3.055v-9.17h3.061v-3.054h3.052v-3.061h-6.113zM530.787 99.229h9.168v-3.061h-6.115v-3.055h-12.225v3.055h9.172zM524.67 114.507v3.062h-3.055v3.054h-3.052v3.054h6.107v-3.054h3.062v-3.054h6.108v-3.062zM533.84 117.569h3.061v3.054h-3.061zM518.563 138.963h6.107v3.055h3.062v6.114h6.108v-3.054h-3.053v-3.06h3.053v-3.055h3.06v-3.054h-18.337zM497.16 151.187h-6.107v3.062h-3.063v-3.062h-3.054v6.116h12.224zM423.803 96.168h3.061v3.061h-3.061zM448.258 157.303h3.055v3.053h-3.055zM454.373 160.356h-3.06v3.061h-3.055v3.055h3.055v3.054h3.06v-3.054h3.055v-3.055h-3.055zM356.844 200.098l2.792-3.952.001.001-2.792 3.952zM539.955 123.677h3.055v12.232h-3.055zM518.563 126.739h-3.061v3.054h-3.055v3.054h6.116zM491.053 117.569h3.053v6.108h-3.053zM527.732 126.739h3.055v3.054h-3.055z"/></g><path d="M106.618 186.392h-17.918v36.317h16.53c2.092 0 3.832-.229 5.219-.692 1.388-.461 2.523-1.317 3.408-2.563.885-1.249 1.509-3.057 1.871-5.43.242-1.65.363-3.661.363-6.034v-10.016c0-3.135-.625-5.69-1.871-7.66-1.65-2.616-4.183-3.922-7.602-3.922zM77.178 116.771c-.483-.845-1.217-1.489-2.202-1.931-.985-.443-2.423-.664-4.313-.664h-16.109v18.642h14.479c3.86 0 6.294-.563 7.3-1.689.724-.844 1.216-1.83 1.479-2.956.26-1.126.391-2.494.391-4.103 0-1.648-.08-3.106-.241-4.374-.161-1.266-.422-2.242-.784-2.925zM272.75 94.187l-62.876-84.187-99.496 33.783-99.496 33.784 1.383 105.065 1.384 105.066 100.351 31.151 100.352 31.151 60.637-85.813 60.636-85.813-62.875-84.187zm-66.587 15.524h5.188v19.909h26.545v-19.909h5.067v45.248h-5.067v-20.875h-26.545v20.875h-5.188v-45.248zm-41.568 13.877c0-4.344.905-7.602 2.716-9.774 1.568-1.89 3.921-3.157 7.058-3.801 2.092-.443 4.927-.663 8.506-.663h7.54c2.574.242 4.605.996 6.094 2.252 1.085.895 1.95 2.192 2.593 3.891.644 1.698.965 4.093.965 7.179v1.157h-5.188v-1.75c0-1.569-.08-2.755-.242-3.56-.282-1.408-.814-2.443-1.599-3.106-.784-.664-1.719-1.098-2.805-1.298-1.085-.201-2.494-.302-4.224-.302h-1.025c-3.5 0-5.973.101-7.421.302-2.695.362-4.666 1.167-5.912 2.414-.604.724-1.086 1.588-1.448 2.593-.361 1.006-.542 2.353-.542 4.043v14.842c0 3.297.211 5.74.633 7.33.422 1.589 1.086 2.785 1.971 3.589.854.885 1.92 1.448 3.217 1.689.081 0 1.327.121 3.75.361h3.097c.805 0 1.941-.04 3.389-.12 1.458-.081 2.494-.121 3.097-.121.965-.121 1.739-.243 2.302-.362 1.258-.281 2.222-.765 2.906-1.448 1.056-.965 1.579-2.333 1.579-4.103v-5.188h5.067v2.594c0 2.332-.121 4.082-.362 5.249-.402 1.93-1.207 3.52-2.413 4.766-1.206 1.248-2.977 2.112-5.309 2.595-1.609.321-3.681.482-6.214.482h-8.325c-2.092 0-3.841-.221-5.25-.663-1.407-.443-2.936-1.367-4.584-2.775-1.005-.885-1.86-2.292-2.564-4.222-.704-1.931-1.056-4.022-1.056-6.275v-17.797zm36.44 58.339v45.247h-5.067v-45.247h5.067zm-123.556 4.465h-24.011v15.444h22.985v4.224h-22.985v16.649h24.011v4.465h-29.079v-45.247h29.079v4.465zm5.309-57.193c-.442 1.93-1.186 3.519-2.232 4.766-.885 1.127-2.021 1.981-3.409 2.564-1.387.583-3.188.875-5.399.875h-17.194v17.555h-5.068v-45.248h22.925c4.424 0 7.421 1.409 8.989 4.223.685 1.207 1.167 2.625 1.448 4.253.282 1.629.423 3.429.423 5.4 0 2.253-.161 4.124-.483 5.612zm38.37 80.058c0 3.62-.423 6.656-1.268 9.109-1.126 3.257-2.996 5.61-5.61 7.059-.925.604-2.011 1.045-3.258 1.327-1.247.281-2.594.422-4.042.422h-23.407v-45.247h22.141c3.459 0 6.294.604 8.507 1.811 1.97 1.046 3.559 2.634 4.766 4.767 1.448 2.734 2.172 6.436 2.172 11.101v9.651zm-.272-60.33c-.623 1.89-1.619 3.317-2.987 4.284-1.447.885-3.619 1.488-6.515 1.809-1.93.202-4.464.302-7.601.302h-1.87c-2.534 0-4.465-.121-5.792-.362-2.132-.402-3.831-1.105-5.098-2.111-1.268-1.005-2.152-2.313-2.655-3.921-.502-1.609-.753-3.399-.753-5.369.08-.484.141-.996.181-1.54.04-.542.06-.935.06-1.176h5.067l-.12 1.036c0 1.87.12 3.448.362 4.735.241 1.278.745 2.252 1.508 2.896 1.006.895 2.313 1.348 3.921 1.348h8.386c1.77 0 3.258-.111 4.465-.332 1.206-.221 2.232-.613 3.076-1.197.845-.573 1.408-1.448 1.689-2.604.282-1.155.423-2.593.423-4.313v-.714c0-1.277-.101-2.402-.302-3.358-.201-.956-.623-1.739-1.267-2.333-.644-.685-1.649-1.146-3.017-1.408-1.368-.262-2.997-.392-4.887-.392-3.902 0-6.737-.102-8.506-.302-3.378-.362-5.913-1.167-7.603-2.412-1.166-.885-1.99-2.053-2.473-3.5-.482-1.448-.724-3.218-.724-5.31 0-2.574.271-4.746.815-6.515.542-1.77 1.367-3.117 2.473-4.042 1.105-.925 2.584-1.619 4.435-2.082 1.85-.462 4.886-.693 9.109-.693 3.378 0 6.093.181 8.145.543s3.64.994 4.766 1.9c1.126.905 1.951 2.131 2.474 3.68s.784 3.329.784 5.339v1.267h-5.067c0-1.528-.081-2.805-.241-3.831-.161-1.025-.544-1.86-1.147-2.503-.644-.805-1.699-1.328-3.167-1.569-1.468-.242-3.649-.362-6.545-.362h-1.268c-2.211 0-4.002.111-5.369.332s-2.533.714-3.499 1.478c-.563.442-.956 1.166-1.177 2.172s-.332 2.232-.332 3.68c0 2.133.222 3.702.664 4.707.443 1.005 1.096 1.739 1.961 2.202.865.463 2.012.785 3.439.966 1.428.181 2.927.271 4.495.271h2.776c2.976 0 5.369.141 7.178.423 1.81.28 3.419.915 4.826 1.9 1.409.985 2.395 2.625 2.957 4.917.322 1.367.483 3.117.483 5.249 0 2.652-.313 4.925-.936 6.815zm34.72 37.465h-24.012v15.444h22.987v4.224h-22.987v16.649h24.012v4.465h-29.079v-45.247h29.079v4.465zm-10.557-50.315v18.882h-5.189v-18.882l-16.53-26.365h5.913l13.373 21.217 13.473-21.217h6.154l-17.194 26.365zm17.315 45.85h5.188v40.782h22.986v4.465h-28.174v-45.247zm14.055 91.016h-5.43v-6.155h5.43v6.155zm39.275-10.014c0 1.648-.181 3.126-.542 4.434-.363 1.307-1.056 2.434-2.082 3.38-1.026.944-2.494 1.628-4.404 2.05-1.91.424-4.132.634-6.667.634-2.655 0-4.807-.201-6.455-.604-1.649-.401-3.097-1.188-4.344-2.353-1.287-1.328-2.102-2.886-2.443-4.676-.342-1.79-.514-4.555-.514-8.295 0-3.982.172-6.848.514-8.598.341-1.749 1.035-3.248 2.081-4.494 1.328-1.568 3.158-2.595 5.491-3.077 1.327-.28 3.458-.422 6.394-.422 2.012 0 3.871.19 5.581.573 1.709.381 2.986.895 3.83 1.538 1.288.965 2.172 2.354 2.655 4.163.282 1.086.423 2.553.423 4.404h-4.827v-.664c0-.966-.121-1.911-.361-2.836-.241-.926-.625-1.628-1.147-2.112-.482-.362-1.196-.652-2.142-.873-.945-.223-2.362-.333-4.253-.333h-1.146c-1.77 0-3.077.101-3.922.302-.845.201-1.709.725-2.593 1.568-.644.685-1.097 1.669-1.358 2.957-.261 1.287-.392 2.815-.392 4.585v6.153999999999999c0 1.728.141 3.207.422 4.434.282 1.227.795 2.202 1.539 2.926.744.725 1.729 1.187 2.956 1.389 1.227.199 2.725.3 4.495.3 1.851 0 3.308-.039 4.374-.12 1.066-.079 2.001-.502 2.806-1.267.523-.484.875-1.217 1.056-2.202.182-.984.272-2.063.272-3.227v-1.026h4.705v1.388zm28.537-17.196l-18.874 23.408 18.874-.059v3.86h-24.554v-4.343l19.003-23.47h-17.315v-3.859h22.866v4.463zm0-31.289c0 2.332-.121 4.083-.362 5.25-.402 1.929-1.207 3.52-2.414 4.765-1.206 1.248-2.976 2.112-5.308 2.595-1.609.322-3.68.483-6.213.483h-8.326c-2.092 0-3.841-.223-5.249-.664-1.407-.442-2.936-1.367-4.585-2.775-1.005-.884-1.86-2.292-2.564-4.223s-1.056-4.022-1.056-6.274v-17.797c0-4.346.905-7.603 2.715-9.775 1.568-1.889 3.922-3.154 7.059-3.8 2.091-.441 4.927-.664 8.506-.664h7.54c2.575.243 4.606.997 6.095 2.253 1.085.895 1.95 2.191 2.593 3.892.644 1.699.965 4.093.965 7.179v1.157h-5.188v-1.751c0-1.567-.08-2.754-.24-3.559-.282-1.408-.815-2.444-1.599-3.106-.785-.664-1.72-1.097-2.805-1.298-1.086-.201-2.494-.303-4.224-.303h-1.026c-3.499 0-5.973.102-7.419.303-2.695.362-4.666 1.167-5.913 2.412-.604.726-1.086 1.591-1.448 2.596-.363 1.006-.543 2.353-.543 4.041v14.843c0 3.298.211 5.74.633 7.33.423 1.588 1.086 2.785 1.972 3.589.854.886 1.92 1.448 3.217 1.689.081 0 1.327.119 3.75.362h3.098c.804 0 1.94-.041 3.388-.121 1.458-.08 2.494-.122 3.097-.122.965-.119 1.74-.241 2.303-.36 1.257-.282 2.222-.764 2.906-1.448 1.055-.965 1.579-2.332 1.579-4.102v-5.1899999999999995h5.068v2.593z"/></svg>