<?xml version="1.0" encoding="utf-8"?>
<!-- Generator: Adobe Illustrator 16.0.0, SVG Export Plug-In . SVG Version: 6.00 Build 0)  -->
<!DOCTYPE svg PUBLIC "-//W3C//DTD SVG 1.1//EN" "http://www.w3.org/Graphics/SVG/1.1/DTD/svg11.dtd">
<svg version="1.1" id="Layer_1" xmlns="http://www.w3.org/2000/svg" xmlns:xlink="http://www.w3.org/1999/xlink" x="0px" y="0px"
	 width="640px" height="360px" viewBox="0 0 640 360" enable-background="new 0 0 640 360" xml:space="preserve">
<g>
	<path d="M368.649,252.947h0.151l2.155-0.146l-1.263,5.343l-0.893,0.151c-1.258,0.146-2.447,1.404-2.447,4.081v0.297
		c0,0.893-0.59,2.009-0.59,2.599s0.438,0.966,1.185,0.966h0.668c-0.814,4.378-1.853,7.425-2.004,8.234l-0.151,0.595v0.298
		c0,1.638,0.819,2.749,3.34,2.749h0.448c0.444,0.146,1.186,0.146,2.004,0.146c1.19,0,1.931-0.448,2.302-2.004l0.146-0.595
		c0.668-2.521,1.633-5.646,2.379-9.575c2.004,0,3.267,0,3.554,0c0.303,0,1.195-0.146,2.458-0.146h0.595
		c1.481,0,2.594-0.595,2.594-3.861v-0.297c0-1.336,0.448-2.004,0.448-2.447c0-1.039-0.741-1.487-1.561-1.487h-0.59
		c-0.15,0-2.301,0-5.494,0l1.189-4.9h5.563l0.444-0.146c1.638,0,1.403-0.893,2.604-3.789l0.15-0.37
		c0.439-1.116,0.439-2.233,0.439-2.525c0-0.819-0.439-1.111-1.409-1.111l-0.448-0.146c-2.599,0-4.896,0-6.826,0
		c-5.041,0-7.942,0.146-8.093,0.146h-0.444c-1.111,0-2.149,0.741-2.744,3.49l-0.146,0.146c-0.298,1.711-0.6,2.901-0.6,3.413
		C367.763,252.504,368.064,252.947,368.649,252.947z"/>
	<path d="M338.958,240.403c1.639,0,3.198-0.371,5.124-1.185c-6.528,9.054-11.652,14.919-13.583,16.474
		c-0.673,0.521-3.042,2.452-3.042,3.423c0,2.516,5.636,3.925,6.83,4.222c5.197,0.673,7.646-0.219,8.908-0.809
		c3.632-1.634,9.204-8.542,14.178-16.484c6.533-10.395,10.316-21.008,10.316-30.657c0-13.065-6.758-21.008-18.483-21.008
		c-7.571,0-15.064,4.529-19.525,12.174c-3.038,5.275-4.822,10.838-4.822,16.187C324.858,233.275,331.089,240.403,338.958,240.403z
		 M347.865,207.962c2.975,0,5.202,2.53,5.202,6.83c0,6.763-0.896,10.911-5.494,17.449c1.189-3.271-0.225-6.977-3.193-6.977h-0.59
		c-1.634,0-4.013-2.232-4.013-5.943C339.777,213.607,343.565,207.962,347.865,207.962z"/>
	<path d="M234.153,240.403c1.627,0,3.186-0.371,5.119-1.185c-6.536,9.054-11.652,14.919-13.586,16.474
		c-0.667,0.521-3.047,2.452-3.047,3.423c0,2.516,5.644,3.925,6.831,4.222c5.196,0.673,7.647-0.219,8.909-0.809
		c3.639-1.634,9.209-8.542,14.176-16.484c6.535-10.395,10.323-21.008,10.323-30.657c0-13.065-6.756-21.008-18.484-21.008
		c-7.576,0-15.072,4.529-19.525,12.174c-3.045,5.275-4.826,10.838-4.826,16.187C220.043,233.275,226.28,240.403,234.153,240.403z
		 M243.058,207.962c2.97,0,5.192,2.53,5.192,6.83c0,6.763-0.889,10.911-5.487,17.449c1.183-3.271-0.226-6.977-3.192-6.977h-0.598
		c-1.634,0-4.008-2.232-4.008-5.943C234.965,213.607,238.753,207.962,243.058,207.962z"/>
	<path d="M384.096,274.775c-0.151,0.438-0.151,0.736-0.151,0.887c0,1.039,0.892,1.634,3.34,2.307h0.302
		c1.039,0,1.707,0.292,2.146,0.292c1.341,0,1.414-0.668,1.857-2.004l0.151-0.443c1.481-4.383,2.667-11.584,5.567-20.857
		c-0.292,6.231-0.892,13.062-0.892,19.517v0.453v0.142c0,1.189,1.038,2.082,3.344,2.901l0.371,0.146c0.59,0,1.043,0,1.331,0
		c1.711,0,2.525-0.521,3.642-2.749l0.142-0.298c3.72-7.498,6.908-14.329,9.365-20.262c-1.263,10.321-2.9,17.366-2.9,20.408v0.298
		c0,0,0,0.302,0,0.6c0,1.258,0.741,2.003,3.047,2.003h0.888c2.599,0,3.783-0.818,3.783-2.9v-0.438c0-1.857,0.893-6.314,1.414-13.291
		c0.595-7.498,1.336-12.022,1.336-13.14v-0.595c0-1.779-0.966-3.339-4.529-3.339h-0.298c-0.37,0-1.409-0.293-2.009-0.293
		c-1.853,0-2.667,1.258-3.188,2.15l-0.297,0.448c-1.409,2.219-4.306,8.976-8.908,18.849c0.522-9.132,0.673-14.621,0.673-16.401
		v-0.819c0-2.374-1.043-2.521-4.753-3.788l-0.449-0.146c-0.443-0.146-1.701-0.146-2.744-0.146c-1.268,0-2.077,0.814-2.453,1.706
		l-0.146,0.298c-1.112,2.301-6.978,20.267-8.98,28.204V274.775z"/>
	<path d="M278.466,261.114h0.593c1.56,0,2.677,0.297,3.485,0.297c2.155,0,3.564-1.185,4.086-3.715l0.298-0.517
		c1.038-3.413,2.964-13.062,6.455-27.839c2.974-11.647,5.421-21.077,7.055-28.132l0.297-0.59c0-0.896,0-1.116,0-1.414
		c0-1.931-2.447-3.642-6.016-4.305h-0.518c-2.152-0.229-3.264-0.229-3.785-0.229c-1.929,0-2.967,0.6-3.786,1.717l-0.521,0.59
		c-5.192,6.83-8.679,10.765-10.09,12.169l-0.227,0.303c-0.814,1.116-1.634,1.931-1.634,3.115c0,1.189,1.039,1.711,2.45,2.228
		l3.781,2.004c-5.72,22.72-8.679,35.187-8.976,37.487v0.819c-0.229,0.893-0.229,1.706-0.229,1.706
		C271.185,259.7,273.563,260.816,278.466,261.114z"/>
	<path d="M298.657,264.751c-0.965,3.34-2.228,6.158-2.827,10.463c1.936,0.971,2.379,1.116,4.229-0.288
		c3.417-2.754,14.779-14.777,8.393-20.053c-1.111-0.887-3.267-1.999-5.565-1.701C297.839,253.767,294.353,261.188,298.657,264.751z"
		/>
	<path d="M364.793,147.319c5.271,0,8.615-10.171,8.615-26.872c0-16.257-3.345-26.356-8.615-26.356c-5.343,0-8.834,10.1-8.834,26.356
		C355.959,137.148,359.45,147.319,364.793,147.319z"/>
	<path d="M306.668,120.447c0-15.215-3.262-23.829-9.352-23.829h-0.297v48.103h0.297
		C303.406,144.721,306.668,135.663,306.668,120.447z"/>
	<polygon points="237.787,177.156 237.288,173.88 236.834,177.507 	"/>
	<path d="M223.165,107.755c0-8.614-2.008-13.664-5.645-13.664h-0.222v27.84h0.222C221.157,121.931,223.165,116.885,223.165,107.755z
		"/>
	<polygon points="259.091,96.1 255.75,131.06 261.983,131.06 	"/>
	<path d="M150,10.001v339.998h340V10.001H150z M428.633,58.091v120.103l-12.247,3.566v-75.492l-6.978,7.571l-3.49-22.271
		L428.633,58.091z M348.987,75.833c4.227-10.614,9.57-16.7,15.806-16.7c6.012,0,11.507,6.086,15.519,16.7
		c4.452,11.136,6.606,26.351,6.606,44.614c0,18.703-2.154,33.404-6.606,45.057c-4.012,10.691-9.507,17.223-15.519,17.223
		c-6.235,0-11.579-6.531-15.806-17.223c-4.159-11.652-6.611-26.354-6.611-45.057C342.376,102.184,344.828,87.49,348.987,75.833z
		 M324.639,63.66l13.364-2.525v117.06l-13.364,3.048V63.66z M283.437,62.177h16.111c4.007,0,8.239,3.042,11.208,8.61
		c6.01,10.092,9.5,28.354,9.5,49.66c0,21.752-3.49,40.011-9.5,50.181c-2.969,5.567-7.201,8.61-11.208,8.61h-16.111V62.177z
		 M203.936,62.177h16.701c10.395,0,15.888,12.615,15.888,34.441c0,14.18-2.152,24.792-6.382,30.436l7.146,46.826l13.937-111.703
		h16.104l13.88,115.499l-14.47,4.085l-2.152-21.303h-11.212l-2.149,21.822l-14.476-4.086l0.085-0.688l-12.93,4.773l-6.605-51.221
		v48.179l-13.363,3.042V62.177z M430.018,310.371c-3.106,0.736-12.364,4.627-15.471,3.837c-2.096-0.526-8.249-5.051-10.516-6.626
		c-1.789-1.263-2.16-4.422-4.524-5.261c-3.472-1.155-5.158,1.526-7.05,2.106c-2.053,0.575-5.782-0.063-8.045-0.371
		c-4.529-0.629-11.048-2.949-14.358-5.26c-1.053-0.683-1.316-2.521-2.481-3.155c-1.463-0.789-7.835-1.584-9.098-1.735
		c-1.053-0.166-10.57-0.166-12.306,0.317c-2.16,0.629-4.314,4.733-6.631,5.26c-2.944,0.683-7.308-0.526-9.414,0
		c-1.473,0.361-3.203,2.258-4.578,2.102c-2.155-0.263-4.573-2.896-6.68-3.154c-4.049-0.526-4.261,0.629-6.309-2.423
		c-5.736-8.625-15.833-1.054-24.514-4.944c-0.425-0.155-0.686-1.263-1.054-1.364c-3.103-1.214-6.099-0.107-8.098-2.111
		c-3.313-3.203-4.527-11.623-9.471-12.988c-3.314-0.897-5.944,1.16-7.677,1.424c-2.794,0.365-3.682-2.375-6.684-2.481
		c-4.627-0.2-6.888,1.321-10.153,0.375c-1.788,1.419-4.842,6.309-9.148,6.996c-2.787,0.42-3.687-2.735-5.578-3.529
		c-1.682-0.678-5.101-1.521-5.997-1.727c-4.418-0.95-6.1,0.624-10.15,0.366c-4.794-0.264-7.89-2.848-11.943-3.896v-82.795
		l227.927,0.059V310.371z M458.104,302.683h-14.548v-5.934c0-2.302,0.146-3.939,0.96-5.124c0.893-1.341,2.229-2.009,4.086-2.009
		c3.267,0,5.046,2.009,5.046,5.567v2.823h4.456V302.683z M458.104,238.028c-0.746,0.225-1.263,0.225-1.564,0.225h-1.404
		c-1.561,0-2.082,0.595-2.082,2.077v1.931h5.051v4.598h-14.548v-6.899c0-4.231,1.038-6.089,4.227-6.089
		c1.712,0,2.823,0.673,3.564,2.374c0.297-1.701,1.185-2.374,3.188-2.374l2.004-0.146c0.751,0,0.97,0,1.043-0.448h0.521V238.028z
		 M458.104,181.688l-1.931,0.52v4.678l1.931,0.518v4.675l-14.548-5.192v-4.756l14.548-5.119V181.688z M458.104,125.789h-5.641v4.307
		h5.641v4.676h-14.548v-4.676h4.899v-4.307h-4.899v-4.672h14.548V125.789z M458.104,68.558l-1.931,0.521v4.678l1.931,0.519v4.677
		l-14.548-5.123v-4.75l14.548-5.122V68.558z"/>
	<path d="M448.456,238.175c-1.189,0-1.336,0.673-1.336,2.077v2.009h2.667v-2.155C449.787,238.774,449.495,238.175,448.456,238.175z"
		/>
	<polygon points="453.127,183.097 448.081,184.506 453.127,185.993 	"/>
	<path d="M448.603,294.146c-1.336,0-1.482,0.741-1.482,2.379v1.482h2.965v-1.482C450.085,294.813,449.865,294.146,448.603,294.146z"
		/>
	<polygon points="453.127,69.968 448.081,71.45 453.127,72.864 	"/>
</g>
</svg>
