<svg xmlns="http://www.w3.org/2000/svg" width="640" height="360" viewBox="0 0 640 360"><path d="M368.649 252.947h.151l2.155-.146-1.263 5.343-.893.151c-1.258.146-2.447 1.404-2.447 4.081v.297c0 .893-.59 2.009-.59 2.599s.438.966 1.185.966h.668c-.814 4.378-1.853 7.425-2.004 8.234l-.151.595v.298c0 1.638.819 2.749 3.34 2.749h.448c.444.146 1.186.146 2.004.146 1.19 0 1.931-.448 2.302-2.004l.146-.595c.668-2.521 1.633-5.646 2.379-9.575h3.554c.303 0 1.195-.146 2.458-.146h.595c1.481 0 2.594-.595 2.594-3.861v-.297c0-1.336.448-2.004.448-2.447 0-1.039-.741-1.487-1.561-1.487h-6.084l1.189-4.9h5.563l.444-.146c1.638 0 1.403-.893 2.604-3.789l.15-.37c.439-1.116.439-2.233.439-2.525 0-.819-.439-1.111-1.409-1.111l-.448-.146h-6.826c-5.041 0-7.942.146-8.093.146h-.444c-1.111 0-2.149.741-2.744 3.49l-.146.146c-.298 1.711-.6 2.901-.6 3.413.001.448.302.891.887.891zM338.958 240.403c1.639 0 3.198-.371 5.124-1.185-6.528 9.054-11.652 14.919-13.583 16.474-.673.521-3.042 2.452-3.042 3.423 0 2.516 5.636 3.925 6.83 4.222 5.197.673 7.646-.219 8.908-.809 3.632-1.634 9.204-8.542 14.178-16.484 6.533-10.395 10.316-21.008 10.316-30.657 0-13.065-6.758-21.008-18.483-21.008-7.571 0-15.064 4.529-19.525 12.174-3.038 5.275-4.822 10.838-4.822 16.187-.001 10.535 6.23 17.663 14.099 17.663zm8.907-32.441c2.975 0 5.202 2.53 5.202 6.83 0 6.763-.896 10.911-5.494 17.449 1.189-3.271-.225-6.977-3.193-6.977h-.59c-1.634 0-4.013-2.232-4.013-5.943 0-5.714 3.788-11.359 8.088-11.359zM234.153 240.403c1.627 0 3.186-.371 5.119-1.185-6.536 9.054-11.652 14.919-13.586 16.474-.667.521-3.047 2.452-3.047 3.423 0 2.516 5.644 3.925 6.831 4.222 5.196.673 7.647-.219 8.909-.809 3.639-1.634 9.209-8.542 14.176-16.484 6.535-10.395 10.323-21.008 10.323-30.657 0-13.065-6.756-21.008-18.484-21.008-7.576 0-15.072 4.529-19.525 12.174-3.045 5.275-4.826 10.838-4.826 16.187 0 10.535 6.237 17.663 14.11 17.663zm8.905-32.441c2.97 0 5.192 2.53 5.192 6.83 0 6.763-.889 10.911-5.487 17.449 1.183-3.271-.226-6.977-3.192-6.977h-.598c-1.634 0-4.008-2.232-4.008-5.943 0-5.714 3.788-11.359 8.093-11.359zM384.096 274.775c-.151.438-.151.736-.151.887 0 1.039.892 1.634 3.34 2.307h.302c1.039 0 1.707.292 2.146.292 1.341 0 1.414-.668 1.857-2.004l.151-.443c1.481-4.383 2.667-11.584 5.567-20.857-.292 6.231-.892 13.062-.892 19.517v.595c0 1.189 1.038 2.082 3.344 2.901l.371.146h1.331c1.711 0 2.525-.521 3.642-2.749l.142-.298c3.72-7.498 6.908-14.329 9.365-20.262-1.263 10.321-2.9 17.366-2.9 20.408v.8979999999999999c0 1.258.741 2.003 3.047 2.003h.888c2.599 0 3.783-.818 3.783-2.9v-.438c0-1.857.893-6.314 1.414-13.291.595-7.498 1.336-12.022 1.336-13.14v-.595c0-1.779-.966-3.339-4.529-3.339h-.298c-.37 0-1.409-.293-2.009-.293-1.853 0-2.667 1.258-3.188 2.15l-.297.448c-1.409 2.219-4.306 8.976-8.908 18.849.522-9.132.673-14.621.673-16.401v-.819c0-2.374-1.043-2.521-4.753-3.788l-.449-.146c-.443-.146-1.701-.146-2.744-.146-1.268 0-2.077.814-2.453 1.706l-.146.298c-1.112 2.301-6.978 20.267-8.98 28.204v.3zM278.466 261.114h.593c1.56 0 2.677.297 3.485.297 2.155 0 3.564-1.185 4.086-3.715l.298-.517c1.038-3.413 2.964-13.062 6.455-27.839 2.974-11.647 5.421-21.077 7.055-28.132l.297-.59v-1.414c0-1.931-2.447-3.642-6.016-4.305h-.518c-2.152-.229-3.264-.229-3.785-.229-1.929 0-2.967.6-3.786 1.717l-.521.59c-5.192 6.83-8.679 10.765-10.09 12.169l-.227.303c-.814 1.116-1.634 1.931-1.634 3.115 0 1.189 1.039 1.711 2.45 2.228l3.781 2.004c-5.72 22.72-8.679 35.187-8.976 37.487v.819c-.229.893-.229 1.706-.229 1.706.001 2.892 2.379 4.008 7.282 4.306zM298.657 264.751c-.965 3.34-2.228 6.158-2.827 10.463 1.936.971 2.379 1.116 4.229-.288 3.417-2.754 14.779-14.777 8.393-20.053-1.111-.887-3.267-1.999-5.565-1.701-5.048.595-8.534 8.016-4.23 11.579zM364.793 147.319c5.271 0 8.615-10.171 8.615-26.872 0-16.257-3.345-26.356-8.615-26.356-5.343 0-8.834 10.1-8.834 26.356 0 16.701 3.491 26.872 8.834 26.872zM306.668 120.447c0-15.215-3.262-23.829-9.352-23.829h-.297v48.103h.297c6.09 0 9.352-9.058 9.352-24.274zM237.787 177.156l-.499-3.276-.454 3.627zM223.165 107.755c0-8.614-2.008-13.664-5.645-13.664h-.222v27.84h.222c3.637 0 5.645-5.046 5.645-14.176zM259.091 96.1l-3.341 34.96h6.233zM150 10.001v339.998h340v-339.998h-340zm278.633 48.09v120.103l-12.247 3.566v-75.492l-6.978 7.571-3.49-22.271 22.715-33.477zm-79.646 17.742c4.227-10.614 9.57-16.7 15.806-16.7 6.012 0 11.507 6.086 15.519 16.7 4.452 11.136 6.606 26.351 6.606 44.614 0 18.703-2.154 33.404-6.606 45.057-4.012 10.691-9.507 17.223-15.519 17.223-6.235 0-11.579-6.531-15.806-17.223-4.159-11.652-6.611-26.354-6.611-45.057 0-18.263 2.452-32.957 6.611-44.614zm-24.348-12.173l13.364-2.525v117.06l-13.364 3.048v-117.583zm-41.202-1.483h16.111c4.007 0 8.239 3.042 11.208 8.61 6.01 10.092 9.5 28.354 9.5 49.66 0 21.752-3.49 40.011-9.5 50.181-2.969 5.567-7.201 8.61-11.208 8.61h-16.111v-117.061zm-79.501 0h16.701c10.395 0 15.888 12.615 15.888 34.441 0 14.18-2.152 24.792-6.382 30.436l7.146 46.826 13.937-111.703h16.104l13.88 115.499-14.47 4.085-2.152-21.303h-11.212l-2.149 21.822-14.476-4.086.085-.688-12.93 4.773-6.605-51.221v48.179l-13.363 3.042v-120.102zm226.082 248.194c-3.106.736-12.364 4.627-15.471 3.837-2.096-.526-8.249-5.051-10.516-6.626-1.789-1.263-2.16-4.422-4.524-5.261-3.472-1.155-5.158 1.526-7.05 2.106-2.053.575-5.782-.063-8.045-.371-4.529-.629-11.048-2.949-14.358-5.26-1.053-.683-1.316-2.521-2.481-3.155-1.463-.789-7.835-1.584-9.098-1.735-1.053-.166-10.57-.166-12.306.317-2.16.629-4.314 4.733-6.631 5.26-2.944.683-7.308-.526-9.414 0-1.473.361-3.203 2.258-4.578 2.102-2.155-.263-4.573-2.896-6.68-3.154-4.049-.526-4.261.629-6.309-2.423-5.736-8.625-15.833-1.054-24.514-4.944-.425-.155-.686-1.263-1.054-1.364-3.103-1.214-6.099-.107-8.098-2.111-3.313-3.203-4.527-11.623-9.471-12.988-3.314-.897-5.944 1.16-7.677 1.424-2.794.365-3.682-2.375-6.684-2.481-4.627-.2-6.888 1.321-10.153.375-1.788 1.419-4.842 6.309-9.148 6.996-2.787.42-3.687-2.735-5.578-3.529-1.682-.678-5.101-1.521-5.997-1.727-4.418-.95-6.1.624-10.15.366-4.794-.264-7.89-2.848-11.943-3.896v-82.795l227.927.059v120.978zm28.086-7.688h-14.548v-5.934c0-2.302.146-3.939.96-5.124.893-1.341 2.229-2.009 4.086-2.009 3.267 0 5.046 2.009 5.046 5.567v2.823h4.456v4.677zm0-64.655c-.746.225-1.263.225-1.564.225h-1.404c-1.561 0-2.082.595-2.082 2.077v1.931h5.051v4.598h-14.548v-6.899c0-4.231 1.038-6.089 4.227-6.089 1.712 0 2.823.673 3.564 2.374.297-1.701 1.185-2.374 3.188-2.374l2.004-.146c.751 0 .97 0 1.043-.448h.521v4.751zm0-56.34l-1.931.52v4.678l1.931.518v4.675l-14.548-5.192v-4.756l14.548-5.119v4.676zm0-55.899h-5.641v4.307h5.641v4.676h-14.548v-4.676h4.899v-4.307h-4.899v-4.672h14.548v4.672zm0-57.231l-1.931.521v4.678l1.931.519v4.677l-14.548-5.123v-4.75l14.548-5.122v4.6zM448.456 238.175c-1.189 0-1.336.673-1.336 2.077v2.009h2.667v-2.155c0-1.332-.292-1.931-1.331-1.931zM453.127 183.097l-5.046 1.409 5.046 1.487zM448.603 294.146c-1.336 0-1.482.741-1.482 2.379v1.482h2.965v-1.482c-.001-1.712-.221-2.379-1.483-2.379zM453.127 69.968l-5.046 1.482 5.046 1.414z"/></svg>