<svg xmlns="http://www.w3.org/2000/svg" width="640" height="360"><g><path d="M79.185 192.819h76.043l11.701 19.022h-87.744v-19.022zm0-29.718v18.886h69.381l-11.617-18.886h-57.764zm74.431-10.832h-74.431v-18.921h79.418c.038.743.057 1.492.05 2.257-.066 7.041-1.75 12.469-5.038 16.664m-36.244-48.735h-38.187v18.986h77.04c-5.566-12.973-20.224-18.986-38.853-18.986"/><path d="M230.861 188.976c2.205-2.828 3.031-6.552 3.031-10.07 0-2.415-.483-5.242-1.515-7.451-3.515-7.312-10.06-8.346-17.43-8.346h-18.739v48.702h11.023v-16.832h7.338l10.139 16.832h12.206l-11.179-18.559c1.854-.888 3.569-2.227 5.126-4.275zm-7.923-10.002c0 2.759-1.31 5.105-3.859 6.277-1.652.76-4.202.76-5.993.76l-5.855-.069v-13.936h5.305c3.168 0 6.751-.136 8.956 2.623.964 1.241 1.446 2.759 1.446 4.345zm39.168 21.26c-2.623 4.553-7.591 4.623-8.35 4.623-2.071 0-4.762-.897-4.762-3.865 0-4.623 7.798-4.692 10.627-5.452.897-.206 1.519-.483 2.485-.827v5.521zm10.078-8.284c0-2.898.139-7.038-.966-9.73-2.621-6.211-9.317-7.179-15.252-7.179-8.076 0-14.77 3.451-15.253 12.354h9.386c-.138-3.52 3.451-4.486 6.282-4.486 2.138 0 5.452.552 5.452 3.312 0 2.554-3.728 2.691-5.521 2.968-7.731 1.103-17.601 2.002-17.601 12.146 0 7.248 5.522 11.526 12.424 11.526 5.106 0 7.315-1.519 11.249-4.278l.069 3.243 9.737-.002-.006-19.875zm40.363 19.877v-48.719h-10.281v15.319c-2.484-2.069-5.313-3.243-8.556-3.243-10.835 0-15.735 9.386-15.735 19.115 0 9.108 5.106 18.425 15.25 18.425 3.657 0 7.385-1.105 9.455-4.348v3.451h9.867zm-9.936-17.667c0 4.694-1.243 10.144-6.969 10.144-5.866 0-7.315-5.589-7.315-10.488 0-4.486 1.726-10.283 7.176-10.283 5.935 0 7.109 5.797 7.109 10.627zm27.118-18.079h-10.075v35.746h10.075v-35.746zm0-12.973h-10.075v9.178h10.075v-9.178zm42.163 30.708c0-10.697-6.901-18.77-17.873-18.77-11.593 0-19.114 7.521-19.114 19.114 0 10.972 6.969 18.701 18.148 18.701 11.11 0 18.839-8.004 18.839-19.045zm-10.419-.414c0 5.313-1.794 11.179-8.074 11.179-6.141 0-8.074-5.658-8.074-10.835 0-5.313 2.071-10.557 8.212-10.557 6.003 0 7.937 5.106 7.937 10.213zm83.152-30.294l-7.937 32.64-6.901-32.64h-10.489l-6.762 32.64-7.729-32.64h-11.041l13.664 48.719h10.075l7.038-32.986 6.901 32.986h10.213l13.732-48.719h-10.764zm32.157 37.126c-2.621 4.553-7.59 4.623-8.35 4.623-2.069 0-4.761-.897-4.761-3.865 0-4.623 7.798-4.692 10.627-5.452.897-.206 1.518-.483 2.484-.827v5.521zm10.08-8.284c0-2.898.138-7.038-.966-9.73-2.623-6.211-9.317-7.179-15.252-7.179-8.076 0-14.77 3.451-15.253 12.354h9.386c-.138-3.52 3.451-4.486 6.28-4.486 2.14 0 5.453.552 5.453 3.312 0 2.554-3.728 2.691-5.522 2.968-7.731 1.103-17.599 2.002-17.599 12.146 0 7.248 5.522 11.526 12.423 11.526 5.108 0 7.316-1.519 11.25-4.278l.069 3.243 9.737-.002-.006-19.875zm36.224-15.869h-10.766l-5.935 22.151-6.555-22.151h-10.833l12.351 35.746h9.731l12.007-35.746zm36.229 20.839v-1.724c0-11.041-5.658-20.15-17.596-20.15-10.972 0-18.081 8.212-18.081 18.908 0 10.972 6.763 18.908 18.081 18.908 7.867 0 14.628-3.726 17.182-11.386l-10.213-.689c-1.519 2.691-3.52 3.795-6.694 3.795-4.692 0-7.107-3.243-7.729-7.66h25.05zm-24.98-7.727c1.103-4.072 3.312-6.143 7.659-6.143 3.657 0 6.28 2.554 6.626 6.143h-14.284"/><path d="M230.861 188.976c2.205-2.828 3.031-6.552 3.031-10.07 0-2.415-.483-5.242-1.515-7.451-3.515-7.312-10.06-8.346-17.43-8.346h-18.739v48.702h11.023v-16.832h7.338l10.139 16.832h12.206l-11.179-18.559c1.854-.888 3.569-2.227 5.126-4.275zm-7.923-10.002c0 2.759-1.31 5.105-3.859 6.277-1.652.76-4.202.76-5.993.76l-5.855-.069v-13.936h5.305c3.168 0 6.751-.136 8.956 2.623.964 1.241 1.446 2.759 1.446 4.345zm39.168 21.26c-2.623 4.553-7.591 4.623-8.35 4.623-2.071 0-4.762-.897-4.762-3.865 0-4.623 7.798-4.692 10.627-5.452.897-.206 1.519-.483 2.485-.827v5.521zm10.078-8.284c0-2.898.139-7.038-.966-9.73-2.621-6.211-9.317-7.179-15.252-7.179-8.076 0-14.77 3.451-15.253 12.354h9.386c-.138-3.52 3.451-4.486 6.282-4.486 2.138 0 5.452.552 5.452 3.312 0 2.554-3.728 2.691-5.521 2.968-7.731 1.103-17.601 2.002-17.601 12.146 0 7.248 5.522 11.526 12.424 11.526 5.106 0 7.315-1.519 11.249-4.278l.069 3.243 9.737-.002-.006-19.875zm40.363 19.877v-48.719h-10.281v15.319c-2.484-2.069-5.313-3.243-8.556-3.243-10.835 0-15.735 9.386-15.735 19.115 0 9.108 5.106 18.425 15.25 18.425 3.657 0 7.385-1.105 9.455-4.348v3.451h9.867zm-9.936-17.667c0 4.694-1.243 10.144-6.969 10.144-5.866 0-7.315-5.589-7.315-10.488 0-4.486 1.726-10.283 7.176-10.283 5.935 0 7.109 5.797 7.109 10.627zm27.118-18.079h-10.075v35.746h10.075v-35.746zm0-12.973h-10.075v9.178h10.075v-9.178zm42.163 30.708c0-10.697-6.901-18.77-17.873-18.77-11.593 0-19.114 7.521-19.114 19.114 0 10.972 6.969 18.701 18.148 18.701 11.11 0 18.839-8.004 18.839-19.045zm-10.419-.414c0 5.313-1.794 11.179-8.074 11.179-6.141 0-8.074-5.658-8.074-10.835 0-5.313 2.071-10.557 8.212-10.557 6.003 0 7.937 5.106 7.937 10.213zm83.152-30.294l-7.937 32.64-6.901-32.64h-10.489l-6.762 32.64-7.729-32.64h-11.041l13.664 48.719h10.075l7.038-32.986 6.901 32.986h10.213l13.732-48.719h-10.764zm32.157 37.126c-2.621 4.553-7.59 4.623-8.35 4.623-2.069 0-4.761-.897-4.761-3.865 0-4.623 7.798-4.692 10.627-5.452.897-.206 1.518-.483 2.484-.827v5.521zm10.08-8.284c0-2.898.138-7.038-.966-9.73-2.623-6.211-9.317-7.179-15.252-7.179-8.076 0-14.77 3.451-15.253 12.354h9.386c-.138-3.52 3.451-4.486 6.28-4.486 2.14 0 5.453.552 5.453 3.312 0 2.554-3.728 2.691-5.522 2.968-7.731 1.103-17.599 2.002-17.599 12.146 0 7.248 5.522 11.526 12.423 11.526 5.108 0 7.316-1.519 11.25-4.278l.069 3.243 9.737-.002-.006-19.875zm36.224-15.869h-10.766l-5.935 22.151-6.555-22.151h-10.833l12.351 35.746h9.731l12.007-35.746zm36.229 20.839v-1.724c0-11.041-5.658-20.15-17.596-20.15-10.972 0-18.081 8.212-18.081 18.908 0 10.972 6.763 18.908 18.081 18.908 7.867 0 14.628-3.726 17.182-11.386l-10.213-.689c-1.519 2.691-3.52 3.795-6.694 3.795-4.692 0-7.107-3.243-7.729-7.66h25.05zm-24.98-7.727c1.103-4.072 3.312-6.143 7.659-6.143 3.657 0 6.28 2.554 6.626 6.143h-14.284"/><path d="M208.138 230.884h-5.634l-3.029-3.826h4.432l1.464 2.219 1.397-2.219h4.5l-3.13 3.826zm112.741 16.422c0 2.526-.856 5.316-3.839 5.316-2.919 0-3.841-2.691-3.841-5.151 0-2.526.987-5.019 3.905-5.019 2.855 0 3.775 2.427 3.775 4.854m4.952.197c0-5.083-3.281-8.923-8.496-8.923-5.513 0-9.088 3.576-9.088 9.088 0 5.218 3.315 8.891 8.628 8.891 5.282 0 8.956-3.806 8.956-9.056m-18.371-4.298v-4.394c-.293-.034-.556-.064-.853-.064-2.296 0-3.576.981-4.394 3.115v-2.789h-4.726v16.994h4.955v-5.543c0-.854 0-1.741.034-2.594.066-2.754.459-4.822 3.838-4.822.393 0 .752.034 1.146.098m-36.872 12.861l-7.017-10.566 6.558-6.428h-6.265l-5.25 5.806v-11.973h-4.822v23.161h4.822v-5.644l1.574-1.576 4.266 7.22h6.133zm-19.287-5.216c0-4.267-4.2-5.022-7.481-5.708-.885-.197-2.886-.426-2.886-1.64 0-1.215 1.443-1.379 2.361-1.379.92 0 1.967.329 2.559 1.082.263.329.361.984.426 1.38l4.529-.232c-.197-4.163-3.708-5.773-7.448-5.773-3.445 0-7.086 1.377-7.086 5.38 0 6.791 10.104 4.333 10.104 7.384 0 1.345-1.377 1.573-2.429 1.573-2.164 0-3.314-.622-3.609-2.823l-4.593.167c0 .556.032 1.016.164 1.573.854 3.514 4.461 4.726 7.711 4.726 3.706 0 7.677-1.314 7.677-5.708m-22.045-5.543h-6.792c.526-1.936 1.576-2.921 3.644-2.921 1.738 0 2.983 1.212 3.148 2.921m5.083 3.674v-.821c0-5.248-2.69-9.58-8.365-9.58-5.216 0-8.594 3.905-8.594 8.988 0 5.216 3.214 8.99 8.594 8.99 3.74 0 6.956-1.771 8.169-5.412l-4.856-.33c-.721 1.282-1.672 1.805-3.181 1.805-2.231 0-3.381-1.542-3.676-3.641h11.908zm-18.009-.657l-5.412-.359c-.034 2.624-2.494 4.263-4.953 4.263-1.313 0-2.56-.425-3.576-1.247-1.969-1.641-2.363-4.231-2.363-6.627 0-3.836 1.542-7.642 5.939-7.642 1.803 0 3.411.689 4.328 2.329.199.394.394.789.494 1.214l5.215-.359c-.064-.561-.229-1.053-.393-1.576-1.377-4.101-5.478-5.971-9.58-5.971-7.249 0-11.613 4.952-11.613 12.039 0 4.857 2.297 9.612 6.988 11.449 1.443.556 3.017.752 4.561.752 3.772 0 7.281-1.377 9.218-4.755.624-1.082 1.016-2.296 1.148-3.509m165.108 2.224c-.819 1.412-2.361 2.202-3.971 2.202-1.116 0-2.265-.529-2.265-1.808 0-2.198 3.512-2.23 5.053-2.624.394-.098.789-.228 1.183-.394v2.624zm4.793-3.936c0-1.377.063-3.347-.462-4.626-1.249-2.956-4.431-3.416-7.249-3.416-3.841 0-7.026 1.641-7.257 5.877h4.466c-.066-1.674 1.64-2.134 2.985-2.134 1.018 0 2.595.261 2.595 1.576 0 1.215-1.773 1.281-2.627 1.411-3.674.524-8.368.952-8.368 5.776 0 3.445 2.624 5.481 5.909 5.481 2.426 0 3.477-.723 5.349-2.036l.032 1.542h4.629l-.003-9.45zm17.948 4.255c0-4.266-4.198-5.021-7.478-5.707-.886-.199-2.887-.426-2.887-1.64s1.443-1.379 2.361-1.379c.92 0 1.967.327 2.559 1.082.26.327.361.984.426 1.379l4.526-.231c-.197-4.165-3.705-5.773-7.445-5.773-3.445 0-7.087 1.377-7.087 5.378 0 6.792 10.103 4.331 10.103 7.382 0 1.345-1.374 1.577-2.427 1.577-2.164 0-3.314-.625-3.605-2.823l-4.594.162c0 .559.032 1.018.164 1.576.854 3.512 4.46 4.724 7.708 4.724 3.708 0 7.679-1.313 7.679-5.708m-36.38 5.216h-4.821v-23.161h4.821v23.161zm-12.991 0v-9.513c0-1.082.066-2.397-.818-3.182-.463-.428-1.084-.591-1.709-.591-.721 0-1.31.199-1.871.657-1.149.952-1.081 2.557-1.081 3.902v8.727h-4.79v-23.161h4.79v7.908c.752-1.347 3.179-2.135 4.623-2.135 1.12 0 2.464.298 3.379.952 1.97 1.411 2.296 3.314 2.296 5.579v10.858h-4.821zm-27.786 0v-3.61l8.397-9.38h-7.446v-4.004h13.451v3.907l-8.137 9.085h8.695v4.003h-14.96zm-42.61-24.161h-5.783l-2.354 4.895h3.751l4.386-4.895zm2.033 7.15h-5.119l-2.82 11.451-3.086-11.451h-5.248l4.921 13.777c.261.755.689 1.609.689 2.429 0 .558-.263 1.377-.721 1.741-.462.359-1.479.425-2.037.425l-1.278-.032v3.807l1.278.066c2.102 0 4.758.131 6.201-1.675.691-.885 1.25-2.591 1.608-3.673l5.612-16.864"/></g></svg>