<?xml version="1.0" encoding="UTF-8" standalone="no"?>
<!-- Created with Inkscape (http://www.inkscape.org/) -->

<svg
   xmlns:dc="http://purl.org/dc/elements/1.1/"
   xmlns:cc="http://creativecommons.org/ns#"
   xmlns:rdf="http://www.w3.org/1999/02/22-rdf-syntax-ns#"
   xmlns:svg="http://www.w3.org/2000/svg"
   xmlns="http://www.w3.org/2000/svg"
   version="1.1"
   width="640"
   height="360"
   id="svg3368">
  <defs
     id="defs3370" />
  <g
     transform="translate(0,-692.36218)"
     id="layer1"
     style="fill:#000000">
    <path
       d="m 79.185007,885.18161 76.043043,0 11.70128,19.02222 -87.744323,0 0,-19.02222 z m 0,-29.71783 0,18.8862 69.380833,0 -11.61722,-18.8862 -57.763613,0 z m 74.430593,-10.83163 -74.430593,0 0,-18.92135 79.417703,0 c 0.0382,0.74279 0.0565,1.4917 0.0504,2.25742 -0.0657,7.04125 -1.75,12.46853 -5.03755,16.66393 m -36.24401,-48.73547 -38.186583,0 0,18.98555 77.039543,0 c -5.56636,-12.9729 -20.22353,-18.98555 -38.85296,-18.98555"
       id="path3485"
       style="fill:#000000" />
    <path
       d="m 230.86148,881.33773 c 2.20545,-2.8275 3.03078,-6.55217 3.03078,-10.0705 0,-2.41484 -0.48297,-5.24234 -1.51463,-7.45085 -3.51527,-7.31177 -10.0598,-8.34649 -17.42965,-8.34649 l -18.73947,0 0,48.70184 11.02268,0 0,-16.83205 7.33775,0 10.13928,16.83205 12.20565,0 -11.17858,-18.55912 c 1.85393,-0.88799 3.56877,-2.22685 5.12619,-4.27488 z m -7.92312,-10.00172 c 0,2.75873 -1.30983,5.10479 -3.85916,6.27706 -1.65218,0.7596 -4.20152,0.7596 -5.99278,0.7596 -1.92882,0 -3.92641,-0.0688 -5.85523,-0.0688 l 0,-13.93577 5.30501,0 c 3.16833,0 6.75086,-0.13602 8.95631,2.6227 0.96441,1.24105 1.44585,2.75873 1.44585,4.34519 z m 39.1678,21.25977 c -2.6227,4.55305 -7.59146,4.62335 -8.34954,4.62335 -2.07096,0 -4.76243,-0.89716 -4.76243,-3.86527 0,-4.62335 7.79779,-4.69213 10.62682,-5.45174 0.89716,-0.20633 1.51921,-0.48296 2.48515,-0.82685 l 0,5.52051 z m 10.07814,-8.28382 c 0,-2.89781 0.13908,-7.03819 -0.96594,-9.72967 -2.62117,-6.21134 -9.317,-7.1788 -15.2517,-7.1788 -8.07597,0 -14.77027,3.45108 -15.25324,12.35389 l 9.38578,0 c -0.13755,-3.51986 3.45109,-4.48579 6.28165,-4.48579 2.1382,0 5.45173,0.55174 5.45173,3.312 0,2.55392 -3.72772,2.69148 -5.52051,2.96811 -7.73055,1.10349 -17.60083,2.00218 -17.60083,12.14604 0,7.24758 5.52204,11.52552 12.42421,11.52552 5.10631,0 7.31482,-1.51921 11.24888,-4.27794 l 0.0688,3.24323 9.73731,-0.002 -0.006,-19.87506 z m 40.363,19.87659 0,-48.71866 -10.28142,0 0,15.31896 c -2.48361,-2.06943 -5.31265,-3.24322 -8.55587,-3.24322 -10.83469,0 -15.73468,9.38578 -15.73468,19.11545 0,9.10762 5.10632,18.42462 15.25018,18.42462 3.65742,0 7.38514,-1.10501 9.45456,-4.34824 l 0,3.45109 9.86723,0 z m -9.936,-17.66655 c 0,4.69365 -1.24258,10.14386 -6.96942,10.14386 -5.86592,0 -7.31483,-5.58929 -7.31483,-10.48775 0,-4.4858 1.72555,-10.28294 7.17575,-10.28294 5.9347,0 7.1085,5.79714 7.1085,10.62683 z m 27.11805,-18.07922 -10.07493,0 0,35.74577 10.07493,0 0,-35.74577 z m 0,-12.97289 -10.07493,0 0,9.17777 10.07493,0 0,-9.17777 z m 42.16343,30.70822 c 0,-10.69713 -6.90064,-18.77004 -17.87288,-18.77004 -11.59276,0 -19.11392,7.52116 -19.11392,19.11393 0,10.97224 6.96941,18.70126 18.14798,18.70126 11.1098,0 18.83882,-8.00413 18.83882,-19.04515 z m -10.41897,-0.41419 c 0,5.31265 -1.79432,11.17857 -8.07443,11.17857 -6.14103,0 -8.07444,-5.65806 -8.07444,-10.83468 0,-5.31266 2.07096,-10.55653 8.21199,-10.55653 6.00348,0 7.93688,5.10632 7.93688,10.21264 z m 83.15154,-30.29403 -7.93688,32.64009 -6.90064,-32.64009 -10.48927,0 -6.76156,32.64009 -7.72902,-32.64009 -11.04102,0 13.66372,48.71866 10.07509,0 7.03819,-32.98551 6.90064,32.98551 10.21263,0 13.7325,-48.71866 -10.76438,0 z m 32.15712,37.12589 c -2.62117,4.55305 -7.58994,4.62335 -8.34954,4.62335 -2.06943,0 -4.76091,-0.89716 -4.76091,-3.86527 0,-4.62335 7.7978,-4.69213 10.62683,-5.45174 0.89716,-0.20633 1.51769,-0.48296 2.48362,-0.82685 l 0,5.52051 z m 10.07967,-8.28382 c 0,-2.89781 0.13755,-7.03819 -0.96594,-9.72967 -2.6227,-6.21134 -9.317,-7.1788 -15.2517,-7.1788 -8.07597,0 -14.77027,3.45108 -15.25324,12.35389 l 9.38578,0 c -0.13755,-3.51986 3.45109,-4.48579 6.28012,-4.48579 2.13973,0 5.45326,0.55174 5.45326,3.312 0,2.55392 -3.72772,2.69148 -5.52204,2.96811 -7.73055,1.10349 -17.5993,2.00218 -17.5993,12.14604 0,7.24758 5.52204,11.52552 12.42268,11.52552 5.10784,0 7.31635,-1.51921 11.25041,-4.27794 l 0.0688,3.24323 9.73731,-0.002 -0.006,-19.87506 z m 36.22414,-15.86918 -10.76591,0 -5.9347,22.15082 -6.55522,-22.15082 -10.83316,0 12.35084,35.74577 9.7312,0 12.00695,-35.74577 z m 36.22873,20.83947 0,-1.72401 c 0,-11.04102 -5.65806,-20.15017 -17.59624,-20.15017 -10.97224,0 -18.08074,8.21199 -18.08074,18.90759 0,10.97225 6.76308,18.9076 18.08074,18.9076 7.86657,0 14.62813,-3.72619 17.18205,-11.38644 l -10.21264,-0.68929 c -1.51921,2.69147 -3.51986,3.79496 -6.6943,3.79496 -4.69213,0 -7.10697,-3.24322 -7.72902,-7.66024 l 25.05015,0 z m -24.97985,-7.72749 c 1.10349,-4.07161 3.312,-6.14256 7.65872,-6.14256 3.65741,0 6.28011,2.55392 6.62553,6.14256 l -14.28425,0"
       id="path3489"
       style="fill:#000000" />
    <path
       d="m 230.86148,881.33773 c 2.20545,-2.8275 3.03078,-6.55217 3.03078,-10.0705 0,-2.41484 -0.48297,-5.24234 -1.51463,-7.45085 -3.51527,-7.31177 -10.0598,-8.34649 -17.42965,-8.34649 l -18.73947,0 0,48.70184 11.02268,0 0,-16.83205 7.33775,0 10.13928,16.83205 12.20565,0 -11.17858,-18.55912 c 1.85393,-0.88799 3.56877,-2.22685 5.12619,-4.27488 z m -7.92312,-10.00172 c 0,2.75873 -1.30983,5.10479 -3.85916,6.27706 -1.65218,0.7596 -4.20152,0.7596 -5.99278,0.7596 -1.92882,0 -3.92641,-0.0688 -5.85523,-0.0688 l 0,-13.93577 5.30501,0 c 3.16833,0 6.75086,-0.13602 8.95631,2.6227 0.96441,1.24105 1.44585,2.75873 1.44585,4.34519 z m 39.1678,21.25977 c -2.6227,4.55305 -7.59146,4.62335 -8.34954,4.62335 -2.07096,0 -4.76243,-0.89716 -4.76243,-3.86527 0,-4.62335 7.79779,-4.69213 10.62682,-5.45174 0.89716,-0.20633 1.51921,-0.48296 2.48515,-0.82685 l 0,5.52051 z m 10.07814,-8.28382 c 0,-2.89781 0.13908,-7.03819 -0.96594,-9.72967 -2.62117,-6.21134 -9.317,-7.1788 -15.2517,-7.1788 -8.07597,0 -14.77027,3.45108 -15.25324,12.35389 l 9.38578,0 c -0.13755,-3.51986 3.45109,-4.48579 6.28165,-4.48579 2.1382,0 5.45173,0.55174 5.45173,3.312 0,2.55392 -3.72772,2.69148 -5.52051,2.96811 -7.73055,1.10349 -17.60083,2.00218 -17.60083,12.14604 0,7.24758 5.52204,11.52552 12.42421,11.52552 5.10631,0 7.31482,-1.51921 11.24888,-4.27794 l 0.0688,3.24323 9.73731,-0.002 -0.006,-19.87506 z m 40.363,19.87659 0,-48.71866 -10.28142,0 0,15.31896 c -2.48361,-2.06943 -5.31265,-3.24322 -8.55587,-3.24322 -10.83469,0 -15.73468,9.38578 -15.73468,19.11545 0,9.10762 5.10632,18.42462 15.25018,18.42462 3.65742,0 7.38514,-1.10501 9.45456,-4.34824 l 0,3.45109 9.86723,0 z m -9.936,-17.66655 c 0,4.69365 -1.24258,10.14386 -6.96942,10.14386 -5.86592,0 -7.31483,-5.58929 -7.31483,-10.48775 0,-4.4858 1.72555,-10.28294 7.17575,-10.28294 5.9347,0 7.1085,5.79714 7.1085,10.62683 z m 27.11805,-18.07922 -10.07493,0 0,35.74577 10.07493,0 0,-35.74577 z m 0,-12.97289 -10.07493,0 0,9.17777 10.07493,0 0,-9.17777 z m 42.16343,30.70822 c 0,-10.69713 -6.90064,-18.77004 -17.87288,-18.77004 -11.59276,0 -19.11392,7.52116 -19.11392,19.11393 0,10.97224 6.96941,18.70126 18.14798,18.70126 11.1098,0 18.83882,-8.00413 18.83882,-19.04515 z m -10.41897,-0.41419 c 0,5.31265 -1.79432,11.17857 -8.07443,11.17857 -6.14103,0 -8.07444,-5.65806 -8.07444,-10.83468 0,-5.31266 2.07096,-10.55653 8.21199,-10.55653 6.00348,0 7.93688,5.10632 7.93688,10.21264 z m 83.15154,-30.29403 -7.93688,32.64009 -6.90064,-32.64009 -10.48927,0 -6.76156,32.64009 -7.72902,-32.64009 -11.04102,0 13.66372,48.71866 10.07509,0 7.03819,-32.98551 6.90064,32.98551 10.21263,0 13.7325,-48.71866 -10.76438,0 z m 32.15712,37.12589 c -2.62117,4.55305 -7.58994,4.62335 -8.34954,4.62335 -2.06943,0 -4.76091,-0.89716 -4.76091,-3.86527 0,-4.62335 7.7978,-4.69213 10.62683,-5.45174 0.89716,-0.20633 1.51769,-0.48296 2.48362,-0.82685 l 0,5.52051 z m 10.07967,-8.28382 c 0,-2.89781 0.13755,-7.03819 -0.96594,-9.72967 -2.6227,-6.21134 -9.317,-7.1788 -15.2517,-7.1788 -8.07597,0 -14.77027,3.45108 -15.25324,12.35389 l 9.38578,0 c -0.13755,-3.51986 3.45109,-4.48579 6.28012,-4.48579 2.13973,0 5.45326,0.55174 5.45326,3.312 0,2.55392 -3.72772,2.69148 -5.52204,2.96811 -7.73055,1.10349 -17.5993,2.00218 -17.5993,12.14604 0,7.24758 5.52204,11.52552 12.42268,11.52552 5.10784,0 7.31635,-1.51921 11.25041,-4.27794 l 0.0688,3.24323 9.73731,-0.002 -0.006,-19.87506 z m 36.22414,-15.86918 -10.76591,0 -5.9347,22.15082 -6.55522,-22.15082 -10.83316,0 12.35084,35.74577 9.7312,0 12.00695,-35.74577 z m 36.22873,20.83947 0,-1.72401 c 0,-11.04102 -5.65806,-20.15017 -17.59624,-20.15017 -10.97224,0 -18.08074,8.21199 -18.08074,18.90759 0,10.97225 6.76308,18.9076 18.08074,18.9076 7.86657,0 14.62813,-3.72619 17.18205,-11.38644 l -10.21264,-0.68929 c -1.51921,2.69147 -3.51986,3.79496 -6.6943,3.79496 -4.69213,0 -7.10697,-3.24322 -7.72902,-7.66024 l 25.05015,0 z m -24.97985,-7.72749 c 1.10349,-4.07161 3.312,-6.14256 7.65872,-6.14256 3.65741,0 6.28011,2.55392 6.62553,6.14256 l -14.28425,0"
       id="path3493"
       style="fill:#000000" />
    <path
       d="m 208.13752,923.24592 -5.63361,0 -3.02925,-3.82554 4.4323,0 1.46419,2.21921 1.39694,-2.21921 4.49955,0 -3.13012,3.82554 z m 112.74098,16.42245 c 0,2.52641 -0.85589,5.3157 -3.83929,5.3157 -2.91921,0 -3.84082,-2.69147 -3.84082,-5.15064 0,-2.52641 0.98733,-5.0192 3.90501,-5.0192 2.85502,0 3.7751,2.42707 3.7751,4.85414 m 4.95195,0.19716 c 0,-5.08339 -3.28143,-8.92269 -8.49626,-8.92269 -5.51287,0 -9.08775,3.57641 -9.08775,9.08775 0,5.21789 3.31505,8.89059 8.6277,8.89059 5.28209,0 8.95631,-3.80566 8.95631,-9.05565 m -18.37113,-4.29781 0,-4.39409 c -0.29345,-0.0336 -0.55633,-0.0642 -0.85284,-0.0642 -2.29562,0 -3.57641,0.98122 -4.39409,3.11484 l 0,-2.7893 -4.72575,0 0,16.99406 4.95501,0 0,-5.54343 c 0,-0.85437 0,-1.74083 0.0336,-2.59366 0.0657,-2.75414 0.45852,-4.82204 3.83776,-4.82204 0.3928,0 0.75197,0.0336 1.14629,0.0978 m -36.87218,12.86132 -7.01679,-10.56569 6.55828,-6.42837 -6.26483,0 -5.24999,5.80632 0,-11.97333 -4.82204,0 0,23.16107 4.82204,0 0,-5.6443 1.57423,-1.57577 4.26571,7.22007 6.13339,0 z m -19.28663,-5.21636 c 0,-4.26724 -4.19999,-5.02226 -7.48142,-5.7085 -0.88493,-0.19716 -2.88558,-0.42642 -2.88558,-1.63995 0,-1.21506 1.44279,-1.3786 2.36134,-1.3786 0.92009,0 1.96703,0.3286 2.55851,1.08209 0.26288,0.3286 0.3607,0.98428 0.42642,1.38013 l 4.52859,-0.23231 c -0.19716,-4.16331 -3.70785,-5.7727 -7.4478,-5.7727 -3.44496,0 -7.08557,1.37707 -7.08557,5.3799 0,6.7906 10.10413,4.33296 10.10413,7.38361 0,1.34497 -1.37707,1.5727 -2.4286,1.5727 -2.16419,0 -3.31353,-0.62205 -3.60851,-2.82292 l -4.59278,0.1666 c 0,0.55633 0.0321,1.01637 0.16354,1.5727 0.85436,3.51375 4.46134,4.72575 7.71068,4.72575 3.70632,0 7.67705,-1.3144 7.67705,-5.7085 m -22.04536,-5.54343 -6.79212,0 c 0.52576,-1.93646 1.57576,-2.92074 3.64366,-2.92074 1.73777,0 2.9834,1.21201 3.14846,2.92074 m 5.0834,3.67422 0,-0.82074 c 0,-5.24846 -2.68995,-9.57989 -8.36483,-9.57989 -5.21636,0 -8.59408,3.90502 -8.59408,8.98841 0,5.21636 3.21418,8.98993 8.59408,8.98993 3.73995,0 6.95566,-1.77139 8.16919,-5.41199 l -4.85566,-0.33013 c -0.7214,1.28231 -1.67205,1.80501 -3.18056,1.80501 -2.23144,0 -3.38078,-1.54213 -3.67576,-3.6406 l 11.90762,0 z m -18.00891,-0.6572 -5.412,-0.35917 c -0.0336,2.62423 -2.49431,4.26265 -4.95348,4.26265 -1.31288,0 -2.56003,-0.42489 -3.57641,-1.24716 -1.96855,-1.64148 -2.36287,-4.23055 -2.36287,-6.62705 0,-3.83624 1.54213,-7.64191 5.93928,-7.64191 1.80349,0 3.41135,0.6893 4.32838,2.32926 0.19869,0.39432 0.39432,0.78864 0.49366,1.21353 l 5.21484,-0.35917 c -0.0642,-0.56091 -0.22926,-1.05305 -0.3928,-1.57576 -1.37707,-4.10064 -5.47771,-5.97138 -9.57988,-5.97138 -7.24911,0 -11.61264,4.95195 -11.61264,12.03905 0,4.85719 2.29716,9.61199 6.98776,11.4491 1.44279,0.55633 3.01702,0.75196 4.56068,0.75196 3.77205,0 7.28121,-1.37707 9.21767,-4.75479 0.62357,-1.08209 1.01637,-2.29563 1.14781,-3.50916 m 165.10788,2.22379 c -0.81922,1.41223 -2.36135,2.2024 -3.97074,2.2024 -1.11571,0 -2.26506,-0.52882 -2.26506,-1.80808 0,-2.19781 3.51222,-2.2299 5.05283,-2.62422 0.39432,-0.0978 0.78864,-0.22773 1.18297,-0.39433 l 0,2.62423 z m 4.793,-3.93558 c 0,-1.37707 0.0627,-3.34715 -0.46157,-4.6264 -1.24869,-2.95589 -4.43078,-3.41593 -7.24911,-3.41593 -3.84082,0 -7.02597,1.64148 -7.25675,5.87662 l 4.46593,0 c -0.0657,-1.67358 1.63995,-2.13362 2.98492,-2.13362 1.0179,0 2.59519,0.26135 2.59519,1.57576 0,1.21506 -1.77292,1.28078 -2.62728,1.41069 -3.67423,0.52424 -8.36789,0.95218 -8.36789,5.77575 0,3.44497 2.62423,5.48078 5.90872,5.48078 2.42554,0 3.47707,-0.72293 5.34933,-2.03581 l 0.0321,1.54214 4.62946,0 -0.003,-9.44998 z m 17.94777,4.25501 c 0,-4.26571 -4.19846,-5.02073 -7.47837,-5.70697 -0.88646,-0.19869 -2.88711,-0.42642 -2.88711,-1.63995 0,-1.21353 1.44279,-1.3786 2.36135,-1.3786 0.92009,0 1.96703,0.32707 2.55851,1.08209 0.25982,0.32708 0.3607,0.98428 0.42642,1.3786 l 4.52553,-0.23078 c -0.19716,-4.16484 -3.70479,-5.7727 -7.44474,-5.7727 -3.44497,0 -7.0871,1.37707 -7.0871,5.37837 0,6.79213 10.1026,4.33143 10.1026,7.38208 0,1.34498 -1.37402,1.57729 -2.42707,1.57729 -2.16419,0 -3.31353,-0.62511 -3.60545,-2.82292 l -4.59431,0.16201 c 0,0.55939 0.0321,1.0179 0.16353,1.57576 0.85437,3.51222 4.45982,4.72422 7.70763,4.72422 3.70785,0 7.67858,-1.31287 7.67858,-5.7085 m -36.38004,5.21637 -4.82097,0 0,-23.16108 4.82097,0 0,23.16108 z m -12.99123,0 0,-9.51264 c 0,-1.0821 0.0657,-2.3965 -0.81769,-3.18209 -0.4631,-0.42795 -1.08362,-0.59148 -1.70873,-0.59148 -0.72139,0 -1.30982,0.19868 -1.87073,0.6572 -1.14935,0.95218 -1.08057,2.55698 -1.08057,3.90195 l 0,8.72706 -4.78994,0 0,-23.16108 4.78994,0 0,7.90784 c 0.75196,-1.3465 3.17903,-2.13515 4.62335,-2.13515 1.1203,0 2.46375,0.29804 3.37925,0.95218 1.97008,1.4107 2.29563,3.31353 2.29563,5.57859 l 0,10.85762 -4.82051,0 z m -27.78596,0 0,-3.61004 8.39692,-9.37967 -7.44627,0 0,-4.00436 13.45128,0 0,3.90654 -8.1371,9.0847 8.69496,0 0,4.00283 -14.95979,0 z m -42.60972,-24.16064 -5.78339,0 -2.3537,4.8954 3.75064,0 4.38645,-4.8954 z m 2.03275,7.14976 -5.11855,0 -2.81986,11.45063 -3.0858,-11.45063 -5.24846,0 4.92139,13.77682 c 0.26135,0.75502 0.6893,1.60939 0.6893,2.4286 0,0.55786 -0.26288,1.37707 -0.7214,1.74082 -0.46157,0.35917 -1.47947,0.42489 -2.03733,0.42489 -0.42336,0 -0.85131,-0.0321 -1.27772,-0.0321 l 0,3.80719 c 0.42641,0 0.85436,0.0657 1.27772,0.0657 2.10152,0 4.75785,0.13145 6.20064,-1.6751 0.69083,-0.88493 1.25022,-2.59061 1.60786,-3.6727 l 5.61221,-16.86415"
       id="path3497"
       style="fill:#000000" />
  </g>
  <metadata
     id="metadata4993">
    <rdf:RDF>
      <cc:Work
         rdf:about="">
        <dc:title></dc:title>
      </cc:Work>
    </rdf:RDF>
  </metadata>
</svg>
